<svg xmlns="http://www.w3.org/2000/svg"
     xml:space="preserve"
     viewBox="0 0 1727 1920"
     fill="#000000">
    <path d="M1542 106c3 3 2 7 2 10 1 10 0 19-2 29-3 16-7 31-9 47l-4 20-4 18-13 35-1 8-11 34c6-6 10-13 15-20l24-36c4-5 5-11 10-15 0 4-3 6-4 9 4-2 4-8 8-10 3 0 4 3 5 4 2 13-2 25-7 37l-20 49-9 21-7 20-7 13c-3 6-5 13-10 19l-10 21c-2 3-2 7-5 10l-9 15-2 7c-4 6-10 10-13 17l6-6c13-13 24-28 36-42l9-2 6 5c2 8 0 17-4 24-8 20-17 39-29 56-7 13-16 24-24 35-6 5-8 12-14 16-3 3-6 5-8 9-1 3-2 7-5 9l-10 10c-4 4-9 7-12 12l-6 4c3 0 5-2 7-4l24-12c9-7 16-15 24-23 2-2 5-4 8-3l4-2c4 11-1 23-7 33l-8 14-6 8c-12 15-23 31-37 44l-23 19c-3 3-8 4-10 8 8-2 15-5 22-9 11-6 22-14 32-21 3-1 4-5 7-6l1 6c2 4 0 9-2 12-4 11-11 19-18 28l-17 21-7 8c-2 4-5 8-9 11l-13 14-16 16c-6 6-11 12-18 17l-15 14-7 6c-3 5-10 7-14 12 5 0 10-2 14-4 5-2 9-2 13-5 6-4 13-2 19-6 1 1 4 2 2 4-2 1-4 3-3 6l4-2c3 2 4 6 3 9-1 5-5 10-9 14-6 6-11 13-18 18-11 9-21 18-33 25l-19 10-2 2c9 3 20 1 26 9 2-2 3-4 5-4 2 7-1 13-5 18-4 4-6 9-10 12l-18 13c-9 6-19 9-29 14-5 2-11 4-16 4l12-6c-3-2-7-1-10 0-5 3-11 1-16 4-4 3-9 0-13 4 0 2 3 2 4 2 2 0 3 2 4 3 14 6 25 17 31 32 2 4 5 8 4 13-2-2-2-5-4-5-3 1-3 5-5 7 0 3-3 4-5 5-7 2-12 7-19 8-12 2-25 2-37-1-7-3-16-3-23-6-1-3-2-6-6-5 1 3 5 4 7 7 6 10 15 16 22 25l-2 2c3 5 8 10 8 16l-6-1c-1-2-2-4-4-4-26-17-45-42-72-57 4 9 12 14 19 21 1 3 4 5 6 7l22 16c7 5 14 11 22 14 0 3 1 6 4 7s6-2 10-2c1 2-1 4-2 4-5 3-10 3-15 4-8 5-16 6-25 6-10-1-18-7-28-5 3 5 9 7 14 11l27 10 12 5c12 3 23 8 34 13l17 10 29 14 9 5 11 7c14 9 27 19 37 31l5 6c1 4 5 6 5 10 1 5 4 9 8 12 2 2 6 1 9 3s7 1 11 2l26 5h8l11 6c4 2 8 1 12 4l9 5c10 3 19 9 29 11l30 4c10 1 21 1 29-5 5-3 10-5 14-9l8-9c4-10 8-21 7-32 0-10-5-19-8-28l-4-7-9-17c-3-3-7-6-9-10l-8-10-16-20-6-6c-4-3-6-8-10-12l-14-19-6-9c-7-7-10-16-14-24-2-5-1-10-3-14-4-6-4-14-5-21-1-14-1-28 5-41 2-6 7-11 11-16l4-5c4-2 7-5 12-6l-4 5-8 8-5 5-4 10c-1 2-4 4-4 7-1 6 0 12-3 17 0 12 6 24 8 36 2 2 1 6 2 8 4 8 10 15 11 24 1 5 5 9 8 13 2 4 3 9 7 12l8 9 14 15c2 3 4 8 8 10s5 6 8 10l15 18 4 7c3 3 3 8 6 11 2 2 4 4 4 6 3 9 7 18 9 28l2 18c0 5 0 10-3 15-3 4-9 7-11 13l-9 8c-4 4-11 4-15 8 1 4 6 3 7 6l-12-3c-2-2-5-1-7 0 4 7 13 8 17 15l-7-2-15-12a319 319 0 0 1-35-3l3 4c4-1 8 2 13 4l11 8c5 4 9 9 15 10 1 1 2 2 1 4-3 1-4-2-7-3l-9-9c-6-3-10-7-16-9 0 3 3 5 5 7 4 3 7 7 9 12-9-7-16-17-25-23-6-5-14-7-21-11-3-1-5-4-9-5l-18-7c2 3 5 7 9 7 0 3 2 5 4 7 4 4 9 7 12 12 3 6 8 10 12 14 8 9 18 15 29 17-7-6-16-9-22-16l-5-8-16-16c5 0 8 5 11 8 3 4 9 5 12 8 4 5 8 9 13 12 3 3 5 6 9 6l-6-8c8 7 20 9 31 7l1 3 6-1c1-3-5-4-2-6l13-5c1-1 3-1 3-3l-3-2c4-1 9-2 11-6l5 1c8-4 15-11 18-20l-4 1 6-12c2-4 2-8 2-12 1-5 4-8 4-13 1-10-1-20-2-29-3-17-13-31-22-45l-9-15-19-22-14-18c-9-9-17-19-24-30l-13-20-4-10c-5-9-6-18-8-27-2-10-2-22 3-31 3-3 3-8 6-11 2-3 5-4 8-4 1-2 1-4 3-5 2-2 5-1 8-1s7-2 10 0l11 11c7 8 13 18 14 29l8 4c-3-6-9-11-11-18-1-5-1-10-4-14-4-6-9-10-14-14l-11-4 3-3c-4-2-8 0-13 0-1-5 4-4 7-5l2-4c3-4 9-5 14-4 9 1 16 6 25 10 0-3-2-5-4-6l-11-5-6-1-9-3c1-1 3-3 5-3l12 4c7 1 13 6 20 9l-7-6-9-7c-4-1-9-1-10-6l9 2c5-2 11 0 16-4 7 1 14 4 19 9l3-1 18 13-16-16v-1l7 6c8 4 15 12 22 18 2 1 1 3 2 5 6 4 12 9 20 7 4-4 5-9 5-14-7 4-16 2-24-1l8 9c-4 0-6-2-8-4l-10-11c-7-9-16-16-24-24-7-5-16-7-23-12-10 0-20-3-29-1-3 0-6 2-7 5-7 2-14 6-19 11-3 9-3 18-4 27l-5-1-3-9 1-1 2 1c1-6 0-12 3-17s9-8 15-11c2-1 2-5 5-6 8-4 17-5 26-4 7 1 14 0 21 2 8 2 12 10 20 13l10 10h2c5 9 14 13 21 19 6 5 15 4 21 0 4-2 7-6 9-10l2 2-2-9c4 0 5 5 5 8 0 12-6 22-13 32-4 5-11 6-15 10-3 2-7 5-11 5-3 8-7 16-14 20-5 3-11 3-17 2-3 1-4 5-7 6-6 2-11 6-17 6-8 1-16 1-23-2-10-5-21-11-26-21-4-7-3-16-1-23l4-4c0-2-3-2-4-1l-8 6-4 6-4 5c-2 7-1 15-2 23 0 2-2 2-3 3 1 11 4 21 10 31 2 2 2 5 3 8 1 5 4 9 8 12 3 4 3 9 7 13l35 42c6 7 13 13 18 21l10 14c0 4 1 8 4 11 9 11 15 25 19 39 1 4-1 9 1 14 3 8 1 16 0 24-1 7-3 14-6 20-2 5-1 12-6 16-4 5-5 12-11 14-4 1-6 5-10 7s-8 3-11 6l-6 2c-3 1-2 5-5 6-6 3-12 3-18 4l-2 2c-8 1-16 3-23 1-3 0-6-2-8-4h-11c2 5 8 5 10 9-9 1-14-6-20-11-1 4 3 6 4 9 1 2-1 3-2 2l-8-6-9-10-7-10-7-10-3-8c-9-15-23-27-39-34 7 12 19 21 28 33 1 2 4 1 5 3 9 12 18 25 28 36l4 7 4-2c1 2 1 4-1 6-6 0-10-5-13-9-6-2-11-6-18-7l-12-8c1 6 10 7 11 13l-10-5c-1 2-1 5-3 6-4-3-8-8-8-14 0-3-2-5-4-7l2 6c-2 0-3-2-5-3 1 7 6 14 6 22 0 2 0 4-2 6-6-1-8-8-11-12l-16-26c2-5-3-9-5-12-2-4-3-8-2-11l-7-12-5-7c-2-3-5-6-5-10 6 5 9 12 14 18 8 12 15 25 20 39 0-4-1-7-3-11l-5-9c7 0 7 8 9 13 5 3 5 9 9 13 0-9-5-18-9-26-8-12-14-25-24-36 1 4 4 8 3 12-2-1-3-4-3-6-2-6-6-12-11-17v-2c-8-14-20-26-33-37l-7-3-1-3c-10-8-21-14-32-20 0 3 4 2 6 4l11 9c1 5 5 7 9 10l1-2c13 8 23 19 32 31 4 5 10 11 12 18-5-1-5-6-8-8-17-18-36-34-56-49-5-5-13-6-17-12l-7-4-37-20v-4l-44-15c-3-4-9-3-13-5-6-5-13-9-20-12-2 3-1 8 2 10l17 11c1 2 2 0 3-1 18 10 36 19 52 32 7 4 13 9 21 10 1 1 3 0 3 2h-8c4 5 10 7 15 11l7 4 9 5c3 7 9 10 12 15 4 0 7 3 9 5l22 19 21 22 5 4-2 1c5 15 10 30 10 46l3-1 18 26 11 14 1-6c2 0 1 3 2 4 0-3 1-7-1-10v5c-2 0-3-1-2-3-1-7-6-12-10-17-8-10-17-18-22-30 6 3 8 10 13 15 0-9-6-17-10-25-2-2-4-4-3-7 1-4-4-6-4-10 9 6 12 16 19 23 3 4 4 9 8 12-3-16-13-29-22-43-2 1-3 0-4-1-10-14-23-24-36-36-4-3-7-8-12-11-4-2-7-4-9-7l-8-5-17-10-3-4c13 5 23 15 35 22 3 1 4 3 6 5l14 12 8 6c7 8 16 15 22 24 2 0 4 0 5 2 4 6 9 12 12 19l2-1c2 5 3 10 6 14 3 5 2 11 5 16l4 6c6 15 9 31 11 47 1 13 2 26 8 38l2 10c-7-3-6-11-9-16-1 1-1 4-3 5l-2-28c-2 0-3-2-4-3-6-16-19-28-28-42-1-2-3-2-5-3l-2-6c-1-7-1-14-5-20-2 0-3-3-4-2l-1 3c-2-2-5-4-6-7l5 2-5-5 1-3-3-7c6 3 7 9 12 13-3-11-8-23-18-31v-3c-10-11-22-21-34-30 6 15 19 24 27 38-7-2-9-10-14-15-5-4-8-11-12-16-6-7-10-15-17-21-2-2-2-6-5-7l-7-3-15-10c-2-2-6-2-9-4l-6-4 1-4c-14-12-30-21-46-29l-11-5 4 5c-9-4-17-11-25-16-1 4-1 7 1 10 6 9 17 11 23 19-4 0-7-2-10-4l-12-9c-2-3-6-4-8-6-2-3-4-4-7-5v10l13 10c6 6 16 10 20 18-5-2-8-6-12-8-4-1-6-6-9-8l-12-10-3 2-1-11c-2 1-3 4-3 7 1 2 3 5 2 8l-4-4-5 1 32 31c-4-1-8-3-10-6-5-5-8-10-14-14l-11-8-5-5-11-1c-13-4-24-12-33-21l-1 11c6 6 14 11 18 19 4 4 9 6 11 12-11-6-17-18-27-25 5 10 12 18 19 26 4 6 10 11 12 17-5-2-7-7-11-11l-23-30-4 16c5 8 11 15 15 23 1 2 3 2 4 2 0 6 7 9 9 15-7-1-8-8-12-12-7-9-12-19-20-27l-2 3h-7l5 8 11 16h3l8 10c1 3 6 3 6 7l-9-6-6-5-18-24c-3-3-4-7-8-9l-6-1c3 8 9 15 14 22l4 8c3 5 8 9 9 15-4-3-6-8-9-12-3-3-4-7-6-10-7-8-12-16-18-25l-8-7c3 10 10 19 12 29-4-3-5-7-7-11l-11-20c-1-8-8-11-13-16-1 2-2 5-1 8 1 7 6 12 8 19-6-3-7-9-10-14-4 5-3 12-6 18l-1 4-7 5c-2 1-3-1-4-2 2-1 4-2 4-4 1-6-3-10-7-13l-7-14-4-12c-4-7-5-16-11-23-4-6-5-14-9-20l-6-12c1 9 6 17 9 25l2 11c7 15 10 32 19 45 2 2 4 5 6 5 1 1 1 4 3 3h2l-2 6-3-3c-8 0-13-8-20-11-1-2-3-4-5-4-4-7-9-12-14-17h-1c0 12-5 24-10 35l-3 1 8-20c2-8 4-16 1-23-1 9-1 19-5 29-2 5-3 10-8 13l-2 3h3c4 9 12 15 15 24l-8-7c-3-5-8-9-10-15 0 1-1 4-2 2-2-4 1-8 2-12 0-4-3-6-5-9-5-6-6-13-9-20l-13-43c-2-5-1-11 0-16l-7-7c0 1 1 5-1 5v-32c3 4 1 8 2 12 6-2 9 4 10 9 2-3 1-7-1-10l-7-12c2 0 4-1 5 1 3 2 4 5 5 8 2-7-2-13-7-18-1-1-3-4-2-6 5 0 7 6 10 8v-10h-3c-3-5-10-10-9-17 7 2 5 11 11 14l-2-8-4-6c5 0 7 6 9 10 2-6 3-11 3-17 0-2 2-3 4-4 0 2-2 5 0 6h1l1-5c2 0 2 3 3 5-1 10 3 20 3 31v14l3 1c1 4 4 8 7 10-3-12-5-25-4-37 1-5 0-11 3-16l1 7c-2 14 0 27 2 41 1 5 3 10 9 12l1-7-6-34c-1-5-2-10 0-14 3 3 2 8 3 12 4 14 4 28 6 43 1 3 4 6 7 7 2-5-5-7-4-12 1-6-1-12-2-18-2-9-4-18-2-27a564 564 0 0 1 6 31c3-1 6 2 8 5 0 1 0 3 2 3 0-2 2-2 3-2 1-3-2-4-3-6-3-2-5-6-4-10 3 0 5 2 6 4v-9c0-6-6-9-5-15 3 1 4 4 6 5l1-7-4 3c0-2 0-5 2-7l3 1c2-2 2-7 6-7-1 3-3 6-3 10 1 5 3 11 3 17s-2 11 0 17l4-2c-2 6 3 11 7 15-1-16-4-31-4-46 0-6 1-12 4-17v9c-2 10 2 19 2 29l1 19c0 5 1 11 4 15h2v-37c0-9-1-18 1-27 5 22 2 45 3 67 1 4 6 7 9 9 3-3 4-6 4-10 3-2 4-5 5-8h-3c-2-3-2-7-5-8 0 4 4 8 3 12l-2 1-1-5c-2 5 2 10-1 14-2-3-5-8-3-12 2-15-3-30 1-45 0-2 1-4 3-5l-1 9v24h4l5 13 4-11c-2 0-4 0-4-2-2-6-5-12-5-18 6 3 6 10 9 16 2-5 5-10 4-16 0-6-3-11-6-15v-4c-3-4-7-9-5-14 3 1 3 4 4 7 1 2 3 4 3 7l5 7c2-8 1-16-4-22l-2 3-1-5c4 0 8 3 9 6 4 10 3 20 3 29l7 4-2-38 2-7c2 3 1 7 1 11 1 14 3 28 2 43 1 4 5 6 9 6 2 0 3 3 5 5 1-15-1-31-2-46v-9c2 0 2 1 2 2l1 11c1 7 3 14 1 21l8 11c1 2 3-1 3-2-1-6-8-11-7-17 5 0 5 5 8 8l2-8c-3-7-8-13-7-21 4 2 5 9 7 13 2-3 2-6 1-9-2-5-7-8-7-14 4 0 5 4 7 6 1-4 0-9-2-13l-7-6c1-2 4-3 6-1 8 5 6 17 13 23 3-8 2-16 1-24l-3-15c-1-2 0-4 2-4 4 10 5 22 5 33v13c1 2 3 2 5 2 1-14-4-29 1-42 1 1 2 2 1 4l1 27c0 4 0 9 2 13l4 3c2-14-2-28-2-42 3 3 3 8 4 12h6c1-2 0-5 3-5 0 3 1 5 4 7v-8c-3-4-9-7-9-12h5c-2-5-9-6-12-11l-2-6c6 0 10 5 14 9 0-9-5-17-4-26 0-1 0-3 2-3l3 7c3 16 6 33 12 48 2-11-2-21-3-32-1-6-2-12 0-17l3 9c1 13 4 26 4 39l1 4 8 3c-1-3-4-6-4-9-2-6-1-11-2-17s-4-12-4-18c5 3 6 9 6 14 2 8 1 16 5 23 2 3 4 7 7 9l8 4c4-5 0-11-1-16s-6-7-6-12c3-1 5 3 7 4-1-5-7-8-10-12l-4-1c0-1 0-3 2-3h6c-1-6-6-9-11-10 1-3 5-2 8-3l-3-3-13-4c1-6 8-1 11 0-2-7-6-13-11-18l-1-5c4 1 6 5 8 8l9 5 22 8c6-8 8-18 6-27l-4 1c1-6-5-8-6-14l5 1c-2-5-6-11-11-14-4 0-7-2-11-3-1-3 3-2 5-2-3-5-8-8-12-12l-7 2c1-6 7-9 12-8l8-9c1 2 0 5-1 7 3 0 6-3 8-5l-3-5-3 1c7-8 16-15 21-24l-4 1c2-6 8-10 10-17l-6 3c0-3 4-5 5-9-5 2-7 8-11 12-4 0-7 3-8 6h2l-1 2c-12 6-20 17-30 25l-7 7-4 7c4-1 7-4 11-4l-5 4c-2 3-5 7-10 7 0-2 2-3 3-5l-2-1c4-13 16-21 25-31l-2-2-12 10c-1 2-3 2-5 3 1-5 5-9 9-12l13-10c7-5 15-9 19-16-2 1-4 2-6 1-10 5-16 15-25 20l-1-2h-4c1-5 5-8 9-10 7-5 15-8 20-15 4-4 9-7 11-12-14 7-26 15-39 24l-4 1c-17 11-32 25-48 38l-16 11c-3 3-5 7-9 9 1-5 5-8 8-11l19-15 21-18 27-20c12-10 26-18 37-30-9 4-17 7-25 12-4 3-7 8-12 7l20-17 9-7c7-6 14-11 20-18-8 4-16 7-21 14-2 2-5 3-8 2 4-8 13-11 20-16 14-10 29-17 42-27l3-4-6 3-8 4c-6 6-15 6-21 12l-18 12c-7 7-17 10-24 16-5 2-8 8-14 10 0-2 2-4 4-5 10-9 21-15 30-23-2 0-4 2-7 1l1-2 20-10 13-7 26-19 8-1 8-5 4-8c-16 9-31 20-47 28l-2-3c-11 6-22 13-32 21-4 2-7 7-12 9l-17 14c-6 4-10 11-17 14 2-5 7-9 11-13s9-7 12-12l-9 5c0-4 4-5 6-7l19-11c6-6 15-8 20-16l27-18c0-2-2-3-3-5-13 7-23 17-35 25-2 0-5 0-6 2l-12 6-14 10v-4c-11 7-21 16-32 22 5-8 14-13 22-19 5-5 12-8 18-12l29-20c5-4 10-6 14-11l-8 3 4-6c-8 1-14 8-21 12l-24 16c-9 6-17 14-27 20 5-7 13-11 19-16l16-14c-6 3-12 7-17 12l-25 18-13 14-3-1c-10 12-21 25-27 41-5 12-7 25-8 38 0 2-2 2-3 3l3 3c-1 6 4 9 6 14h3c0 5 4 9 4 14h4c2 4 1 8 0 11-2 8-7 14-10 21-3 6-9 11-14 16l-19 16c-11 7-24 11-35 17l-5 10c-2 7 1 15-2 23l-2-4c-1-9 1-18 4-26-3 1-6 1-8 4-3 6-4 13-5 19-1 3-1 7 2 8l4-5c3 2 2 5 1 8-8 3-18 3-26 0-1-2-2-5-1-7 5-6 6-14 9-21-6 1-11 3-17 3 2-3 5-3 7-3-3-3-7-3-10-3-4-2-8-4-13-3v-4c-5-2-11-2-16 0-4 1-6 5-8 8-5 5-8 12-9 19 4 0 7 3 10 6l4-13c2-6 5-12 10-16 1 5-3 7-5 11l-6 18 8 2c-1 2-3 3-5 3l-12-3-3-5h-4c0-11 7-20 13-29-4-1-9 1-11 5l-4 8c-4-2-3-8 0-10 3-4 8-5 12-7l9-3-1 3h1v-3l3 3c7-2 14 0 21 1-2-5-7-8-11-10l4 5c-6 0-9-5-12-9-5-12-2-26-3-38-1 0-3 2-4 1-2-1-2-3-3-5 4-7 12-12 18-17l22-15c3-4 8-6 12-10l2-1-11 11c-4 4-9 6-12 11 5 1 9 0 12-4l10-8c2-7 8-12 10-19-1-1-3-2-2-4 6-11 12-22 15-34l-9 7-10 8-10 5c-5 4-7 10-12 14l-11 8c-2 3-6 5-9 5 1-4 5-6 8-9 6-4 12-9 17-15l-5-2 5-3-2-2-7 5-13 8c-3 2-6 4-10 4-4 1-8 3-11 6-3 2-7 3-9 6-1 1-4 2-4 0-1-3 3-4 5-5l5-6c9-5 15-14 22-21s14-16 14-27c-2 0-4 1-4 3l-6 15c-6 11-15 19-24 27l-11 8-1 3c-5 2-9 6-13 9-7 5-15 10-21 17-5 3-10 7-12 12l7 4c1-2 1-4 3-5 10-7 18-15 27-23l9-3-6 5-11 10c-5 5-12 8-15 15l10-7c0 7-9 8-13 12l-7 1c3 3 7 3 11 4 8 2 18 3 26-2 1-1-1-3-1-4 10-15 26-23 36-36 2-2 5-4 8-3-1 3-4 5-6 7-9 12-23 17-31 29l5 1 25-20c3-3 5-7 9-9 8-3 14-9 20-15 4-4 7-10 9-15 1 3 0 8-2 11-6 9-15 15-24 21l-8 7-22 19c-1 3-2 5-5 6-2 1-3-1-4-1-4 6-13 8-21 9-10 0-20 0-28-6-3 1-6 1-8 3-3 8-8 15-12 22l-4 3c-4 7-11 12-17 18-9 9-18 18-26 29l-8 9c2-8 8-14 14-21l17-19-5 2 1-3c4-3 10-4 13-8l9-8c1-1 3-2 3-4l11-18c-7 1-15 1-21 3l-7 13c3 1 8 1 9 5l-7-2c-4 0-9 2-13 1-1-4 5-2 7-3 2-4 5-9 6-14h-6c1 4-2 7-6 8 1-3 4-4 4-8h-12c-7 0-14-3-21-4-6 1-12-1-18-3-4-2-8 1-12 1l-1 3-11-1c-9 0-17 4-26 6 4-5 11-5 16-8l1-3c9 2 19 2 28-1l3-6 7-8c-6 1-9 7-15 8l-11 4c-4 0-9-1-13 1-6 1-13 0-19-1-4 0-8-1-10-4 7 0 14 4 22 4 13-1 26-4 37-11-1-2-2-3-1-5 7-11 21-15 30-23l-4-2c1-6 8-8 12-11l24-18c7-4 13-8 21-9l5-2c-2-3 0-6 1-9v-2l-2 3c-3 0-6 0-8 2-5 2-11 3-15 6l-13 7-5 3-4 3c-6 3-11 8-14 14l4-1c1 2-1 3-2 4-3 0-4 3-6 4l-10 6c-3 2-5 5-9 6-1 2-4 2-6 3-4 4-9 8-12 13v3c-1 0-4 0-4-2 1-4 3-6 3-10l38-23v-5c4-8 11-14 18-18l5-1c12-7 24-15 38-17l-1-5c-2 1-4 3-6 2a524 524 0 0 1 44-46l-3-4-5 2-1-3-3 1c-6 12-16 22-28 29-9 7-21 12-30 20-1 1 1 5-1 5h-3c-6 2-11 6-16 9-6 3-12 7-17 12l26-14 10-7 2 1-1-1 5-1c-2 4-7 5-10 7l-16 10-16 9c-2 2-6 2-9 4l-11 5c-4 1-8 4-13 3 7-6 18-6 25-12v-4c6-5 12-9 19-12 8-5 18-9 24-17l-3-2 8-4c5 0 9-3 13-5 13-7 26-16 34-29 2-2 4-5 4-8l-6 6c-5 3-7 8-12 11l-8 5c-8 5-16 11-25 14-5 1-8 4-12 6l-2 5c-3-1-4-4-6-6-8 2-15 6-21 11-7 4-14 9-19 16l3 3c-2 1-5 2-7 0 0-6 4-10 8-13 11-8 23-16 36-21l9-10c-6 0-10 3-14 6-13 7-26 16-38 25l-8 5 5-7 18-13 23-14c1-2 0-4-1-6-10 5-20 13-30 19l2 2c-10 5-19 12-26 21l-4 6c-3 1-4-3-2-4 4-7 10-14 16-20 7-5 15-9 22-15l14-8c4-1 8-5 12-2l3-5c-7-2-15 0-21 4-4 2-9 4-12 7-6 5-14 7-19 14l1 4c-3 2-4-2-6-2-3 4-7 8-7 13-9 6-18 10-27 17l4 1c-5 1-10 4-15 4l8-8 26-14c1-3 1-7 3-9 5-8 13-13 20-19 7 0 11-6 16-9l17-6c4-7 11-11 16-17-13 1-25 10-36 16-10 6-20 11-28 20-2 1-2 3-3 5l-6-1-1 4-3-3c-15 5-28 15-39 25h2l-4 10c3-1 6-1 8-3 7-10 19-15 28-22 3-2 8-4 11-1 0 2-3 1-5 2-10 7-21 12-30 21l3 2-4 2c-7 1-14 3-18 9l-2-4 8-13c-3 1-4 4-5 6-3 0-4-3-6-4l3-6c-7 3-14 7-20 13-4 2-9 3-12 6-4 5-6 10-9 16l-10 16c7-4 11-11 17-16 3-2 4-5 6-8 6-7 13-13 22-14-1 2-4 1-6 3l-13 14-2 4-4 7-2-1c-8 9-18 16-25 26-2 2 1 3 2 4 3 1 6-1 7-3l16-21c1-2 3-2 6-3-2 7-8 11-11 17l11-9 5-5 10-4c8-5 15-15 25-16l-5 4-13 11c-4 2-7 6-7 10 8-4 14-11 22-15 3-1 5-1 7-3 10-6 18-14 29-19l-1 2-12 9c-4 3-9 6-12 11 4-1 7-5 11-7 10-5 20-11 31-15l13-3c2 0 3 2 3 4-3-1-6-2-8-1-17 7-34 15-48 26 5-1 7-5 12-6-2 5-7 6-10 9-1 2 2 2 3 1 11-7 22-13 34-18 5-1 9-6 14-8 4-2 9-4 10-9 10-7 22-14 33-19 4-3 8-5 13-4l-8 4c-11 5-20 12-30 19-2 1-1 3-2 4-5 0-8 4-12 7-2 2-5 2-8 3a307 307 0 0 0-45 25l8-1c-1 5-8 4-10 8 16-2 31-9 44-17l8-4 1 3 14-4c-2 4-7 4-10 6-5 1-8 4-11 6l-2-3c-10 5-19 10-29 13-2 0-2 3-2 5 7 0 14-1 20-4 7-3 11-9 19-10-2 5-7 7-11 9l-15 6-7 1-1 3c-5 0-10 3-12 8l8 1c6-4 13-6 20-8 3-1 6 0 7 3-7-1-14 2-20 5l5 3c-5 4-11 0-16 1s-9-3-14-3l-11 2c-3 0-6 3-9 4l-12 3c-2 2-4 2-7 2l2-5c7 0 12-4 16-8l-2-4c-3 1-7 2-9 4-4 6-12 10-17 15-1 1-4 1-4-1 0-3 3-4 5-5-3 0-6 2-9 0-4 2-9 4-12 7-1 1-4 3-5 1 0-3 3-4 5-5-2-2-5-1-8-1-4 5-6 13-10 19-2 0-2-2-3-2-6 4-10 10-14 16-4 7-8 14-8 23 5 0 9-1 13-3-1-9 5-17 10-24 4-6 8-13 15-17-2 5-7 8-9 12-4 9-13 17-13 27 3 0 6-1 8-3l6-12c3-3 5-8 9-10-2 9-11 15-12 24l5-1v-3c10-5 22-2 34-1 6-6 13-11 21-13l-16 12v1c4 3 10 4 13 8 2 6 8 8 12 11s8 8 8 13l-10-11-20-11c-4-2-9-1-14-2-12-3-24 0-35 3l-24 8c-5 3-12 1-17 4l-7 5-2-4c-3-1-6-4-8-7-8-3-13-11-17-20l-4-9c-4 8 3 15 6 22-3-1-5-3-6-6l-1 2v6c-3-2-3-6-3-9h3c-4-4-4-9-5-14l-2 9c1 6 0 13 2 19 2 3 2 6 3 10 2 11 10 21 19 29v3c3 1 7 2 8 5-6-2-13 1-19 2-5 3-10 5-14 9-7 8-16 15-18 26 4-3 6-9 11-12 8-4 16-5 25-5 12 2 23 3 35 3 2 0 5 1 7 3-16 1-32-5-48-2l-10 2c-3 2-7 2-9 5l-12 12c1 2 4 0 6-1l-1-4 25-8c-5 6-14 6-20 10 8-1 16-4 23-2 6 1 10 6 15 9-2 2-4 3-7 3-10 10-18 22-18 36l5-10 6-8c3-4 8-5 13-7 13-4 28-5 42-2 2 1 5 1 7 3-7 0-14-4-21-2-9 2-19 0-28 4-11 5-18 16-22 27 5-2 7-7 11-9 3-2 6-6 10-7 1 2-2 3-3 4-5 7-13 12-17 20-1 3 0 6 1 8 2-6 5-12 10-15 6-5 14-9 22-10 11-2 22 1 33 5 9 4 18 5 27 7 6 1 12 3 18-1 1 2 2 2 4 1 1 0 3 2 5 1 9-2 19-5 25-12 6-2 9-7 12-12 4-5 6-12 11-16 1 6-3 12-6 17-3 6-6 11-11 15l-13 8c-3 11-4 22-3 33 1 5 2 11 5 16l-2 9c6-6 8-15 6-23-1-4-3-7-1-11s-2-8-1-12c4 3 5 9 6 14l1 14 5 4c6 8 14 15 19 24 4 7 7 15 6 23 0 2-1 5-3 7 1-12-3-23-10-32l-16-22c3 12 15 21 17 34l-7-11-12-18c-4 7-7 16-15 21-2 1-8 2-8-2l9-4c3-17-7-34-5-51l3-11-4 1c-1 12-3 25-2 37 0 4 2 7 1 11-3-3-4-7-4-11-1-12 1-24 1-36-3 0-7 1-8 5-2 9 2 17 4 25-2 0-3-1-3-3-3-8-7-17-3-25h-7c-2 6-1 13 2 19 3 9 7 19 15 25-1 3 1 6 1 9 0 6-1 12-4 17l-4 3c2-5 5-10 5-16-1-5 0-11-4-15-5-4-7-9-10-14-5-8-6-18-5-28-6-3-13 0-18-5l-29-8c-11-3-25-3-36 3-7 4-14 11-15 20 0 4 4 6 5 9-7 1-10-6-12-11h-3c0-11-4-21-2-31 1-6 3-13 7-18l3-6 12-10c-6-4-13-2-20 0s-14 4-21 8l-7 5c-4-4 3-8 2-12-1-5 1-10 3-15 1-2 3-4 2-7l-7 1c-3-2-4-7-8-8s-8-1-11-3c-6-3-13-4-17-9-4-3-9-4-14-6l-23-12-10-4c-4-1-9-1-13-3s-7-6-12-8l-13-5-6-1c-4-3-9-5-12-10-2 3-6 6-6 10 1 5 4 10 4 15l-2 13c3 6 5 11 4 18 1 5-2 10-3 15-1 4 3 7 2 11-2 8-4 16-10 23-4 3-7 6-12 7l-5 6c-10 4-23 4-33 0-2-4-7-5-7-10l12 2c2-3 2-6 2-9 3-3 7-4 7-8 1-3 4-4 5-6 5-10 6-22 5-33s-5-22-3-34v-12l-2-11c0-6 4-10 6-15-6-8-16-12-23-21l-5-4-16-19-12-10-8-8-8-6c-4-7-11-10-18-14-1-4-3-8-6-11-6 2-8 8-12 12-4-6 0-13 3-18 4-7 11-16 20-14 4-2 9-4 14-3 10 1 19 7 26 14l3 6c6-2 12 2 16 6-1-15-1-31-8-45-1-5-1-12-6-15-2-9-1-20 6-27 2-2 4 0 5-1-4-2-10-1-15-1l-3 2-6-2c0-3 3-6 6-6 4 0 6-4 10-5h13l13 5c7 2 9 9 13 14l5-3c6 0 13-1 18 3 4 4 9 8 11 13s6 9 6 14c1 8 1 16-4 22 5 11 7 23 3 35-1 2-4 3-3 6l4 10c3 10 0 20-7 28 2 4 4 8 3 12 0 4-2 9 1 13l9 8h4c9 4 18 8 24 15l3 1c11 0 23 4 31 12 4 3 8 1 12 3l10 4c2 2 6 1 8 3 3 2 5 5 9 6 5 1 12 1 16 5 5 1 10 4 15 4 4 0 7 2 11 3l24 4c-1-4-4-7-7-10-2-3-2-7-3-10-4-8-7-16-7-24 2-7-1-15 2-22l5-9c1-4 3-6 5-9 1-2 0-5-1-7l-3 1c-3-7-11-9-18-11-6-3-14-3-19 1-2 2-5 0-5-2-1-4 1-8 3-11 3-4 8-6 12-7l10-4h20c-4-7-13-10-20-11-3 1-6 2-10 1 4-5 10-4 16-5-4-3-10 0-14-2-3-4 3-4 5-4 5-3 11-5 16-9-8-20-18-39-27-59l-11-23-3-9-5-9c-2 3-1 7-1 10-1 4-4 8-6 11 0 8 1 16-3 23-1 3-3 5-6 7 2 11-2 23-11 29-3 2-2 5-3 8-4 5-8 10-15 13-4 3-10 3-14 6-5 0-11-2-14-6-4-3-7-7-10-12l-4-3c0-2 2-3 3-3 4 1 6 4 10 4l6-7c4-3 7-6 9-11 1-4 2-8 5-11 5-12 8-25 11-38 1-5 0-11 3-16 4-5 3-11 5-16 4-4 5-9 6-14-1-5-6-8-6-13-1-7-4-13-6-19l-4-10c-3-5-4-12-8-16-3-5-5-11-9-15-3-4-3-9-6-13-3-3-3-8-5-11l-4-9c-5-8-8-16-11-24-2-5-4-11-3-16l-1-6c-3-1-5 1-8 3h-1c-1-5-2-10 1-14l11-6c4-1 8 1 11 2l10 6 10 5c5 6 10 11 12 19 2 4 2 8 2 13 11 8 16 22 16 35 5 7 11 15 13 24 0 4-2 9 2 13 4-3 4-9 4-13l-1-17-2-16c0-9 1-18-1-27-1-6-3-12-2-18v-6l-5-7c-1-8-1-16 3-23 1-4 5-5 8-7 3 3 2 7 0 9 5 0 10-1 15 1 2 0 3 3 3 5-3 0-6-4-9-3l-10 2-1 3c4 2 9 1 12 2 2 1 2 3 2 4-5 0-12-3-17 0-2 2 1 4 1 6 6 0 13-2 18 1l-1 3h-15c1 2 4 3 3 6l-5-1v2c6-2 13-1 18 2-5 4-11 1-16 4l3 5c6 0 14-1 17 5-6 0-11-2-16 0 1 3 4 5 6 6 3 1 8 1 8 4-5 1-10 1-14 4l11 4v5c-3-2-8-5-10 0 4 3 10 2 11 7-3 0-6-2-8 0-1 1 1 2 2 3 3 3 8 3 11 7-4 1-9-1-13 3 2 3 6 3 9 4 2 1 2 3 2 4-3-1-9-2-11 2l7 3 1 3c-3 0-6-1-8 1 2 2 6 2 8 5-2 3-7 2-9 5 3 3 9 2 9 7l-7-1 2 6c2 0 7 0 6 3h-7c1 4 3 7 5 9 0 3 2 6 4 8 1 3-1 6-2 9-3 1-3-3-2-5 1-3-2-6-5-6 0-4-2-6-4-9-2-4-6-7-10-8-3 0-4 3-5 5l-2-1 2-4c0-6 2-12 0-17-2-7-9-11-11-18-3 1-6 2-8 0-2-1-1-3-1-5 2 0 6 1 7-2 2-6 0-12-2-17-2-4-5-8-9-10-4 0-4 5-8 5-3-3-1-8 3-9 1-4 3-8 1-13-1-5-4-9-8-13-4-5-11-9-18-8v-4c-5-4-12-7-17-3l9 4c3 1 6 4 7 8-4-2-8-4-12-3v12c4 0 7 0 10-2l5-5c2 2 3 5 1 6-4 4-9 4-14 6l6 15 2-2c4-1 9-3 12-6l4 2c-1 4-5 4-8 6-1 4-6 3-9 1l15 33 13 22c6 10 10 22 14 33 4 9 6 19 11 27 1-1-1-3-1-5l4-6-1-7c0-3-4-2-5-5v-5c-2-2-4-4-3-7 2-3 9-4 9 1l-4 1c1 4 8 2 8 6-1 2-3 1-5 1 1 5 10 1 10 7-1 2-4 1-6 1v3c2 1 6-1 5 2 0 5-8 4-8 10 4 0 9-2 10-6 6-2 11 1 17 1 2-1 3 1 4 2-1 2-3 4-5 3v-3c-5 0-10 2-13 6h10c2 0 3 2 3 4-4 0-8-2-11 1l3 1 1 1c-7 1-14 2-18 8l5 3v3c-4-1-8-4-12-2-3 1-3 4-4 6l13 1c2 0 2 2 2 3h-13l-3 3c4 1 10 1 12 6-3-1-7-3-11-1l-2 5-4-1v4c5 0 13-1 16 5l-10-1c-2 0-4 1-4 3 2 2 5 1 8 2v4c-3-1-8-1-9 3 2 1 6 2 5 6l-8-1c1 3 4 3 6 4l1 4-9 1c-2 0-2 1-2 3 3 2 8 2 8 7-4 0-7-2-11-1 0 2-1 4 1 5s4 3 4 6c-4-1-9-4-11 1 2 3 7 3 7 8-3-1-9-3-9 2l3 6c-3 1-8 1-9 5-4-2-7 1-9 4 4 5 10 6 16 8 8-2 15-8 19-15l-7-1c1-6 8-6 12-9 4-4 8-8 9-13 2-2 1-6-1-8l-6 2 1-6c3-3 7-4 10-6 3-1 4-5 5-7 2-4 2-8 1-12l-11 1c1-5 6-7 9-9 4-2 6-5 8-8-1-5 2-11-1-15-2 1-3 4-4 1 0-2-2-7 2-7 3-1 5 2 8 3l-1-6c0-2 1-3 3-4h11l6-1c1 2-1 3-3 5l4 6c-4-1-5 4-9 5l-5 4c-1 3 2 5 5 4s5-6 10-6l-1 5c-3 4-8 4-11 7l2 2c4-1 7-5 12-3-1 4-6 5-8 7s-1 4 0 5c3-2 6-5 10-5 2 1 2 4 1 5l-6 3 1 3-3 2c10 24 23 47 31 71l10-1c-3-2-6-4-7-7-2-1-4-1-5-3s1-4 1-6c-2-3-3-5-3-8-1-2-4-3-4-5l2-4-7-4 1-6c-2-2-4-5-3-8-3-2-6-2-8-5v-3c-2-1-4-3-4-6s3-4 5-4v-4c3 0 6 1 6 4s-4 4-6 5v3c3 0 7-3 9 0 1 3-4 2-4 5 3 2 7 1 11 2v3c-1 1-4 1-4 3 3 1 8 0 9 5l-7 4c4 4 10 4 14 7-2 2-6 1-7 4 4 0 9-2 13 0 2-1 3-4 3-6l-2-9c0-8-6-15-12-20-2 2-2 5-5 5s-8 0-8-4c2-3 6-2 9-3 3-5-1-11-2-16-2-7-5-13-11-17-2 1-4 4-7 3-2 0-3-3-3-4 2-1 6-1 7-3 3-6 0-13-3-19-2-4-6-8-7-13h-4c0-2 0-5 2-6 1-2 3-3 3-5 0-7-3-13-6-18 0-8 6-16 2-23 0-3-3-3-4-3-2-3-1-7 2-8l3-1c2-5 3-12 1-18-3-3-7-4-7-9l11-2c0-4 3-8 1-12-2-6-3-12-8-16 1-3-1-5-3-7l-5 1c-2-4 2-7 6-7 3 0 4 4 6 7 4-5 4-12 2-18-3-5-2-12-4-18-1-4-6-4-8-6-2-6-9-12-16-12 1 5 8 6 9 11-2 1-4-1-6-3-4-5-11-8-17-5-2-3 1-6 3-9l12-1c7 0 12 7 17 11 4 2 7 5 9 9 4 7 3 16 5 23 4 0 8 0 12 2 4 3 10 6 13 11s6 11 7 17l1 17c0 5-5 7-8 9 2 7 2 13 1 20 0 4-4 7-5 12-1 3-5 4-7 6 3 5 2 11 0 16-2 4-4 9-9 10-3 2-5 5-8 5v11c4-3 4-7 5-11 3 4 0 10-1 14 0 3-3 2-5 4 6 9 13 18 12 29-1 5 5 7 7 11 5 9 9 18 8 29h4c9 9 14 22 15 34 8 5 11 14 13 23 3-3 3-7 6-10 5-8 13-13 20-18 8-5 18-8 27-4-2 4-7 5-10 8-6 5-11 13-10 22s10 16 18 18a145 145 0 0 1 51-58c3-1 7-1 10-3 4-2 6-5 9-8 6-7 14-13 24-16l-4 4c-6 3-11 8-16 13 8-4 15-7 24-9 7-1 13-4 20-4 2 0 5 2 6 4-1 2-4 0-5 0-3-2-7 0-10 1s-7 1-10 3l-26 17c-3 3-7 6-9 10 4 0 7-4 9-7 7-6 15-11 24-13l4 1c-2 2-5 1-8 2-6 3-11 8-16 13l12-6c8-5 17-9 27-13 4-2 8-2 13-3 2-1 3 1 4 2l-10 1-25 10c-10 8-23 13-31 24 9-2 12-13 21-12-2 3-9 5-7 10 9-6 18-13 28-18 4-2 10-2 14-6l9-7 23-15c3-1 7-2 9-5l-14 4-15 6v3c-2-1-6-2-6-5 1-4 5-7 8-9 8-5 17-10 26-13 2-1 4-2 4-4-7-2-14 2-21 4l-24 15v-4l-6 3-3-3 7-1 6-4c8-7 18-11 28-12 7-1 15 0 20-5l10-7c3-4 6-8 11-10 8-3 15-8 23-10 8-4 17-7 23-14 4-6 10-11 10-19 6 2 10-3 13-7-4 2-8 4-12 4 0-5 7-5 10-7 7-5 10-13 15-20 2-7-2-13-4-19l-1-1-6-5c-1-2-2 0-3 1-1-2-2-5-4-6l-5 1-2-4-10-1c-10-4-20-4-30-4-11 0-22 0-32 5l-6 1c-4 2-8 5-13 3 0-5 5-7 9-9 6-1 10-5 15-7l16-4c4-1 8-5 13-3 1-2 4-2 6-1 10-2 20 1 31 1-7-7-16-9-24-12-7-3-14-3-20-6-13-3-27-3-40 0-4 0-7 4-12 4 0-3 2-6 5-7 11-6 24-8 36-8 22-1 43 3 64 9-2-5-7-9-10-15-3-1-6-4-9-4-7 0-13 4-19 5-1-2 0-5-3-7l-10-7-3 2c-1-4-6-4-10-5-8-2-17-4-25-1-7 1-16 4-20 11-3 4-5 8-5 13l-1 6c-2 1-4-1-6-3-4-5-6-12-7-19-2-8-3-17 0-25l3-12c0-3 4-5 5-8 3-6 10-8 13-14 8-5 18-8 28-9 3 0 6 2 9 1 8-2 17 1 25 3l10-8h11l3-4c3-2 3-5 5-7 11-7 24-12 37-10 4 0 7 5 12 4 7 0 13 3 20 1 4 0 7-2 10-4l9-5 12-11c6-7 12-16 16-26s10-21 9-33c0-6-4-10-6-16l-3-1 1-1c3-1 6 3 10 3 4 13 2 26-2 38-1 3-4 7-2 11 3-2 3-6 4-8l6-19v-6l3-1c0-4 0-8-2-11-3-5-9-8-13-11 1-2 3-3 4-1l11 8c4 5 6 13 3 20v5c7 2 9 12 6 18-4 7-1 15-2 22l3-4 2 3-3 12c3-1 3-6 6-5 1 3-2 6-1 10 1 2-1 3-3 4 0 2 3 2 4 1l3-6c1 1 3 2 2 4 0 4-4 7-4 11 6-3 9-9 14-12l10-10c9-14 22-28 27-44l5-7c2-6 2-12 1-18 0-3 2-5 4-5l1 8 6 8c2 7 2 14 0 21-4 15-12 28-20 41l-4 7c-5 3-7 9-12 12l1-4c-5 5-8 11-11 18 8-6 15-14 21-21l3-1c-2 6-7 10-11 14-7 7-15 14-17 24 7-3 11-9 16-14l12-16-1-3c4-4 6-10 9-14 0-2-1-4 1-6l6 3c3 6 2 13-1 19-2 2-5 5-3 8-5 6-9 13-11 20 3 1 6 2 8 5-3 2-7 2-10 3-4 2-7 5-9 8l-3 1c0-6 7-9 11-12l-4-1-1-4c-4 3-6 8-10 12-3 1-3 4-6 6-1-4 2-7 4-9l10-11c2-2 1-5 4-6 8-7 13-16 17-25l1-8-4 7c-9 16-22 29-35 42 2 10-5 18-10 25-3 3-5 8-9 10l-19 11c-3 1-8 2-11 0 10-1 19-7 27-13 7-8 11-17 17-25l1-5-4 2c-2 4-5 8-9 10-2 1-4 1-6-1 2-6 7-11 13-13-2 4-8 7-9 12 4-2 7-6 10-10l4-7c0-2-2-3-3-4-5 3-9 7-11 13l-2-2c-1-2 1-3 2-5 6-7 15-12 18-21a1169 1169 0 0 0-22 17l2-4 19-16c0-2 2-2 4-2 4-7 8-14 15-19 3-2 6-2 8-5 10-14 14-30 18-46l2 1c3-6 2-14-2-19-3 8-5 16-10 23-10 14-17 29-29 42l-27 25c-6 7-13 12-22 14-5 2-11 4-17 4 3-3 7-2 10-4l-1-4c8 0 15-2 20-8-5-1-9 4-15 3 4-6 11-5 16-9-5 0-9 3-13 2 3-3 7-3 11-4l-5-5c-6 3-13 4-20 5l-5-1-8 2-15 1-24-2-4-2-2 2-21-6c-10-1-21 2-29 9-7 6-4 16-3 24-2 3-6 4-7 8l2 10c1 2 4 3 6 4 2 0 5 0 6 2 1 1 0 3-1 4 2 1 5 2 4 5-6-1-10-6-15-10-5 9 2 19-2 29-4-3-2-8-2-12 0-6-2-13 2-18l-6-9-3-1-2-6c-1 0-2 1-2 3-2 5-1 10-2 15v13l2 12c0 1-3 3-3 1-4-12 0-24-1-36 0-2-2-3-4-3-2 6 1 12 0 18v21c-4-2-3-7-3-11 1-9-2-19 0-28l-5-1c-2 5 0 11-1 16l2 6-1 15 16 13 7-4c7-1 15 2 20 7l12 15c3 8 6 17 12 22l9 5c-1 3-4 4-7 4l-15-3 2 6c0 3-1 6 1 9l4 4c1-3 2-6 5-7l-1 12 5 5c3 3 3 8 3 12 5-6 7-13 5-21 4 2 5 7 4 11-1 7-6 13-8 20l-3 6-6 8-10 13c6-3 11-9 16-14l8-7c0-3 0-7 3-7 2 6-3 11-7 16l-2 8c7-3 14-8 17-15 0-2 2-3 4-3-1 9-9 15-16 21l1 4c4 0 7-2 9-4 7-7 14-15 19-24 3-3 4-8 8-9-3 9-8 16-14 23 4 1 1 4 0 6 4-1 5-5 7-8 4-5 6-11 8-17 2-3 2-8 6-10-3 16-10 33-24 44-3 4-5 8-9 11-4 2-3 7-5 10-5 6-13 9-17 15 4-1 7-4 11-6-3 7-11 8-17 12l-6 7c-3 4-3 10-8 12l1-6c-5-1-8 3-12 6l-37 23-10 10 3 6 15-10c2-2 5-1 7-3 10-7 19-17 32-21l23-23c4-4 7-9 12-9-1 3-4 4-6 6-7 8-16 14-22 23l-4 6c6 2 10-4 14-8l8-7 8-5c1-9 6-16 11-24 4-6 7-13 12-19 2-2 5-5 8-5l-6 6c-7 12-15 23-21 35l-1 7c-2 4-7 5-9 9l-4 6c-3 4-8 5-12 9 5 0 7-6 12-6 4 0 7-4 9-7 3-3 8-2 12-3 6-10 13-19 22-28l2-5 8-7-1-3c8-5 13-12 18-20 4-6 8-13 9-20-5 10-11 20-18 29-3 3-6 7-11 8 2-6 9-9 12-15 5-8 12-16 14-26 2-11 0-23-8-30v-4c-5-1-11-2-13-8 8 4 17 8 25 4v3c-2 2-5 1-8 1 2 5 6 10 7 15 2 4 1 9 1 13 1 4 3 9 2 14-2 9-9 15-12 23l1 2c9-6 14-16 17-25l1-1 2 2c3-5 6-10 7-15 0-10-1-20-4-29-2 0-2 2-2 3-5-2-1-10 3-8 3 3 3 6 4 9 2 6 3 12 2 18l2 7-3 14-2-4-18 27c6-1 12-5 14-11l3-4c1 7-1 15 1 22 7-6 9-16 7-24l2-1c5-8 4-17 4-26l-2-19 2 5c1 9 4 19 2 29 0 5-3 9-4 14 0 4 2 7 1 11-1 8-7 14-11 20-4 7-7 15-13 20v7h1c0-2 1-3 3-4 7-3 11-9 16-15l4-5c2-11 9-21 10-33l-1-14 2 2c1-12 0-24-4-35-3-6-8-12-7-19l3 3c3 10 10 19 11 29 1 8 2 15 1 22l-3 9c3-2 3-6 5-9 1-3 0-6 2-10 3-6 2-13 0-20l-11-31c4 1 5 6 6 10l6 16c3 5 4 10 4 16 3-4 4-9 4-13 0-6 2-12 1-17l-7-23v-2c3 2 4 6 6 9 1-5 0-10-1-15 6 0 8 9 14 9 8 10 11 22 10 35l1 9 5 8-2 16c6-4 7-12 6-18l-5-8c1-7 2-13 1-19l-2 1c-2-10-2-22-8-31l-2 5-4-5-2 2c-3-5-2-12-7-15l-9-4 9-4c3 1 3 5 6 7-2-5-4-11-8-15l-12 13c-3 2-7 3-10 2l3-2c-3-1-7-1-9-3 5-2 11 0 16-1l9-10c-2 1-3 3-5 2-2-3 2-4 3-7 4-6 6-13 11-19-2-3 0-6 2-9 5-5 9-11 15-14l12-4c2 0 2 2 3 3-3 1-7 0-8 4-6 3-11 9-15 15-5 6-10 13-13 21l1-2c2 2 0 5 1 7 4 5 10 9 13 15 4 12 10 24 13 37 4 12 0 25 5 36 1 4 8 2 8 7l-7-2c-1 7-3 17-12 20-2 5 3 10 3 16-1 8-6 16-6 24l11-9 10-6c3-3 5-7 9-9l12-9c5-3 10-5 14-9l4-2 11-7 22-14c4-2 9-5 12-9l13-8c14-10 27-21 38-34 7-9 12-18 15-28l3-1 1-2c5 3 5 9 5 15 0 8-4 15-7 22-3 6-6 12-7 19 4-3 5-7 8-10 10-8 15-20 24-29l7-10 3-6c22-31 34-67 52-99 4-6 5-13 7-19l1-6 6-1c2 3 4 7 4 11 0 15-4 30-9 45-2 7-5 13-6 20 5-6 7-14 12-20l13-25c11-20 23-40 30-62l5-8c5-14 12-28 16-42l-2 2c9-32 20-63 27-95-2 2-2 6-4 9-1-4 1-8 2-11l7-31c4-10 4-21 4-31 2-3 6-4 10-3 6 6 5 16 6 24 1 12-2 24-2 36-1 25-7 49-12 73l-12 45-1 8-5 12-2 10c7-9 10-20 15-30 5-8 7-17 10-26 2 0 2 1 3 2 4 0 8 2 10 6 3 8 2 17 1 26a595 595 0 0 1-37 124c-1 2-3 4-3 7s-3 5-4 8c-1 7-8 12-9 19 2 1 4 2 2 4l-8 8c-3 8-8 15-12 22-2 2-4 7-8 7 1-6 8-9 9-15 1-8 6-13 9-20l8-17c-6 8-10 19-17 26l-13 23c-1 2-4 5-3 8v15l6-5 5-7 20-26c1-2 0-4 2-7 4-7 7-14 9-22 2 1 3 4 3 6 6-6 10-14 14-21l26-45c4-6 7-13 12-19l4 6 1-5c6 3 4 11 4 16l-4 40 4-5c14-25 30-49 43-74 4-10 11-19 15-29 2-4 3-9 6-12 5-5 6-12 9-18 9-18 19-37 25-56 3 1 1 4 1 6l12-27c3-10 8-20 12-29 3-7 5-14 9-20 5-8 8-17 11-26 4-13 8-25 10-38 1-3 4-4 5-6l5 3-1-6m-16 85c-2 8-6 16-6 24 3-8 6-16 7-24h-1m-41 66c3-6 7-12 8-18-3 6-7 11-8 18m68-17c-1 4 0 9-2 14l-3 13c3-6 6-14 7-21 0-2 1-5-2-6m-28 49-6 9c3-1 5-5 6-9m-216 2-2 5c2 0 3-4 2-5m41 0c-1 3 3 0 0 0m123 23c3-5 7-9 7-15-3 4-6 10-7 15m-18-2c1 1 2-1 2-2-1-1-3 1-2 2m-147 32c-4 9-7 19-12 28-7 18-18 34-26 51l-20 40-25 48-3-2c-4 9-12 15-15 25l-5 8-17 24c-5 9-12 17-19 25-6 6-13 12-17 19 14-9 28-21 37-36l6-8 6-12 2 1c6-12 15-21 22-32l7-4 37-65 12-33 6-13 15-31c5-10 7-22 11-32l11-32-13 31m181-10c3-3 6-6 6-10-3 3-6 6-6 10m-185-7c1 1 1 1 0 0m20 12c-5 8-9 16-12 25-2 4-4 8-4 12 3-3 4-8 6-11s4-5 4-8 2-5 3-7c3-3 2-8 4-11 2-2 4-5 4-8l-5 8m-416 20c4-6 6-14 3-21l-3 21m521 4-4 6a772 772 0 0 1-51 80l-2 6-5 16-2 2-16 28c-2 4-5 8-6 13 6-5 8-13 12-19l9-15c2-6 3-12 7-16 3-2 4-5 6-8l31-53 29-52c-4 3-6 8-8 12m-529-6 2 5c1-3 3-6 2-9l-4 4m367 32c6-6 8-13 11-20 1-6 4-11 6-16-7 11-12 23-17 36m-371-28-5 14c5-4 7-10 7-16l-2 2m11 7-13 17c4-1 6-6 11-6 4-5 5-13 7-20l-5 9m395 37-10 16-9 20c-7 7-9 17-14 25l-7 9c-8 20-18 38-26 57l3-2 10-18 17-32c5-6 8-13 11-20 4-7 7-15 13-21 2-1 2-4 3-6l7-15c9-18 18-35 23-54-8 13-14 27-21 41m-24-20c-2 2 0 6-2 8-6 5-10 12-14 20-3 1-4 5-6 8-11 22-24 42-36 63v4c4-3 6-8 9-11l20-33 2-6c8-9 10-22 16-32 2-1 4-1 5-3 6-13 14-25 18-39-6 6-8 14-12 21m-39-13-1 5 2 1-1-6m259 17 9-17c-4 5-8 10-9 17m-168 16c2-9 7-16 7-25-3 8-7 16-7 25m121 2-13 23-1 4c10-13 17-27 26-41 2-3 3-6 2-9l-14 23m-12-14c-7 9-12 19-16 30l-5 8 9-15c3-8 10-15 12-23m52 6c-5 9-11 17-15 27 8-11 15-21 19-34l-4 7m-12 2 4-7c-2 2-4 4-4 7m-177 34c-2 6-5 10-5 16 8-14 14-29 20-44l3-12-18 40m-455-31h4l8-6c-4 2-9 3-12 6m40-1 8-1c-2-3-7-1-8 1m32 4c1-1 3-2 3-4-2 1-4 2-3 4m329 9-14 24-6 9c-4 4-4 10-7 14-9 23-19 45-32 67l-4 6c-4 3-5 7-7 11-4 7-11 13-14 22l-26 30-5 5-5 7 22-22 6 1c4-3 5-7 8-11l8-12 29-47 11-21c3-3 1-7 3-11 3-5 6-10 5-16a443 443 0 0 0 38-66c-3 2-3 6-6 8l3-9-7 11m155 18c5-2 7-8 10-12 3-5 6-9 6-15l-16 27m-139-8 6-11c-3 3-6 7-6 11m246-3 1 4-1 6v8l3-12c0-3 0-5-3-6m-142 19 1-4 2-11c-3 4-4 10-3 15m-660-14-1 6h-5c2 4 1 9 3 13 1-4 0-9 4-10v35c0 2 1 4 3 4-1-10-2-20 1-30 1-3-2-7 2-9 1 1 1 3 3 3l2-3c2 1 2 3 2 5l3-3c2 10-1 21 1 31l3 6c1-9 0-18-1-27 0-2 0-4 2-5 1 4 0 8 2 12v-13l-2-1 2-4 8-1c-2-1-2-3-3-5l-2 3c-3-3-5-7-10-6l4 3c-1 1-1 4-3 3l-9-1-2-5-1 4c-4 0-5-3-6-5m-12 3c-3 6 1 13 2 19 2-6 1-13-1-20l-1 1m-14 8c0 2 2 2 3 2v-6l-3 4m58-1c2 3 7 4 10 2-3-3-7-3-10-2m-51 1c1 2 1 5 3 7 1-2 0-6-3-7m69 3 4 2-1-4-3 2m481 94-13 25c-5 8-11 14-17 21-2 2-4 4-4 7 25-16 46-41 55-69 1-4 6-6 3-10l-16 23c-2 3-3 7-7 7 10-19 24-35 35-54a429 429 0 0 1-36 50m-521-94v11l2-1-1-10h-1m455 131 7-6 11-15c4-7 9-13 12-21l6-8 13-17c7-12 15-24 20-37 4-8 8-15 9-23-24 44-54 84-78 127m223-127c-7 10-14 19-19 30l5-7c3-2 4-6 6-9l8-14m19 15h-3l-13 24-3 6c13-13 22-28 29-44l-10 14m25-7c-6 9-14 17-19 28 4-2 6-6 8-9l15-25c-2 1-3 4-4 6m-743-2-1 11c3-3 2-7 2-11h-1m496 41 11-20c4-7 8-13 10-21-7 14-16 27-21 41m106-38c-5 9-9 20-15 29l-1-3c-2 0-2 2-3 3l-16 27 3-2-2 2 1 3c2-2 0-6 4-7l2 3 13-23c4-8 7-17 13-23 4-3 5-8 4-13l-3 4m-90 19c-9 18-20 34-30 50-4 8-12 13-15 21l-5 8c-6 7-10 15-17 21l1-5-6 7c-2 4-5 6-8 9-1 2 0 5-2 7-12 11-22 23-31 36 4-2 5-6 9-8l6-6c4-6 9-10 14-15l12-14c10-14 23-26 32-41 1-3 5-3 6-7l19-29 5-5 12-27c1-4 4-8 4-13l-6 11m238-1c2-2 4-4 4-7-2 2-4 4-4 7m-725 4h2l-2-7v7m524 18-5 9-14 22c-3 5-6 12-11 16l4-9c-7 6-10 15-16 22-4 4-5 11-9 15-7 10-12 21-21 29-3 3-7 4-9 7l-11 13 15-8 21-11 3-4 13-14c5-6 10-13 12-20-3 0-4 3-6 5l-16 22-5 3 14-19c7-9 12-19 18-28l7-9 17-40c3-7 8-13 10-20l-11 19m132 8c-4 4-6 10-9 14s-5 10-10 13c0-5 5-9 6-14-5 3-7 9-10 13-3 3-6 5-7 8l7 2 5-6c11-15 24-29 32-46 1-3 3-6 3-10-7 8-11 18-17 26m-191-16c-1 9-8 16-10 25 2-3 6-5 7-9 3-9 8-16 10-25l-7 9m213 24c-4 6-10 12-12 19 12-11 20-25 30-37 2-3 3-6 2-10-8 9-14 18-20 28m42-13-7 8-8 5a207 207 0 0 0-20 22c-2 4-7 6-9 10l-4 8 22-23c3-3 7-5 8-9l9-9c3-3 6-7 11-8 4-6 9-11 12-17-6 2-9 9-14 13m-495-11c-1 1 0 2 1 2l-1-2m-568 3c1 1 1 1 0 0m1076 9-24 27c-3 2-2 5-4 7-16 17-29 35-46 50l-14 13-27 24-15 12c-7 7-12 15-20 21l-3 6 13-12 31-26c11-12 23-23 36-33l13-14c13-14 28-26 40-41 2-2-1-5 1-7 8-12 19-22 26-35l-7 8m-66 10-17 21c-2 4-5 6-6 11 4-2 6-7 9-11l16-21 5-8-7 8m-663 1c9 1 18 4 26 7 7 4 15 5 23 8l12 8 2 3 9 2-5-11-5-8-24-6c-10-2-19-4-29-4l-9 1m-305 8c2-1 4-3 4-5-3 1-4 3-4 5m1026 1 4-6c-2 1-4 3-4 6m-108 10c4-4 8-9 10-14-3 4-8 8-10 14m-911-14c1 5-4 8-6 12l-1 9 6-4v-6c5-3 11-1 15 2 1 2 0 4-2 5-2-3-5-6-9-4 1 4 5 6 6 9-4 0-9-3-12 1 4 3 12 1 13 7l-9-1c1 4 6 3 6 7-4 0-8-1-12 1-1 4 6 5 6 10-2 0-6-2-7 1l8 2c2 1 0 3 0 5-2-1-5-2-8-1 1 2 4 5 4 8h-4l-3 6c1 9-2 18-3 27 1 2-1 3-2 4l3 13 5-9c5-3 11-8 11-14 1-4-3-6-5-9 2-3 5-4 8-6 2-1 2-4 3-7l6-8c1-6-2-11-3-16-1-2 0-3 1-5l2 1 5-5-1-3c1-5 2-10 0-14-2-7-6-14-13-17l-1 3c-2-2-4-4-7-4m724 17-18 22c-5 11-17 18-21 30 8-4 12-13 17-19 13-13 25-27 32-44-5 2-6 7-10 11m-206-10c-1 13 1 26 3 39 1-10 2-21 0-31-1-3-1-6-3-8m431 13c-3 3-6 5-7 9-1 2 0 4 1 6l7-8c2-3 7-5 8-9l-1-8-8 10m-424-9 3 15c1-5 2-12-3-15m207 12-19 23c-11 14-25 26-36 40-4 6-11 11-11 18 3-1 4-5 6-8 12-14 26-27 37-42 4-4 5-9 10-12 3-2 4-5 6-8 2-2 5-4 6-7 2-5 9-6 10-12-4 2-6 5-9 8m172-7c-4 5-6 13-12 17h-2l-18 20c4-1 6-4 10-6l10-8 8-10c3-3 4-8 4-13m-947 2 1 5c1 1 2-1 4-2l-5-3m1062 11c4-2 6-7 8-10-3 2-6 6-8 10m-686-8-2 4 2 5 1-7-1-2m-16 2 1 4 2-4h-3m6 3 2 3 3-7c-3-1-4 2-5 4m17 6 2-10c-6-1-5 8-2 10m641-3-18 18-7 8c-2 1-3 4-4 6-4 4-8 7-10 12l13-11 17-18-1-3 17-19c-4 1-5 4-7 7m-635-7-1 11 5 2 3-12-7-1m10 3-2 11 6 2v-8c-1-2 1-3 1-5h-5m175-1c-1 9-2 21 5 28 0-9 0-19-5-28m350 5c2 0 4-3 5-4-3 0-4 2-5 4m18 16-23 24-8 5c-5 8-13 14-21 19l-6 7c-13 12-27 24-42 33-4 3-9 4-11 9l-4 1-12 15c14-7 28-15 38-27l6-4c3-4 8-6 12-10l52-50c13-11 25-23 35-37-7 3-11 10-16 15m119-15c-1 0-2 3 0 3 1 0 2-3 0-3m-57 8-5 7c4-1 6-5 9-8l-4 1m-28 4c-1 3 3 0 0 0m9 6c-3 4-4 9-4 14l13-19c-3 2-5 6-9 5m-415-5-4 18 1 2 1-3c1 2 3 4 2 6l-2 28c-1 5-3 9-3 14l2 9c-1 6-1 13-6 19-4 5-5 11-8 17l-6 15c-5 10-8 21-15 30-4 6-11 11-16 17l-22 20c-3 1-4 5-5 7-6 10-14 16-20 25l6-5c1 4-3 5-4 8 10-4 19-10 27-17 3-3 6-7 7-11l-2-7c2 0 4 0 5 3l1 3 4-5 9-14-2-3 7-6c4-4 4-9 8-13l5-8c2-3 2-7 3-10 2-3 2-7 5-9 1 9-2 18-7 26-6 8-12 16-16 26l-5 8 9-8 7-7c-2 8-9 14-15 19-2 2-4 5-7 5-4 4-8 8-8 13 14-6 26-15 32-29l-2-5 4 1c3-3 0-8 4-10l2 4c4-3 7-7 9-11 2-3 4-6 4-10l-2-7c3-2 3-4 2-7-5 4-5 12-10 16 2-12 10-23 14-34 3-8 4-16 4-24 3 1 4 4 4 7 2-1 2-5 3-7-2-1-4-2-3-4 2-3 7-5 6-9-4 3-5 10-12 9l11-15c2-3 2-7 3-10h1c3-5 4-11 2-17-2 2-2 5-3 8l-4 6c-2 3-3 8-7 9 1-6 5-11 7-17l5-15c1-5-3-10-1-15l3 2-1-9-2 2-1-6c-4-4-6-10-8-15m511 6h3v-3l-3 3m-1078-2v6l4-2-4-4m741 37c-4 4-9 8-11 14l6-4 16-18c5-4 10-8 13-14 1-5 6-8 6-13l-30 35m291-29-2 3c2 1 4-2 2-3m-119 3c-7 6-16 11-22 18 5-1 8-5 12-7 5-4 11-7 13-13l-3 2m-362 16c3-5 5-10 6-16-2 5-6 10-6 16m521-10 3 1 3-7c-3 1-5 3-6 6m-1071-4c1 1 1 1 0 0m662 8c-3 2-7 4-9 7 4-1 7-4 10-6 4-3 9-4 12-8-5 1-8 5-13 7m-101-6-11 21-3-1c-2 5-2 13-9 14 0 6-1 11-3 17l1 1c0-2 2-2 4-3 2 10-8 17-13 24 11-4 11-17 19-24l-1 6c-3 5-5 12-10 16-4 6-11 11-17 16 0 8-3 16-7 23-7 7-12 14-20 20l-8 4c-8 8-16 17-26 23l-5 1c-1 4-4 7-7 10v4c-3 0-3-3-3-5l-9 3c-5 3-9 8-13 12s-8 7-9 13c2 1 4 0 4 2-2 2-5 0-8 2-6 3-11 9-18 9-4 0-6 3-9 4-5 3-10 5-13 9-4 3-10 4-11 10 8-3 15-9 23-14l5-1-13 11-11 9c-2-2-5 1-7 2-9 8-20 14-27 24l3 2c-3 1-8 1-7-3 3-8 11-12 17-16 3-3 8-5 11-9 2-1 2-3 2-5l-7 2c0-3 5-4 6-6-3-1-6 1-9 1s-6-2-8-3l-14 9c-9 6-18 11-24 19 2 0 3-3 6-3 2 0 2 2 2 3l19-13c3-3 7-7 12-7-4 7-12 10-18 16-4 3-9 5-13 9-3 3-6 5-8 9 5 0 8-4 12-6l1 2c-1 3-5 4-7 7 5 3 11 2 17 3 9 2 18 4 27 3l-1-3 9 3 8-1c4 1 8-1 12-2 6-1 12-3 17-6l4-4h-7c0-6 5-11 10-15 9-9 20-16 30-24 3-1 2-4 4-6 5-2 10-5 13-9-7 2-12 7-19 11-13 10-28 18-39 32l1 5c-5-1-5-7-2-10 5-6 13-10 18-16 3-3 9-3 9-8l-5 2c-3-1-3-5-2-7 3-7 10-11 14-17l8-10 15-14c7-6 14-13 23-16 4-1 4-5 7-7 2 5-3 8-5 12-3 5-7 8-11 12l-11 9c-6 5-13 12-20 16-2 2-5 1-7 3l-7 10-1 4c4-2 5-9 11-8l-5 9c6-1 10-6 15-9l4-4c10-5 20-10 27-18 6-5 10-12 10-20l2 2 4-13-2-4 4-1c3-3 7-4 10-8l14-16 5-7c-7 6-13 14-21 19-2 3-4 7-8 8 1-6 6-10 11-14 9-8 19-16 24-27 2-3 1-7 3-10 2 0 3 2 4 4-1 5-2 11-5 16l-8 11v1c5-6 11-11 14-19 1-2 3-3 5-2 4-6 8-14 9-21l-6 4c-1 2-5 2-3-1l6-6c10-13 14-29 14-45 3 4 3 9 3 14 0 7-2 14-6 20-2 4-6 8-4 13l6-8c5-7 9-14 11-22v-7c-2 2-3 7-7 8 3-8 6-15 7-23l2-23c1-4 2-9 0-13m114 7-2 3c3-1 7-4 9-7l-7 4m289 16 12-15 4-5c-7 5-13 12-16 20m-279-9c3 0 5-2 6-4-2 0-4 2-6 4m183 1 5-5-5 5m26 3c4 0 8-4 9-7-3 2-7 3-9 7m29 2-5 4-12 10c-5 3-8 8-14 10-3 3-5 7-9 9-2 2-5 3-6 6-2 4-6 6-9 8l1 5 25-22 10-8 14-15c5-4 10-8 13-14l-8 7m-259-3 2-1c0-2-3 0-2 1m26 0c-7 7-16 12-22 20 10-4 20-12 25-22l-3 2m238 18 5-5c1-3 4-4 6-6l5-7c-6 5-12 11-16 18m-517-13c2-1 3-2 3-4l-3 4m247 0 3-2 1-2c-2 1-4 2-4 4m362 1c-3 2-6 4-7 7 6-3 12-7 17-12l-10 5m-265 0c-5 4-10 8-13 14l-1 4c8-7 15-15 21-23l-7 5m120 5c-3 3-6 6-11 7-6 2-9 8-15 10l-2-1 8-5c2-1 4-1 5-3 4-4 9-6 12-10l-2-2c-4 2-6 6-9 7v-3c-3 2-8 2-9 6s-3 6-5 9l1 3c-6 2-11 8-11 15 8-4 14-11 21-16l16-13c4-3 8-5 11-9l-10 5m98 15 4-2c7-5 13-11 18-18l-22 20m-47-15c-13 10-25 21-36 33-5 4-10 10-16 12-5 1-8 8-14 8l1-2c-9 5-15 13-24 19l-11 7-21 13c-3 1-6 1-8 3l-14 8h-5l-13 8c3 2 5 5 6 8 4 0 7-4 11-5 3-5 9-7 15-9l36-18c8-4 15-11 23-15l9-8-6 2c2-5 7-6 10-9 11-6 21-13 30-22l26-30 1-3m79 3c-5 6-9 12-15 15l-9 8-20 16c-3 1-5 2-7 5l-5 4-27 20c0 2 1 5 4 5 4 0 6-3 9-5 5-4 11-8 15-13h-2c9-9 21-16 30-26 7-6 14-14 22-19 4-4 9-6 12-11-2 1-5 2-7 1m-13 41-17 14c-4 5-10 7-15 12l-28 22-5 6c18-10 31-25 47-37l50-44c4-5 10-8 13-14-15 13-29 28-45 41m-376-36c-3 5-10 6-13 12 8-3 14-10 20-16l-7 4m142 3-2-2-7 5c-4 3-8 7-10 12 4-1 7-4 11-3l8-5 5-8c2-2 5-4 5-7l-10 8m-76 1c-6 5-12 10-16 17 7-3 12-9 17-13 4-3 8-6 9-11l-10 7m-273 1c2-1 5-3 6-6-2 2-5 3-6 6m430 1c-1 2-6 5-3 8 4-5 9-10 10-16-4 1-5 5-7 8m116 9 4-2c3-4 9-6 11-11-6 3-11 8-15 13m-331-9c-3 4-8 5-10 9l7-4 9-8-6 3m16 3c4-1 8-2 9-6-4 0-6 4-9 6m227-3-6 4c-7 7-16 11-21 19l32-26c-2 0-3 2-5 3m-450 5c2-1 4-2 4-4l-4 4m83 2c-1 17-13 31-24 44-2 2 0 5-2 7-4 5-9 10-15 12-3 1-6 2-7 4-4 6-9 10-9 17 13-9 24-19 32-33l3-1c-2 7-6 13-11 19-8 8-18 14-27 20l-2 7h3l19-15c13-8 26-19 29-35l7-2v-5c-2 1-5 4-8 4 0-3 3-5 6-7 3-14 12-25 16-39l-1-3-9 6m464 33c-5 5-9 11-15 14-7 6-13 13-21 17l-1 6 9-6 13-12c15-11 28-25 43-36 4-1 2-6 5-8 4-5 9-9 11-15-15 13-28 28-44 40m-572-37-7 11c5-3 10-5 12-11h-5m258 6c3-1 6-3 7-6-3 1-5 3-7 6m-217-2c-6 4-13 8-21 8-7 9-15 16-24 22l-2 7c15-4 26-14 37-25l2 2 2-5c6-2 9-6 12-11-2 0-4 0-6 2m231 0c-4 5-12 6-14 12 3 0 6 1 8-1l11-13-5 2m53 12c-2 2-5 4-6 7 9-5 19-8 25-17v-3c-3 1-3 6-6 8-1-3 0-6 1-8-6 3-9 9-14 13m-317-11c-9 10-17 22-28 30l-26 14c-4 3-7 7-12 9l-6 5-16 1-9 3c-11 5-22 10-30 18 10-4 21-4 30-10 4-2 5-5 8-7 1 4-3 7-5 10 8-4 17-8 26-9h7l-5-3c4-7 14-6 17-13l4 1c7-4 16-6 23-11-1-2-2-3 0-4 2-2 2-6 5-8 8-9 20-15 26-25l-2-2c-2 2-5 2-7 1m17 2c2 1 4-1 5-3l-5 3m359-1c2 1 4 0 5-2l-5 2m104-2c-2 3 3 0 0 0m-412 20c0 5-3 9-5 14l7-8c2 0 3 2 4 3 2-3 4-7 3-10 2-4 6-7 4-12l3-3-2-4-14 20m18-9c-3 3-3 6-4 10l-6 11-5 9-14 13c11-4 20-14 26-24 6-8 11-17 13-27l-4-2c-3 3-3 7-6 10m184 11c4-1 7-4 10-7 4-4 11-7 13-13-8 6-17 12-23 20m-136-18-8 16 9-11v-4l-1-1m57 3c-6 4-11 9-15 15l8-8 7-7m8 2c-3 3-8 5-10 10 5-4 10-7 14-12l-4 2m-88-2-12 24c4-2 8-6 7-11 2-4 7-8 5-13m111 17c8-2 12-8 18-14l1-2c-6 5-14 9-19 16m71-9c-2 1-2 4-2 6 3-1 4-3 6-6-1-3 2-5 4-7l-8 7m34 1 9-6c-4 1-7 2-9 6m-352 0c0 2 0 4-2 4-9 2-18 5-24 11 7-2 14-6 22-6 7-2 12-8 15-14l-11 5m245 0c-5 3-8 7-13 9-2 2-5 4-6 8 3-1 4-3 6-5 4-2 9-4 12-8 1-3 5-5 7-8-3 0-4 3-6 4m-20 4c3-1 5-3 6-6-4 0-5 4-6 6m160 1c-2 2-6 3-8 6 8-2 17-6 22-14l-14 8m-128 7c6-4 12-7 17-13-7 2-13 7-17 13m155-9-2-3c-3 1-6 3-7 6l2-1c5 4 11-1 13-5l-6 3m48 18c-2 1-2 4-2 6-10 7-20 13-28 22 10-5 18-12 27-17 9-6 18-13 25-21 0-5 4-7 6-11l-28 21m-181-9c-3 2-5 5-6 9 5-3 8-8 12-12 3-2 6-4 8-8-6 3-10 7-14 11m275-4c3-1 6-3 7-6l-7 6m11 4-21 11c-2 2-5 3-6 6l7 4 33-26 4-5c-5 3-12 5-17 10m-289-4c2-1 5-2 5-5l-5 5m229 13c-9 6-19 11-28 18l-9 6-13 8c-3 2-6 4-9 4l-4 3c-7 2-13 7-20 8l-14 8-11 7-2 3 1 5c-2 8-9 15-11 23 9-5 19-9 28-15l-3-2 11-11c15-10 33-15 48-25l16-11 3-4-51 29c-5 3-10 7-16 6l3-3c9-3 17-8 24-13l-1-3c27-15 52-33 76-53l6-6-24 18m-192-9-4 7c5-1 9-5 14-8l2-3c-3 0-4 4-7 4-1-4 4-5 5-8-4 1-7 5-10 8m175 1 4-5c-2 1-4 3-4 5m-456 1c-6 4-12 7-17 12l2 2 10-5 12-13c-3 0-5 3-7 4m-417 2c2-1 2-4 3-5-3 0-5 3-3 5m347 8c-2 0-3 3-5 3l-3-1-3 4c-4 1-6 4-8 7l4 2c7-5 13-11 21-13l2-2c1-2 2 0 3 1 7-4 13-8 20-10l3-4c-12 2-22 9-34 13m121-11-14 18c7-4 14-11 18-19l-4 1m-9 25 16-13c3-3 5-7 5-11-6 9-14 16-21 24m191-18c2 0 3-2 3-4-2 1-3 2-3 4m-661 8c3-2 3-6 6-7 2-1 4-2 4-4h-3c-3 3-8 6-7 11m985 10c-5 7-13 11-17 18 9-2 17-8 23-15l7-6 10-9c2-3 7-5 7-9-10 7-19 15-30 21m-460-11 1 3c-4 6-3 12-7 18-2 3-5 7-5 11 6-6 12-11 16-18 3-5 5-12 5-18-4 0-7 2-10 4m156-4-19 16c-2 1-4 3-4 5 5-2 8-8 12-11s8-5 11-9v-1m-308 15-1 4c8-2 14-8 22-10 4-2 8-3 11-7l-4-1c-8 7-19 9-28 14m-338-12v4h-3l-2 7 4-6c2-2 4-1 5-3l-4-2m604 5 4-4c-2 0-4 2-4 4m-234 0c-4 1-8 1-11 3l-15 8c-4 1-6 3-9 5l-25 19 6 5c7-4 12-10 19-15l2 1 41-25 5-1 1-3c-5 1-9 4-14 3m156-2c-2 8-6 15-11 22h-3c-4 7-10 14-15 19-2 2-5 5-4 7 7 1 10-8 18-6 6-14 15-28 19-43l-4 1m-49 6c-1 5-5 10-8 15-8 8-17 16-27 22l-14 10c6 1 12-2 18-5 11-5 19-14 26-23l1-4 4-1 1 4c5-8 8-16 11-25l-12 7m-26 2c-3 2-7 4-10 8 5 0 9-3 12-6 3-2 5-4 6-7l-8 5m162 5c3-3 7-6 9-10-4 2-7 6-9 10m161-10c-1 2-3 2-5 3l-2-1-18 11c-6 3-9 9-14 14l-18 15c-2 3-6 4-7 7 8-3 14-9 22-13 4-1 6-5 9-8 11-10 24-17 35-27l-2-1m17 6-4 7c6-3 11-7 15-12-3 2-6 7-11 5m99 0c-1 0-2 2 0 3 2 0 3-4 0-3m-473 2c-6 4-11 10-15 16 3 0 4-3 6-4h3c5-3 12-5 15-10h-5c-1 0-2-3-4-2m-87 4c1 1 3-2 1-2-2-1-3 2-1 2m247 12 7-3 5-10c-5 4-9 8-12 13m285 10c-5 4-9 8-15 11a198 198 0 0 1-48 30l-4 2c-7 3-14 8-22 10-12 8-26 12-38 21-3 4-7 8-9 13 23-7 46-13 67-24 4-3 10-3 13-7 9-8 20-14 27-23l-16 11c-3 3-6 6-10 7l2-4 19-15c15-11 29-24 43-37 5-6 11-10 15-17l-24 22m88-9-4 4c11-4 21-11 30-17-10 2-18 7-26 13m-523-10-18 9-2 5c-7 5-15 11-20 18l3 1-7 6c-7 5-15 10-17 18 4-2 8-4 10-7 11-12 24-21 40-27 4-6 12-9 15-16-2 0-6 2-7-1 4-3 11-3 14-8l-6-1-5 3m475 16c4-4 6-9 7-14l-7 14m-569 18v3l-5 3c6 1 11-5 17-7 6-1 11-6 17-10 6-5 14-9 17-16l-3-4-43 31m420-22 2 4c4-3 6-7 8-11l-10 7m247 4 6-6c-3 1-6 3-6 6m-153 1-11 10 9-7 10-8-8 5m38-3c-26 21-51 44-78 64l-19 9c-7 3-14 7-22 9-3 0-5 2-8 3l-19 6-9 3c-5 2-11 3-14 7-3 2-5 6-9 6-1 1-3 1-2 3l5 9 17-4c5-4 12-7 16-13 4 0 7-2 9-4l16-7c12-6 24-10 36-14 2 0 1-3 3-4l9-8 5-5 47-39 19-17c2-2 3-4 3-7-2 0-3 2-5 3m-340 0c-1 1-2 2-1 3 2 1 3-3 1-3m286 6c-16 9-33 16-48 27 8-3 16-8 25-10v1c-6 4-13 7-20 9l-22 13-23 13c-3 3-4 8-5 12 14-5 26-13 40-18 3 0 3-4 5-5l29-17 1-5 15-12c5-5 11-8 15-14l-12 6m-1021-3c3 2 8 4 8 8l-4-1-1 2c-3 2-8 1-11 4-4 5-4 12-3 18 4 5 4 12 7 18 1 2 4 4 3 1l-6-24c3 0 4-3 1-3-2-2-2-6 1-7 5-2 10-2 15 0v1c-4 2-8 1-11 2-2 0-2 3-3 4 3 2 7 0 10 2 2 1 2 3 2 5-4-3-9-3-12 1l1 7 1-4c4-2 7-2 11-1l1 3h-7c2 4 11 0 12 6-4 0-8-1-11 1-1 2 4 3 2 5-3 1-5-2-6-4l-1-7-1 2 5 16c2-2 4-4 7-4 4-1 9-1 11 3-4 0-8-1-11 1 2 1 5 1 6 3l-9 1 2 4c3 0 9-1 10 4-5 0-10-3-13 1 4 1 11 1 12 7-4 0-7-4-10-1 2 6 13 2 14 9-4 0-9-3-12 1l2 3h7c2 1 2 3 2 4-3 0-6-2-8 0 2 3 7 2 9 5v3c-3-1-6-3-9-1l10 4 1 3c-3 0-6-2-9-1l-2 4c2 1 4 1 5 4h-4v5c3-1 3-4 6-5s7 0 8 3c-2 1-6 1-7 3-1 3 4 3 6 4v5l7 9 1 6 6 2c4 3 5 7 7 11l8 4c-1-6-7-11-7-18s2-16-4-22l-4 5-4-2 4-8 3-3c2-8 0-17-4-25l-4 2v-6c-1-2-3-3-3-5 0-4 2-7 3-11l-2-8c-1-1-3-1-3-3-1-3 0-5 2-7-1-3-4-5-7-6-1-2-3-4-3-7 1-3 4 0 6 0 2-4-1-8-1-12-4-6-5-13-10-17-2-3-6-3-9-4-3-2-6-4-9-2m924 8c-5 7-13 11-19 18 9-5 16-12 24-18 3-2 4-5 6-8-4 3-8 4-11 8m-312-4c-1 1 0 4 1 2 1-1 1-3-1-2m520 3-32 19c-6 3-12 6-17 11 6-1 11-6 17-9 11-5 21-13 32-19 1-1 4-2 4-4l-4 2m9 14 5-4 7-4 6-7c-7 4-12 9-18 15m-539-11c-9 6-20 11-27 20l2 1-8 5-7 8c18-6 31-20 49-28-1-3-2-6-1-8-3 0-5 4-8 2m14 13-3-2v4l8-1-4 4-11 6c-3 2-7 3-9 6 7-1 13-6 19-10 3-1 6 0 9-2 3-1 5-5 8-7v2l-2 4c8-5 15-11 19-19-10 7-22 12-34 15m52 7c-2 1-2 3-3 5 7-1 13-7 19-11 3-5 9-8 12-14-11 4-19 13-28 20m258-13c-2 1-4 2-5 5l-6 9c6-3 11-8 14-14 2-2 5-4 5-7l-8 7m69 18c-3 1-6 3-8 6 6-1 11-5 16-8 7-3 13-8 20-12 4-4 9-7 11-11-13 8-25 18-39 25m-597-22-10 8-1 3c5-5 11-7 15-12l-4 1m-354 3c3 2 7 4 7 9-5-5-12-6-18-6v11l-1 10 4-4c4 0 9 0 12 3 2 1 7 0 7 3l-4 1v3c-3-1-7 0-9 2l2 4h-6v4c2-1 5-3 8-2l2 8-7-2c-1 5 7 4 8 8-3 0-6 0-7 3-3 2-3 5-1 8 2 1 5 0 6 2l-3 3c4 10 5 20 4 31 5 6 4 15 6 23l7-6c2-2 2-5 3-8 1-4 2-9 1-13-2-4-8-7-7-12 2-4 5-7 6-11 3-8 2-18-3-25-2-2-6-2-5-5s5-2 6-5c3-3 4-8 4-12 0-6-4-10-5-15-5-5-11-9-17-10m889 5c0 3-3 4-4 6l-4 9c-2 2-4 4-3 7 6-4 8-10 11-15 2-4 4-8 4-13-3 1-3 4-4 6m-326 0c-6 2-10 8-16 10-5 4-9 8-15 11-3 2-7 4-8 8 7 0 13-3 18-7l26-16c-2-2-2-8-5-6m447 8c-2 2-5 4-7 8-1 3-5 5-7 8 9-7 19-14 26-24l-12 8m-674-7c-2 3-4 6-8 6v-3c-6 2-11 6-16 10-11 10-21 21-30 34-3 5-6 10-7 16 3-1 5-4 7-6l8-10 9-11c8-11 19-20 32-25l9-7-4-4m132 2c-1 2 3 3 4 1-1-2-3-2-4-1m429-1-2 7c2-1 4-4 2-7m-281 4-1 5c2-1 5-2 6-4l-5-1m56 8c2-2 4-3 4-6-3 0-4 3-4 6m400 18c-3 1-2 7-7 6l-1-3c-9 7-18 12-28 16-7 4-15 7-22 12-2 2-5 3-9 4l-4 9c-1 1-1 4-3 5l-13 13-5 5c18-6 34-16 51-25 6-4 12-6 18-12 4-3 9-6 12-11-5 1-8 4-12 6-6 2-10 7-16 9-10 4-19 11-30 12 5-5 12-5 18-9l13-7 46-29 2-5c5-6 12-9 17-16l-27 20m-24-16c-13 7-28 11-41 18l-4 1c-3 3-6 5-7 8 2 2 5 4 8 2l15-7c7-3 13-9 20-12l8-7c3-1 7-3 9-6-3 0-5 2-8 3m-160 9c3-3 6-7 6-11-4 2-7 6-6 11m150 8c-5 3-11 4-15 8l-19 11c2 4 4 7 4 11 6-2 10-7 15-9 2-1 1-4 3-5 14-7 26-17 39-25 0-4 3-6 4-10-9 8-20 14-31 19m46-18-31 22c4-1 8-4 11-7 8-6 17-9 24-16l-4 1m-764 6-8 7c-3 2-6 4-7 8l23-17 3-4c-4 1-8 3-11 6m264 2c-9 8-20 16-27 27l17-13c8-6 15-13 22-21-5 1-8 5-12 7m-264 5-11 10c-6 4-13 8-16 14l-4 4-5 10c-1 1-1 2-3 2l-2-2c0 2 1 5-2 7l-2-4v11l5-6c0 6-5 12-5 18l12-19c-2-2-4-4-3-7 3-5 9-9 13-12 3-1 5-4 7-6l29-18c0-4 3-7 4-10-7-1-11 5-17 8m229-4c-3 1-7 1-10 3l-8 8c0 2-2 2-3 2l1-6c-9 1-16 9-23 13-5-1-10 2-13 5l-2 5-3-4c-10 7-23 13-30 24 4 0 6-2 9-3s4-3 6-5l21-12h7c-9 4-16 9-24 14-3 1-5 4-6 6 6 2 12 0 18-2 6-8 14-15 21-21l4-1c-3 6-11 9-14 16l18-11h5l14-8 4-7c4-8 11-12 15-19l-7 3m-305 1c-4 3-10 5-13 10-4 7-9 14-9 23 0 5 6 8 4 14l-4-5-9-3c-6-3-13-3-20-2-3 0-7 1-9 3 5 2 10 1 14 3 5 2 9 5 12 9 6 6 12 12 16 19 2 2 1 4 1 5l-4-1c-2-2 0-4-1-6-7-8-13-16-23-21-6-4-14-5-21-4 0 2 3 2 5 4 4 2 6 6 9 9s7 6 12 8a118 118 0 0 1 28 40l7-9c10-13 24-23 31-38h-2c-1-6 1-12 1-18-5-2-11-5-15-10-5-5-7-12-6-18 0-4 2-7 3-10-4 2-8 5-10 9-2 2-3 4-6 5l1-3c3-6 7-12 13-16-2 0-3 2-5 3m471-3c1 1 1 1 0 0m-372 9 4-3c-2 0-4 1-4 3m639-2-5 4-15 12-7 6c6-2 13-3 19-6 0-3 3-4 5-5l-2-1 7-10h-2m-104 9c4-1 6-5 6-8l-6 8m-691-3 8-2-2-2-6 4m13 2 3 3c-5 0-10 1-13 5h13c2 0 2 2 2 4h-8c1 2 3 4 5 3l7-3 2 4-5 2c4 3 8 2 13 3l-1-8-2-1c0-5-2-11-5-15l-4-4c-4 1-6 4-7 7m885 6c5-3 10-6 13-12-5 3-11 6-13 12m-1127-1-2-8c-2 2-1 6 2 8m755 3c2-1 4-3 4-5-2 1-4 3-4 5m332-3c1 0 3-1 2-2s-4 1-2 2m-175 12-6 8c6-5 16-9 17-19l-11 11m107 5c-5 6-14 8-19 15l14-7 8-5c5-4 12-7 14-13l-17 10m-39 12c-4 1-6 5-10 6-13 6-27 7-41 12-6 2-12 3-17 7-4-3-9 0-13 2 2 4 7 6 10 10l8 17c13-3 24-9 37-11l16-1c5 0 8-6 14-5-1 4-6 4-8 7l4-1 25-17c6-5 14-9 19-16-5 1-9 4-13 7l-16 9-10 4c-3 1-5 4-8 4h-7c-17 6-34 13-52 13l-4-2 2-3c4 1 9 2 14 1 12-1 24-7 36-10 3 0 5-3 8-4l19-8c5-2 8-6 13-7 6-2 10-7 15-10 7-4 14-9 18-17l-20 13-21 12-14 11-5 2c3-6 10-9 14-14l-15 6c-4 1-7 4-12 4-4 3-10 5-15 5l1 1-30 9-2 1h-4c3-3 7-3 11-4 9-2 17-7 27-8l11-5c10-2 18-7 27-12l-1-3c9-8 20-16 28-25-13 5-25 15-39 20M158 781c-3 2-7-1-10 2l-3 3c3 0 7-1 9 2 1 2-2 3-3 4l3 2c0 2-4 2-3 5 0 2 2 4 4 6 7 5 15 11 21 18l9 7c18 15 31 36 50 51 2 1 4-1 5 1l8 10h5c0 3-4 3-6 5l17-2c1-5 4-12 11-11-2 4-5 7-6 12l3 2c2-1 3-4 4-6l-2-4c2 0 4 2 5 3 2-2 5-3 5-6 0-2-2-3-3-4-5-5-10-9-16-12-2-1-4 1-5 1-2-1-2-3-1-5l-2-1c-2-5-6-9-11-11 0 2 1 6-2 7v-9c-1 2-1 5-3 5-3-3 0-7-1-11-1-7-6-15-13-17-1 2-2 4-5 5-1 1-3 1-2-1 2-5 1-10-1-15l1-1c-2-5-5-9-9-12-3-4-8-6-13-6l-3 10c0 3-6 3-6 0-1-6 4-10 4-16-8-10-23-16-35-11m678 3c3 0 5-3 7-5-3 1-6 2-7 5m-620-5c-1 8-1 17 3 24h1l1-10c-2-2-3-6-1-9l-4-5m754 18c4-4 8-8 10-13-4 3-8 8-10 13m-425-1c4-1 5-5 6-8-3 2-5 4-6 8m569 1v4c6-1 10-6 12-11l-12 7m39 10c-4 1-8 4-11 7 10-2 19-6 29-7 5-6 14-7 20-12-13 3-24 10-38 12m-578 16 5 4 5-7c5-4 11-6 16-11 3-2 6-6 5-10-11 7-23 13-31 24m38-18c-4 3-8 5-11 9l-12 8 3 6c7-3 13-8 20-12-1-1-4-1-4-3 1-4 5-5 8-7 0-3-3-2-4-1m349-1c-1 0-2 1-2 3 2 1 4-2 2-3m322 6-22 10c-6 4-12 6-17 11 5-1 10-4 14-6l32-17 4-4c-4 2-8 3-11 6m-1063-5c-1 2 1 4 2 3s-1-3-2-3m762 5 6-1-2-4c-3 0-4 3-4 5m-429 17-6 9 17-15 7-4c-1-3 0-5 1-7-7 5-12 13-19 17m23-17-2 6 3-3c1-1 0-2-1-3m708 15 13-6c3-1 7-3 9-6-8 2-17 5-22 12m-857-4 16 3 1-3 9 4c14 12 25 27 31 44 1-2 2-5 1-8-1-6-6-11-8-17-5-8-10-17-17-23l-8-1-17-1c-3 0-6 0-8 2m187-1c-4 4-10 5-12 10 5 3 11 2 17 2 1-4 4-6 8-8l-3-5c-3 0-7-1-10 1m268 8c-4 2-9-2-13 0l-8 6c-2 5-8 6-10 11l4 7-1 12c1 7 0 15 6 20l7-5c3-1 7-1 10-3 6-3 10-8 14-14 5-6 9-13 10-21s-5-15-6-23c-5 3-8 8-13 10m-362-1-1 14c0 1 0 4-3 4v-13c-6 5-12 10-16 16-6 7-11 14-11 23l-4 9v22c4 1 9 0 13-2l3-12c4-7 8-15 13-21l13-14v-4l-1-8-2-5c-1-6 2-11 2-16l-6 7m40 3c-3 4-8 6-10 11l7-3v-3c6 1 7-5 12-6l-1 3c3 0 6-2 7-4-3-1-5-3-5-6-5 1-7 5-10 8m698 3c7 0 12-3 16-8-6 2-12 3-16 8m-831-6 17 8c2 6 8 11 8 18l6-2c-3-9-9-16-15-23-6-1-11-3-16-1m21 0 6 9 10 23v6c-2-3-2-8-5-11l-6 8c-3 3-3 9-1 13 1 5 2 9 6 13 1 4 4 7 6 10 6 1 10 6 16 5 1-8-1-17 1-25-2-1-4-3-4-5h4c-1-7-5-12-8-18-2-6-7-9-9-15-6-4-9-10-16-13m831 5-7 5c-4 0-7 2-10 3-13 6-25 12-38 15l23-13 11-4-5-4c-14 6-27 12-41 16 2 6-2 11-4 16h8c-3 3-8 4-11 2-7 8-17 13-24 21l15-3c2 0 3-3 5-3 21-3 42-9 61-18l6-5c-4 0-7 3-11 3l7-5 20-10c9-4 19-9 27-17-5 1-9 5-14 5-16 6-32 15-49 21-9 4-17 8-26 9 4-4 9-4 14-6l50-26c3-1 6-2 8-5-5 1-9 3-15 3m-746 0c-2 4-2 9-2 13 3-5 8-9 10-14l-8 1m60 5 8-2-3-3-5 5m630-1c-4 1-6 4-9 5-3 2-7 4-9 7 4 1 7-2 10-3l15-7 4-5c-4 0-7 3-11 3m-655 4 6-5c-3 0-6 1-6 5m752-4-32 16-4 4c8-2 16-6 24-10 6-2 12-5 16-11l-4 1m-334 10c-8 13-21 23-26 38l17-23 8-11c1-3 5-6 5-10-2 1-3 4-4 6m191 1c3 0 10 1 10-4-4 0-7 1-10 4m-23 2c5 1 10-1 14-4-5 0-11 0-14 4m-889-3c0 5 3 10 5 14l3 4c1-7 0-15-8-18m877 9c-3 1-6 3-10 2 1 7-2 14-2 21-3 2-4 4-5 7l8 3c7 3 14 2 21 0 9-3 18-9 27-13v-4c5 1 10-3 15-5 4-2 8-6 7-11-4 1-8 4-11 6l-17 11-11 5c-4 3-8 6-13 7l2-5h-4c-1-4 4-5 6-6l2 5c5-2 9-5 14-9 6-4 14-7 19-13-16 5-31 15-48 15l3-2c-3-3-8-1-10-5 8-1 18 4 26 0 2-7 11-7 14-13-11-2-22 5-33 4m31 2-6 3c5-1 10-3 13-7l-7 4m-77 21 4 7c0-3-1-6-4-7m74 8c5-1 9-4 13-7-5 2-10 3-13 7m78-3c3 0 9 1 9-4-3 1-7 1-9 4m-143-1c0 2 2 2 4 2l-4-2m144 8 25-3-2-1c-8 1-16 0-23 4m-22-1c-3 1-6 0-8 3l13-3c-1-3-4-1-5 0m-939-1c-1 3-3 4-6 6 3 3 2 7 4 10 2-3 2-8 6-7 1 4-2 9 1 12l4-8 4-1-2 10 9 7-3-9c0-3 2-3 4-4l2 4c4-1 3-5 2-7-2-5-7-7-12-9-3-1-6-3-10-3l-3-1m818 0 2 4 17 2c4 0 8 2 12 0-10-3-20-4-31-6m98 6c-5 2-10 2-15 2-4 0-8 1-11-1-2-1-3 1-4 2 6 3 13 1 19 0 3 1 6-1 9-1l14-3 2-2c-5 1-9 3-14 3m288-2 1 2c10 4 17 13 25 20 1 1 0 4-2 3l-1 3c-1 1-2 0-3-1l-9-5c1 2 3 4 6 5l9 6c4 2 7 5 11 5 3 4 8 6 13 8 3 1 7 2 10 1-3-4-8-5-11-9l-20-18c-7-6-12-14-21-17-3-2-5-4-8-3m12 0 25 23 2-1c5 7 12 15 21 18 5 1 11 3 16 0-4-4-9-5-14-9l-16-14-9-6c3 4 6 9 11 12 2 1 3 4 3 6-10-6-16-17-26-23-4-3-8-6-13-6m-340 5c2 1 8 3 7-1-2-2-6-1-7 1m-887 3c2 0 4-3 2-5l-2 5m841-3c-1 2 1 3 2 2 2-2-1-3-2-2m-875 5v3h-3c-2-2 0-4 1-6h-3c-3 4-1 9-1 14v21l3 19c0 3 0 7 2 10 3-1 6-3 9-2 2 0 2 2 3 3-6 1-12 2-13 8 4-1 9-4 12 0l-6 1c-2 2-5 4-6 7 3-1 6-3 9-1l-5 4c-2 2 0 4 1 5-3 1-5 3-6 6l-2-1c-1 2 0 3-2 4l-8 11-5 6v8c7 0 16 1 22-3-2-1-7-2-5-5 4-3 9-1 14-2 9-6 15-16 14-27-4 2-7 3-11 3-1 0-3-2-2-3l12-9c1-5 4-10 4-15 1-4-1-9-4-11-3-1-6 1-8 1-1-1-2-3-1-4 3-4 8-5 10-9 2-6 0-12-3-18-2 1-6 3-8 1l3-8 5-1 3-8c-2-1-4-4-5-7-7 1-14 2-20 5m1040 0c4 1 9 0 13 2l3-5c-5 1-12-1-16 3m-171-2v2l4-1-4-1m62 1-1 4c6 0 11 0 16-2v-2c-5 0-10-2-15 0m-38 3c5 3 11 4 17 2-1 2 0 4-2 5-3 1-6 0-8-1l-13-3c-2 0-4-3-7-3l-9 3 7 4c9 3 19 6 30 5-1 2-2 4 1 5l1-5h6c3-1 5-4 6-7l-4-4c-5-1-10-1-14-4-4 0-8 1-11 3m-813-2-1 2-4-2c2 5 0 9-2 14l2 4c1-3 1-6 3-8h5c-1 4-3 8-1 12l10 4c-1-3-5-3-6-6l1-8h3l2 4c1 0 5-1 4 2v4l5-10 2 1c-1-3-4-5-6-6-5-3-11-6-17-7m911 1-24 2-14 2c-4 2-7-1-11 0l-11 1c-1 2-3 3-3 6 14 0 27-2 41-4 8-1 17-1 25-3 6-2 12-2 16-5-6-1-13 0-19 1m351 9 2 7c3-5 6-9 6-14-2 3-4 6-8 7m-125-2 13 2 16 4c2 0 2 1 3 3h-6v1l25 14c5 4 11 9 19 9l-10-9-7-6-10-7-10-6-13-6-15-2c-2 0-4 2-5 3m-1176-1 4 2c0-2-2-2-4-2m618 5c-4 6-7 13-8 21 3 2 6 5 11 5 2-2 0-6 1-9l5-19-9 2m-550 2-2 4c2 2 1 6 2 9l3 1 2-4h4v8l3 1c2-2 3-5 7-5 1 4 0 8 4 9l4-13c-7-7-18-8-27-10m767 1c-2 0-2 3-1 4l8-2c-2-2-5-3-7-2m41 11c3-1 7-6 10-2 8-1 17-2 24-5l-26 2 1-4c-4 2-7 5-9 9m-815 1c1-3 3-7 0-10-2 4-1 7 0 10m869-4-28 2v1c18 2 37 2 55-2 7-1 16-1 22-6l-49 5m-88-2c-2 0-5 0-8 2v9c5 1 10 0 14-2l6-2c3-3 7-3 10-6-3-2-6-2-9-2-1 1 1 5-2 4-1-2 0-6-3-6l-8 3m347-2c1 3 5 4 7 6l7 9c-1-4-3-8-3-13-4-2-7-3-11-2m13 4c3 6 7 11 12 16l16 12c5 3 11 4 16 4 8 0 16-1 22-5 2-1 2-3 2-5-2 0-4-1-5 1-4 4-10 3-15 2-8-2-16-5-24-10s-15-12-24-15m-372 1c1 3-1 7 2 9 0-3 1-7-2-9m50 4-1 1h7c-1-3-4-3-6-1m298-2c-1 3-4 5-6 7-5 10-1 24 9 31-2-6-6-11-7-17-1-2 0-4 1-5 2 8 5 17 11 23 8 9 21 11 32 9l-10-5c-9-6-14-15-19-25-3-6-6-13-11-18m-1081 3-1 5c2 0 4 0 5 2l1 6c2-1 6-4 8-1 2 1-1 2-1 3s1 3 3 3c3 0 7-2 11-1l1 4c2-4 5-8 5-13-8-6-18-5-27-8h-5m-33 2c1 3 5 4 8 5 4 2 8 5 13 6 1 0 3 0 3-2l-6-4c-2 0-5 1-7-1l-3-5-8 1m812 2c-4-1-9-2-12 2 9 1 18 2 27 1 2 0 4-2 5-3h-20m311-1c3 11 9 21 18 28l-5-12c-5-5-8-12-13-16m86 5h9c-3-2-6-2-9 0m-499-1 1 15 3 1 3-5c-1-4-2-10-7-11m473 0c2 6 8 9 15 8-4-5-10-6-15-8m-1114 3c-2 1 0 4 0 6 2 2 0 5 0 8l1 3c-3 2-6 4-8 8 4 4 9 5 14 6 6-8 13-16 22-21l15-4c-8-6-18-4-27-7-5-2-12-2-17 1m704 0c0 2 2 4 4 4 6 2 13 1 19 3l4-2 4-5c-10-2-21-3-31 0m51-1c-4 1-8 0-11 2 4 2 9 4 15 4l1-2 5-1c6-2 13 1 18-4-9-1-19 0-28 1m-105 0c2 6 1 14 6 18 1-6 0-14-6-18m45 7c4 1 5-5 2-7l-2 7m-19-3c3 5 9 8 14 6-3-5-9-4-14-6m59 2v2l67 25c4 1 7 4 11 4-1-4-5-5-9-7l-17-7c-8-3-16-8-25-10-5-3-12-4-18-6l-9-1m341 0c3 7 5 15 11 21 4 5 13 6 18 1l-8-6c-8-5-15-10-21-16m-1112 6c8 5 16 9 25 12l-1-9c-5-4-13-1-17-6-1-2-4-3-6-2-3 0-4 4-1 5m730-2c-1 2-3 4-3 7 11 7 19 20 32 22-2-4-9-4-10-9 6 1 11 6 16 8l7 4c3 3 8 3 11 5 9 5 20 8 31 10-2-3-5-4-7-4l-10-5-8-4-6-1-10-5c-2-2-5-2-7-3l-27-13-2-3c4 0 8 4 13 4-2-3-7-3-7-7 11 3 20 13 31 17 2 1 4 3 7 2 9 0 18 5 27 5-2-3-5-4-8-4-3-1-5-5-8-5s-5-2-8-3l-27-10c-5-4-12-6-18-8l-2-2c-2 2-4 2-7 2m-33 0 3 6c0-3-1-5-3-6m51-1c0 2 2 3 4 3l35 12c8 3 16 5 23 9 6 4 13 4 19 7 8 4 16 7 23 13 2-2 2-5 0-6l-27-11c-16-6-32-10-47-19-4-3-9-3-14-5s-11-2-16-3m-38 2c1 3 3 4 5 6l16 16 9 8 2-2c1 2 1 4 3 5 6 4 13 7 20 9-2-4-7-6-10-9-2-3-6-2-9-4l-6-6c-2-5-6-8-11-8-7-4-11-11-19-15m-222 4c-1 7-3 15-2 23 0 4 4 6 6 9 1-9-1-17-2-26l-1-6h-1m190 4 1 8h4c-1-3-2-6-5-8m474 3-4 1c3 2 7 2 10 0 3 1 6-1 8-4-5 0-9 3-14 3m-438 1 5 6c2 1 1 4 3 7 3-1 6 0 9 1l-3-3c-3-3-5-6-9-8-1-1-2-4-5-3m-42 9c3 6 9 11 14 15 0-2 0-4-2-5-5-3-8-8-12-10m39 0c0 2 2 3 3 5 2 2-2 3-2 4l10 7 9 6 10 7c2 2 5 4 9 4l-13-11c-8-7-17-16-26-22m-19 7v5c11 6 21 14 32 19l-12-14-5-6c0 2-2 3-4 2l-6-3-2-4-3 1m-16 4c1 8 8 13 15 16-4-6-10-11-15-16m-14 3c1 5 5 9 7 14l-2 2 10 13 8 11c2 6 5 10 8 15l13 19-6-18-14-22c-4-6-10-10-13-16 6 2 10 8 15 12-3-6-8-10-12-15-4-6-9-11-14-15m-177 3-1 10-2 17c2-6 3-13 3-19v-8m203-1c1 4 4 7 8 7 7 3 12 8 18 10l27 21c12 10 23 23 40 28-3-4-6-5-10-8l-20-16-27-22-7-4c-2-3-5-4-7-5-4-4-9-6-13-9l-2 3-7-5m-34 4c0 2 1 4 3 5 0-2-1-3-3-5m116-1c1 2 0 5 2 5l14 4c-5-5-11-6-16-9m-28 2c5 7 13 12 20 18 1 2 1 4 3 5l18 13c-1-3-5-4-7-6-2-3-5-7-9-9l-9-9-11-9c-2-1-3-3-5-3m-67 1c3 5 8 9 12 13 2 3 6 4 9 6 12 8 22 17 34 24-2-5-8-6-11-10l-7-7c-5-3-9-8-13-12l-9-6-4-1c-3-3-7-7-11-7m-45 0 1 9 5 2c-1-3-1-9-6-11m-28 3c1 11 7 20 11 30 6 10 10 21 13 32l9 21c2 3 3 7 6 9 1-4 1-9-2-13l-18-42c-2-4-7-6-8-11l5 2 16 26c-2-9-7-16-11-23l-4-9-3 1c-5-4-8-10-10-16l-4-7m-113 2c-1 7 0 13 1 19l7 32c1 6 4 11 4 17-6-7-7-16-9-25-2-10-3-20-6-29-2 3-3 7-2 11 1 13 6 26 9 39 6 6 10 14 15 22 4-9 0-18-3-26-1-5-7-7-6-12 5 3 7 9 11 14-2-12-3-26-11-36l6 18c-4-3-5-7-7-11-2-9-7-18-7-28 1-2-1-3-2-5m210 1c4 7 12 10 18 15l6 3c2 2 3 4 6 5-9-9-18-18-30-23m-52 0c1 8 8 13 11 19 1 5 5 7 8 11 10 18 23 34 34 52l7 8c1-2 2-4 1-6l-10-13-22-35-16-18c-4-6-8-13-13-18m-119 1c-2 7 4 12 5 18l5-8c0-1 1-4-1-4l-2 5c-3-3-3-9-7-11m131 1 4 6c1 2 1 6 3 8 3 2 5 5 5 8 12 14 24 29 33 46l7 8-3-13-2 1c-12-15-21-32-32-48-5-6-9-12-15-16m175 1v2-2m-289 11 3-9-3-2c-1 3-4 8 0 11m66-10c1 4 3 8 6 11-2-4-3-8-6-11m31 8v-9c-3 3-3 7 0 9m-23-7 4 9c2 4 0 9 3 12 6 8 10 18 13 27 2 5 2 11 6 14s6 9 10 11c5 3 9 7 14 8l-5-7c-11-13-16-31-26-45-2-4-6-7-7-11l8 9 1-2c-7-8-10-21-21-25m-152 1v6c5 3 4 10 8 14 1-6-2-11-4-15l-2-1-2-4m32 2c0 3 1 5 3 7 0-3 0-6-3-7m147 2-3 4 4 1v3c3 8 10 14 13 23 11 14 21 30 31 46 3 4 6 10 11 11v-4l-14-20c-12-18-22-38-35-55l-4-2c0-3-1-6-3-7m-48 1c-2 4 1 7 3 10 3 4 3 10 6 14 5 7 9 15 15 22-2-8-4-17-10-23-6-7-9-16-14-23m37 3c1 7 10 12 6 19l37 54c3 3 6 7 10 8-5-12-13-22-20-34l-17-26c-3-4-7-7-9-12-1-3-3-8-7-9m-96 11v-8c-2 2-4 7 0 8m156-8 6 15 4 6c11 8 23 15 36 19l-6-6c-15-10-25-25-40-34m-149 1c-1 5 2 9 3 14 1 6 5 11 7 17v8l4 10c4 3 6 8 8 13l5 9-3-36c-1-7-3-14-7-19s-5-11-9-15c0 6 4 12 6 18 2 5 2 10 5 15l2 8c-9-12-12-26-19-39l-2-3m-31 9 7 21c7 17 13 34 17 52 3 1 4 4 6 6 3 2 5 5 9 6-10-12-14-26-19-40-6-18-13-35-21-52l1 7m81-3c1 7 3 13 6 20l7 20c2 6 6 10 9 15 6 8 9 16 15 22 2 1 3 0 4-1v-7c-9-15-16-31-24-46h-3c-7-7-8-16-14-23m-55 1c-1 6 1 11 2 15 2 5 7 8 7 13l-4-1c-5-4-7-11-10-16 3 14 10 27 15 41l4 12 8 11c2 3 3 7 7 10 1-5 4-11 1-17l-8-14c1 5 5 8 4 13-8-7-7-19-12-28l-1-6c-3-10-6-21-11-30l-2-3m23 1c3 7 8 14 10 22-2 8 3 14 6 21 8 15 20 29 36 35l-7-12c-3-1-6-2-8-5-4-8-11-15-15-23l-16-31c-1-3-4-5-6-7m28 0c-1 1 0 4 2 4 0-2 0-4-2-4m-116 5c-2 3-1 7 0 11l10 35 4 8c7 6 7 16 12 22l3-12c1-3-1-5-2-8-2-5-3-12-8-16l3 12c2 5 6 9 6 15-3-2-5-5-6-8-8-20-12-41-17-62-2 1-4 1-5 3m32 1c3 12 6 26 6 39 3 6 6 12 12 16l-9-25c-2-3-3-7-3-11 4 4 5 8 6 12 4 10 7 20 12 29 0 2 2 3 4 4-4-16-11-31-16-46l-4-7-8-11m80 2c0 4 3 9 7 12-1-5-5-8-7-12m148 0c9 8 18 16 29 21 1 2 2 3 5 3-2-3-5-4-8-6l-7-5-10-7-9-6m-153 9c5 10 9 20 16 29l20 29 6 7c1 3 6 3 9 4l-13-20c-4-4-5-10-9-14-5-7-6-17-13-22 1 2 2 5 1 8-7-6-8-18-17-21m155 6c3 3 5 6 9 8 3 2 7 1 10 0l-2-2c-6 0-11-4-17-6m-19 2c1 2 3 5 5 5v-3l-5-2m-9 3c1 4 1 8 4 12 0-4-1-9-4-12m7 7 3 5-1-4-2-1m-140 30v-13l3-2-4-9 1 24m67-19c0 2 0 4 2 6 1 1 1-1 1-2 2-2-1-3-3-4m75 11c2-4 2-10-3-11-2 4-1 9 3 11m3 2 4 3-2-9c-3 1-1 4-2 6m-82 15c-1 1-2 3-1 4 2 1 3-3 1-4m309 105c0 4 4 7 6 11l16 29c1 2 2 5 4 6 1-3-1-5 1-7 1 6 6 10 10 14l6 2c-8-13-17-26-27-38l-12-15c-1-2-3-2-4-2m8 1c2 5 6 8 9 13l23 31h1v-3l19 17 7 8-3-6-5-4c-8-14-19-27-30-39-5-5-11-11-13-18l-8 1m24 3 21 19c10 10 21 20 29 32 3 4 9 5 13 7 3 1 6 4 9 4l-4-5c-6-4-11-10-16-15-11-12-20-26-32-36-2-2-5-2-8-3-4-1-7-4-12-3m-55 20c4 11 13 20 14 33 0 3 2 6 5 8l6 7c1-11-6-20-11-29-4-7-9-14-14-19m87 14 5 7c-1-3-3-6-5-7m-22 9h-1c3 5 7 10 12 13-2-6-7-9-11-13m29 0c1 3 3 6 6 7-1-3-3-5-6-7m15 19c-1 0-2 3 0 3s3-4 0-3m-78 32c0 3 1 6 3 8-1-3 0-6-3-8z" />
    <path d="M969 366c0-2 1-5 3-6 0 13-8 23-16 32-3 4-8 6-12 9l-14 13-4 3 2-4 19-17c10-8 17-18 22-30zm-177 56c7-5 15-4 23-3l9 3c10 0 21 3 31 4 5 0 11-3 16 0l-4 3h-20c-2 7-2 16-7 21-6 4-13 5-19 5-9-1-16-7-19-15-2-5-2-11-2-17l-7 3c-2 2-3 4-6 5 0-4 1-8 5-9m14 1c-6 9-2 23 9 26 8 3 17 1 23-5 4-4 5-10 5-15l-10-1c-1 4-1 7-3 10-2 5-8 6-12 5-6-2-11-9-8-15 2 2 3 5 6 5 3-1 5-4 6-7-5-2-11-2-16-3zm-51 31h2c1 12 2 23 1 34-4-1-3-5-3-8 1-9-2-17 0-26zm13 24c2-5 2-10 5-13l-3 18-2-5zm6-2c0-3 2-6 5-6-5 7 2 17-4 23 0-6-2-11-1-17zm175 3 5-8c1 2-1 5-3 6l1 1-3 1zm-52 18c2-1 3 0 5 1 4 2 9 0 13 2-3 2-6 1-10 0 0 2 2 5 0 6-2 0-3-2-4-3-5-1-9-5-14-4l4 4c2 1 2 3 2 5-4 0-7-5-11-5-3-1-6 2-9 2 0-4 5-3 8-5 2 0 2-2 2-3 5-2 10 1 14 0zm387 21c1-6 5-11 8-16 1 3 0 6-1 8-2 3-3 7-7 8zm-419-11c4-1 9-1 13 1l4 2v4c-4 1-7-3-11-3-2 0-7-1-6-4zm-6 4c1-2 3-3 5-3-1 2-3 3-5 3zm-33-2c3 1 3 4 6 6 9 5 21 7 31 4l-2 4 24 12c-1 1-2 3-4 2l-10-5c-4-3-8-4-12-8l-12 3 1-2c-5-2-11-3-16-6-4-2-6-6-6-10zm-10 9 10 7 17 8c2 0 3 1 4 3-4 0-8-1-11-3-7-3-13-6-18-11l-2-4zm51 3c-1-1 1-2 2-2 4-1 6 2 10 3 4 2 9 2 14 2s9-2 13-4c1 3 0 5-2 6-6 0-12 4-18 1s-13-3-19-6zm-551 9c2-3 5-5 9-6 2-1 4 1 2 3s-7 3-8 7c-2-1-4-2-3-4zm494-3c6 3 10 8 16 12 4 1 10 0 11 5-11-1-21-8-27-17zm51 10c-2 0-4-2-4-4l4 4zm46 3 3-5c2 2 2 5 0 7-3 3-8 4-13 5h-24c1-1 2-2 4-1 7 0 14 0 21-2 3-1 6-1 9-4zm-46-2c5 1 8 6 13 7l-2 1c-5-1-10-3-11-8zm-538 8c5 0 8-6 13-4-1 4-6 6-8 10-3-1-5-3-5-6zm13 4 3-1c0 4-2 6-4 8 3 1 6 1 8 4l-5 3 4 2 4-1c1 4-4 5-6 7v3l-5-1 1-6c-3-1-4-4-4-7-2-1-5 0-4-3 1-4 6-4 8-8zm514-1c5 3 7 8 11 11 3 2 6 2 9 2 0 2-3 3-5 3-2 1-2 4-4 4-7 1-13-1-19-5-3-3-8-8-6-14l7 10c5 4 11 6 17 5l-6-6c-2-3-4-6-4-10zm-23 11c6 2 9 10 6 16-3-2-2-6-2-9l-4-7zm-5 2c3 0 3 3 3 5 1 5 2 12-1 17-1 2-2 2-3 1l2-8-1-15zm-478 13h6c1 3-3 3-4 4l-1 5c-2-1-5-2-5-5 0-2 3-3 4-4zm521 1c5 4 3 11 1 16-3 6-4 13-6 19 7-6 11-15 13-24 0-2 2-4 4-4-1 9-5 18-10 25l-12 17-5-6c0-9 7-15 11-23 3-6 4-13 4-20zm-520 10c3-2 6-5 10-2 0 2-3 3-5 4 0 2 1 2 2 2 3 1 7 1 9 3l1 4-3 1c2 3 6 2 8 4-3 2-6 2-8 5 3 2 6 1 10 1-1 4-4 4-6 5l2 4c-1 1-4 1-5-1l-5-8 1-6-4-3 2-5c-4 1-11-3-9-8zm488 70c6-9 12-19 20-26 1 4-4 5-5 8-6 12-15 22-23 34 0 2 1 4-1 5l-4 1c0-2 0-4 2-6l11-16zm224 52c3-2 5-5 9-5l-8 7c-9 5-16 13-24 20-3 1-3 4-6 5-4 4-8 9-13 12 4-8 11-12 17-18l15-15 10-6zm16 12 8-4c-5 8-13 11-19 17l-43 38-16 14c1-2 1-4 3-5 22-20 44-41 67-60zm-822 13h15l4 5-6 1-9-2v3c-3 0-7 0-6-4-1-2 1-2 2-3zm816 16c5-5 10-10 16-13 1 4-4 5-7 8l-19 17-14 12-6 5c-6 4-11 11-18 14 2-3 3-6 6-7 8-7 15-14 24-20l18-16zm-329 8c3-7 11-10 16-15 0 2-2 3-3 4-4 4-8 8-10 13l-3-2zm110 0c2-3 6-8 11-9l1 1c0 2-3 2-4 4-6 6-11 13-18 18l-13 10c-4 1-5 6-9 7 1-2 1-5 3-6 9-9 21-14 29-25zm-96-4c0-3 3-2 5-2l-5 2zm26 24c2-8 10-15 19-14l-3 3-11 8v5c-2 1-3-1-5-2zm-284-2 2-4 2 2-2 3c2 11 6 22 11 32-5-2-7-9-9-14-1-7-4-13-4-19zm87 5c3-2 7-5 11-5-7 7-18 11-20 21 5-4 9-9 15-10l-11 11-2 7-6-6 4-12c2-3 6-4 9-6zm27-2 5-3c0 3-4 3-5 3zm449 8c4-2 8-6 13-6l-5 5c-6 2-10 7-15 11l-7 5-20 19c-1 2-3 3-5 3l12-14 27-23zm-193 1c3-1 4-4 7-4-1 5-6 8-10 11l-16 10c-1 1-3 2-5 1l1-4c8-5 16-8 23-14zm230 4c3-2 4-5 8-6l-3 5c-3 3-6 7-11 7 1-3 4-4 6-6zm-307-1 6-2c-3 7-11 10-15 16l-3 7c-1-1-3-2-3-4 1-4 4-6 6-8 5-1 6-6 9-9zm-281 1v-2c6 4 10 11 14 16h4l-1 6c-5 0-6-6-9-9l-8-11zm181 0c1-1 2 0 1 1s-2 0-1-1zm-527 13c0-5 4-9 9-10l-1 4-8 6zm6 5c2-4 5-10 11-10 0 5-6 7-7 12l-4-2zm308-10 7 5c7 6 14 13 17 22 2 5 2 11 0 17-5-4-1-12-4-18-3-8-9-14-15-19-2-2-5-4-5-7zm377 3c1-1 2-3 4-3 0 3-1 5-3 7-12 12-27 21-35 36l-3 2c-1-4 3-7 4-10l-14 10-4 3c0-3 1-5 3-7 5-5 12-8 18-14 1-1 3-4 5-1 9-7 18-14 25-23zm204 1 6-2c-2 5-8 5-11 9-6 4-12 10-20 11 8-7 17-12 25-18zm-882 14c0-6 6-11 12-10 0 3-4 5-6 7v3h-6zm322-10c6 2 11 8 17 8v3c-7 1-12-4-16-9l-1-2zm264 8c4-1 7-3 11-3 1 2-2 3-3 4l-10 4c-10 7-21 15-29 24l5-1c-1 4-8 8-12 3 4-7 11-11 17-16 7-5 13-12 21-15zm-577 6c0-5 4-9 8-8 1 4-5 6-4 11l-4-3zm8 8c-2-5 2-12 8-11 1 3-2 5-3 8-2 1-1 3 0 5-2 0-4 0-5-2zm565 2c6-4 12-8 18-10l-5 5c-6 5-14 9-18 16 6-3 11-7 18-7-2 4-7 4-11 6l-7 4-2-2c-1 3 1 3 3 4 0 3-5 2-7 1-1-8 5-13 11-17zm-557 5c-1-3-1-8 3-10 5 0 1 5 0 7l3 2c1-2 4-4 7-3 1 3-3 5-3 8l6 1c1-1 3-2 5-1 2 3-1 6-3 8 1 1 4 3 1 4-4 1-6-4-5-7-3-1-6-1-7-3-2-1-2-3-2-5l-5-1zm387 15c10-4 19-11 31-9-1 3-5 1-7 3l4 2c-2 2-5 1-7 1l-2-2-14 5c-3 2-6 5-10 6-4 0-6 4-10 3 3-4 9-6 15-9zm518-9h2c4 11 7 22 6 34-1 1-1 3-2 1-2-9-2-20-6-29v-6zm-43 3c4 5 4 13 2 19-4 7-11 13-19 16 1 5-3 10-6 13s-6 4-10 5l10-10c-4-1-5 3-9 3-1-6 0-11 1-16 0-3 1-6 3-7v14l3-3 4 8 2-4-4-4 8-3c6-4 12-10 15-18v-13zm-840 5c2-3 5-1 7-1 0 3-3 5-3 8l5 2c-1 1-3 4-6 2s-4-7-3-11zm274 35c6-13 11-26 21-35l-11 19c-3 3-3 7-5 11l-8 18c-2-5 2-9 3-13zm319-25 19-7 1 3a431 431 0 0 0-61 29c0-2 1-5 3-5l25-13 13-7zm-257 1c1-4 4-5 7-6-1 3-3 5-7 6z" />
    <path d="m1045 862 4-9c1 6-1 11-2 16 0 2 0 4-2 5-2-3-1-8 0-12zm-816-2c0-3 4-3 7-3l-2 5 5 4 2-3 5 1-1 7h7l1 4 15-1c0 4-3 7-5 10v7c-4 1-5-4-7-6v-7c-2 0-5 1-8-1s-8-3-9-8c-5 0-10-4-10-9zm921-3 11 2c-2 3-7 2-10 1l-1-3zm-441 3h3c1 1-1 2-2 3l-20 13-7 5c-5 3-10 8-15 10 2-7 10-9 15-14l11-7 15-10zm75 0 4-1c0 2 0 3-2 4-4 3-7 8-12 8 1-6 6-8 10-11zm-210 10c8-2 14-9 22-9l-13 7-23 13c0-4 4-5 7-6l7-5zm260-7 6-3c0 2 1 4-1 5l-6 5c-2 2-4 1-6 1 1-3 4-6 7-8zm-165 0c2 0 3-2 4-1-5 8-14 11-21 16l-37 25c-2 1-4 4-7 3 0-2 0-3 2-4l26-19c-4 0-8 2-11 5l-7 5c2-7 8-11 14-13 4-2 8 1 12-1 5-4 11-6 16-11-9 0-17 4-25 5l4-3c7-2 14-5 22-5 3 0 6 0 8-2zm586 0c3-2 0 3 0 0zm-661 19 27-18 2-1c-2 4-5 7-8 9l-13 9c-3 2-4 6-8 7v-6zm222-13c2 0 4-2 6-1-1 4-6 5-10 6-7 3-14 4-20 8l-12 13c-4 4-10 8-13 13l-7 5 7-10c7-5 13-12 18-18l-2-3 33-13zm-115 11c6-2 11-6 16-10l-2 7c-9 7-16 17-27 22l-1-2c-11 2-20 7-31 9 3-3 7-3 11-5 7-2 13-6 20-7s11-9 17-13l-3-1zm23-2c-2-4 3-6 6-7-1 3-3 5-6 7zm94-4c2-2 4-4 8-4l-3 4-21 17c-8 6-17 12-22 21l-2-4c2-5 7-8 11-11l29-23zm-139 1 5-1c-2 4-6 4-9 6-6 2-12 5-19 6l2-2 21-9zm87 3c1-2 4-3 7-3-2 2-5 3-7 3zm-300-1c4 3 5 9 6 14-4-4-6-9-6-14zm272 2 5-2c-8 7-17 12-26 17-6 4-11 9-18 12v-1c3-4 9-7 13-10s9-4 12-8l14-8zm81 6c4-1 8-4 12-4-1 3-4 4-6 5-6 2-11 5-17 6 1-5 7-5 11-7zm200-4 1 1v8l2 6h-5c-1-5-1-11 2-15zm-188 12c5-3 9-7 15-8l-8 7c-8 6-17 11-22 20-8 17-19 31-26 48l2 2-9 36 2-1v4c-3 8-2 16-2 25 1 19 5 39 12 57 0-23-6-45-5-68 0-8-1-16 1-23 0-2 1-2 2-3v39c0 16 3 33 5 49 1 6 0 13 4 19l16 23c3-5 8-11 4-17l-3-1c-7-27-9-56-10-84-1-4-2-8 0-12l1 3 4 48c1 8 0 17 5 24 5 6 6 15 9 23 2-2 3-6 3-9l-3-18-5-10c-3-8-3-18-5-27l-4-33 1-11c-3-12-6-24-7-36 3 2 3 6 4 9 1 9 6 18 9 27 1 4 3 9 6 12l3-42 2-15c-1-2 1-2 2-3 1 10-1 20-2 30l-3 30c0 5 3 11 8 14 2-3 0-6 1-9 0-16-1-31 1-46 2 8 2 17 2 26l-1 31c2 3 7 4 11 6-5 2-9-3-14-4l4 8c2 26 9 52 20 76l10 9c2 2 5 1 7 3-2 4-7 5-11 7-3-5-6-10-11-14l-8-10-4-10-10 24c-1 2-2 5-5 5 4-11 10-20 11-31 1-4 0-7-1-10-3 3-3 7-5 11-2 8-3 15-6 22-1 1-2 4-4 4l-1-5c-2 3-2 10-7 8-3-2-4-5-6-8-2 0-5 2-6 0-6-6-5-15-8-23-14-27-19-58-15-88l-3 1c1-10 6-20 7-31h-4c4-16 14-29 21-44-6 5-8 14-14 19 2-8 8-15 13-21l16-21c3-5 6-11 12-14 0 1 1 3 2 1m-14 108 4 22h2c7 10 9 22 15 33 1-11 0-23-4-33-7-6-12-15-17-22m4 25 2 17c0 3-1 7 1 11 6 9 7 20 9 31 2-2 2-5 2-7l2-11-3-10a204 204 0 0 0-13-31m33 75-13-42c-3 15 1 32 13 42m-36-15c0 4 1 8 3 11 0-4-1-8-3-11m-14 21c-1 2 1 4 2 4 1-2-1-4-2-4zM647 887c1-2 3-1 5-1l-5 5-26 17-10 4 3-4 33-21zm352 2 2-4c0 7-3 14-3 20 1 2 4 3 6 4 3 1 6-1 8-2v5c-5 2-11 2-16 0-3-1-7-3-9-7l7-1 5-15z" />
    <path d="M1008 886h1l1 14c0 2 2 4 1 6l-4-2c-2-6 0-12 1-18zm-251 10c2-2 5-4 8-4 0 5-5 6-8 9-2 3-6 4-7 7l-9 8-10 12 3 1-1 5-4-1-1 2-4-2 10-15c3-3 7-5 9-9l14-13zm200-3h2c-3 10-8 20-8 31h3c0 2-2 4-4 4-4-1-3-7-2-10 2-9 5-17 9-25zm27 27c-4-10 0-20 5-28 1 8-6 15-2 23l4 1v6c-6 3-14 4-21 3-3 0-8-1-9-4s2-5 2-8l3-9c1-3 2-7 5-9 1 8-7 15-4 24 2 3 6 2 10 2-5-8-3-19 1-27 3 7-2 13 0 20l1 7 5-1zm-257-24c1-1 2 1 3 1-10 6-20 14-27 23l1 3-7 10-9 18c-1 0-3-2-2-3 5-14 12-28 23-38l18-14zm74 8c2-2 4-5 7-6l1 1c-2 5-6 8-9 12l-7 8c0-6 4-10 8-15zm-117-4 3-1c0 2-2 4-3 5v3l-8 5-19 19c-2 3-3 6-6 8 0-10 9-13 13-21-10 0-18 7-26 12-3 3-6 7-10 8 2-6 7-10 12-13 6-3 12-7 19-9 3-1 7 1 9-1 6-4 11-10 16-15zm-437 5c4-2 8-1 12 0-2 2-5 2-8 3-4 2-6 7-10 8 0-4 3-8 6-11zm394 8c3-4 9-6 14-7-1 2-5 2-7 4s-4 3-7 3zm145-2c1-1 2-3 4-3-1 7-8 10-9 17-1 0-3 0-3 2-6 8-14 13-19 21v-5c10-9 19-21 27-32zm-170 19c6-6 11-14 18-20h2c-2 5-6 9-10 12-5 5-7 13-14 16l4-8zm81-19h2l-15 18c-2 3-6 6-6 10-1 6-6 9-9 14l-16 23c-2 5-4 10-8 14-1-8 5-14 8-20 6-9 13-16 18-26 3-8 11-14 16-20l10-13zm171 0 1 1c-3 7-9 13-10 21 3 3 5 7 9 7 1-9 3-19 10-25-3 7-7 15-6 23 5 0 7-6 12-5 1 2 0 4-1 4-7 3-14 7-21 6-3-2-5-5-5-9 0-9 5-17 11-23z" />
    <path d="M933 910c1 5-2 10-1 15l2 8c5 1 10 1 15-1 3-1 4-4 7-6l3 3c1 1 0 3-1 4-8 5-18 7-27 4-3 0-7-3-6-7l4-2c0-6 1-12 4-18zm-166 4c1-2 4-3 3 0l-14 17-9 11c-1 3-3 6-6 8 5-14 16-25 26-36zm-522 2c2-1 6-2 8 1l-5 1c-1 2-2 5 1 6h5c-1 4-7 4-7 8 1 2 5 2 7 3-1 3-5 4-6 7 0 3 4 4 6 6s-2 2-3 3l2 4c-2 1-5 4-8 4l3-10-4-7 2-7c-1-1-3-2-3-4 0-3 3-5 1-8l1-7zm330 4 3-1c-5 7-13 9-20 11-13 2-26 1-39 2-8 0-15 0-22-3 3-2 6 0 9 0 16 1 31 1 47-1 8-1 16-3 22-8zm232 19c3-7 5-14 10-19h2c-1 7-5 12-8 18l-4 1zm-343-11 23 11c14 4 28 0 41 0-2 3-6 3-10 3h-28c-5-1-10-4-14-6-5-2-9-4-12-8zm135 4c1-1 3-3 5-2s2 5 0 6c-3 2-7 2-11 3-17 6-35 11-52 15l2-3c19-6 38-10 56-19zm185-2 3 1c2 3-2 4-2 7-3 9-4 19-6 29 0 2-2 3-3 4 2-13 2-28 8-41zm-147 9 8-5-2 5c-7 5-11 12-16 19-1 2-3 2-5 3 3-9 11-15 15-22zm103 3c2-2 2-5 5-6l-8 16-9 30-2 4c1-15 7-30 14-44zm71-2 7-5c0 3-2 5-4 7l-11 21c-4 4-4 11-9 14 3-13 10-25 17-37zm-91 18c2-8 5-16 10-22 1 3-1 6-2 9l-13 34h4c-1 3-6 4-6 8-3 9-6 18-6 28v3c-1 0-3-2-2-3 0-9 2-17 5-25l2-14 8-18zm279-10 2-6 1 11 2 31c1 5 2 10-1 14l-2-15c-2-12-3-23-2-35zm-367 16c3-9 11-15 17-21h2c-1 6-8 8-11 13-2 3-4 7-8 8zm791-19c3 0-1 3 0 0zm-722 15c5-4 7-11 12-15l-1 6c-5 8-13 15-19 23-2 2-1 8-5 7l1-4 12-17zm42 6c3-7 7-16 15-18l-1 5-3-1-6 12c-2 1-1 5-4 5l-1-3zm-134-12 11-1c-1 4-5 3-8 3-4 0-8 3-11 2 1-3 5-4 8-4zm212 9c0-4 1-7 3-11l-1 8v23c-3-6-3-13-2-20zm-284-5c6-1 13 0 19-3-2 3-5 4-8 4-13 0-27 4-40 3-3-1-7-1-9-3h10c9 1 19 0 28-1zm213 24c-1-9 3-19 9-25 0 3-1 7-3 10-4 4-2 11-6 15zm-91 9c7-12 16-22 24-33 0 6-4 11-8 15-5 5-7 11-10 16 1 4-1 8-3 11-1-2 0-4 1-6l-4 3-1-4-7 10 1 3c-1 6-5 11-7 17-1 3-2 7-5 8 1-8 5-15 8-23l1-6c3-6 6-12 11-16l-1 5zm-191-25c3-3 7-2 11-1-2 4-8 1-11 1zm12-1c12 0 24 6 36 6l3-4c2 1 1 3 1 5-2 2-6 1-8 1-6-1-13-1-18-4-4-2-9-1-13-2l-1-2z" />
    <path d="M724 996c4-9 5-19 11-26 2 5-1 10-3 15l-7 20c-4 7 1 16-4 23 1-9-1-17-1-26 0-3 1-6 3-8l1 2zm-146-16c8-1 14-7 21-5-2 3-5 3-8 4-9 3-17 7-26 7l3-2c4-1 6-4 10-4zm177-2c1-2 1-4 3-4 2 2 2 4 1 6-2 10-2 21-5 31-3-3-2-7-1-11l2-22zm-118-1c1-2 2-1 4-1-2 6-8 9-10 15-2 3-4 7-8 7l2-7c4-5 7-10 12-14zm104-1h1c1 17 2 33 1 49-3-2-1-6-1-8 1-5 0-9-1-13-2-9-1-18 0-28zm-158 16c11-5 22-9 32-16l3 1c-1 3-3 5-6 6l-28 13-4 1c0-2 2-4 3-5zm119-13c0-1 2-3 3-1l-5 19c-2-6 0-12 2-18zm-7 1c3-1 2 3 0 3s-1-3 0-3zm75 14c2-5 4-10 8-14-7 22-19 42-25 64l2 1c1 15-2 31 1 47l4 12c1 1 2 4 0 5l-3 15c1 13 7 25 12 37 1 4 5 6 7 10-3 0-5-2-7-4 0 5 2 10 1 16-4-4-2-10-2-14 1-8-6-14-8-21-4-9-6-19-5-29l4-12c-5-7-6-16-6-25v-28l-3 1c-1-10 3-19 6-28l14-33zm-217-6 7-4c-3 6-10 8-17 9-16 3-32-1-48-2-3 0-7 1-10-2l45 3c8 0 16-1 23-4zm129 0 4-2-6 15c-1 4 1 8-1 12l-5 24c-1 4 0 9-5 11l2-9 2-17c0-4 2-7 3-11l1-9 5-14zm-11 10c2-4 3-8 6-11 0 5-3 9-5 13-3 8-7 16-12 23-1 3-4 6-7 8 5-12 13-21 18-33zm130-7 2-2c0 26 2 53 4 79l5 29 4 9c2 0 3 2 2 4l-2 1-4-3a473 473 0 0 1-11-117zm-111 5c1-1 1-2 3-2l-7 27c-1 6-1 12-4 17l-1 8-2-4c3-8 4-17 6-25 1-7 2-14 5-21z" />
    <path d="M773 995c2 2 1 5 1 8-1 4-3 9-6 12 1-7 2-13 5-20zm-177 2c2 2 2 4 1 6-2 5-7 8-11 10-5 3-10 5-16 5-8 0-15 4-23 5l-29 3c1-2 4-3 6-3 12 1 23-3 34-5 9-2 19-4 28-9l-2-3c3-1 7-2 9-4 2-1 2-3 3-5zm-126 2c1-1 3-1 4 1-1 2-5 1-4-1zm5 2c1-2 3-1 5 0h-5zm7 0c5 1 11-1 15 3l-14-2-1-1zm26 2c13 1 26-1 39-2l-1 2c-13 3-27 0-40 2l-3-1h-3v-1l3 1 5-1zm222 10c0-2 1-6 3-4 1 3-2 6-2 10 2 7-2 13-3 20-2 5-1 11-2 16-2-1-3-3-2-5 2-12 3-25 6-37zm-100 6c2-4 4-8 8-9 0 5-5 8-8 12-3 3-6 8-11 9 2-5 8-8 11-12zm140 39c3-15-1-30 3-44 2 1 1 4 1 7 1 13 1 27-1 40-2 8-1 17 2 25 2 10 7 19 8 29l-5-8c-4-11-7-24-9-36l1-13zm-77-20c1-8 3-16 8-22l3 2c0 2-2 4-3 5l-4 10-2 13v26c0 3 2 6 1 9-1 5 1 11 1 17l4 11 1 1c1-3 1-5 3-6l-2 11c-1 9 2 18 3 27-3-3-4-7-4-11-2-5-2-11-1-16l-1-5-1 1c-6-9-5-20-6-30h-3l2-4v-37h-3l4-2zm71-12c1-3 1-7 4-9-3 20-4 40-3 61-2-2-2-5-3-7-1-15 1-30 2-45zm-254 0c2-2 5-2 7 0h-7zm205 2 3-5c-1 9 1 18-1 27v5l-2 4c6 2 3 10 2 14l-4-5 2-8-2-1v-2c2-1 3-3 3-5l-1-9v-15zm-150 6c-1-2 3-3 4-1-1 1-3 2-4 1zm5-2c3-2 0 3 0 0zm273-1 4 5c6 22 13 45 23 66l6 9c-5 2-7-4-9-8l-11-28-10-30c-1-5-3-9-3-14zm-290 5c2-2 4-3 6-1l-6 1zm71 14c1-5 2-10 6-12 1 3-1 6-2 9-2 10-2 21-1 31 1 12 3 23 9 34 2 4 5 7 6 12-4 0-5-4-8-7 0 9 0 19-4 27-1 5-5 9-10 10 5-7 10-15 11-24 0-7-5-13-8-19l-7-15c-3-5-9-7-12-12-6-7-9-16-9-25 0-6 0-14 5-19 1 5-2 10-1 15 1 12 5 26 15 34-2-12-4-24-2-36 1-4 4-6 7-5-1 2-4 2-4 5-2 23 3 46 15 66 2-11-4-21-6-32v-37zm16-5c2-3 4-6 8-6 0 2-1 3-3 4s-3 4-3 6c-3 11-3 24 1 35 1 6 4 11 4 17l-3-3c-4-10-9-20-9-31 0-8 1-16 5-22zm106-4 4-1c-2 4-4 8-4 12-1 10-3 19-2 29 1 9 4 17 4 26-4-4-4-10-5-15-3-17-1-34 3-51zm-68 10v-3c1 1 2 2 0 3zm-9-2c2 4 2 9 1 13 0 5 1 12-3 17-3 0-3-4-3-6-1-5-4-9-2-14h2l3 12 2-5-3-1 3-16zm61 9 4-8c1 12-2 24 0 36 1-3 0-5 3-7 1 8-1 15-1 22 1 12 5 24 7 37l2 6 3 1c-2 9 3 18 5 27 0 4 3 7 3 11-3-1-4-3-4-5-6-17-10-35-13-52l-3-1c-3 12-3 24-2 36l2 16c1 4 5 6 4 10-6-2-7-9-7-15-1-14-3-27-1-40 1-3 1-7 4-9-2-12-3-23-2-34l-3 1-1-32z" />
    <path d="m650 1062 4 1 3 15c-6-1-4-8-5-12-3 8-1 16 0 24 1 9 3 19 3 29l2-1c-3 8 0 16 0 24l2 2c2-1 2-3 2-5-1-6 1-11 1-17 1-3 0-7 3-9v6c-2 7-1 15-2 22-1 2-1 4 1 6 2 3 5 4 8 6-3-10-3-21-3-31l2-4v11l2 17 4 6-3 2 7 5c1-12-6-25-2-36l2 1c-2 9 1 18 2 27 0 4 0 9 3 12l9 5-2-18-2-15 2-4c2 12 2 24 5 36l5 7c9 8 18 14 29 20-3-8-8-16-8-24 3 3 4 7 5 12l6 11 4-5c1 3-1 6-3 9 4 3 10 4 15 5-3-10-11-17-12-27 3 3 5 7 6 10l11 18 6 1c-1-5-6-10-4-16 3 5 3 11 7 15l4 3 1 3c8-1 14 2 21 2-1-8-8-14-8-22-1-2-1-5 2-7-1 7 3 12 5 18 2 4 4 9 7 12l11 2c-1-7-9-12-9-20 6 6 8 15 14 21 11 3 23 4 34 6l32 4 44 7c6 2 12 1 17 5 4 1 8 2 9 6l12 13c4 5 11 6 13 12 2 5 9 6 11 11-3 0-5-2-7-3l-2 2-1-3-18-16 4 15 4 8c-1 4 1 8 3 12 0-6-2-12-1-18 3 6 3 13 4 20 4 15 10 30 16 46 6 14 11 29 24 39-3-9-5-18-10-26-9-15-14-32-21-49-4-9-7-18-6-28 2 2 3 5 3 8 0 7 2 14 5 21l13 32c2 2 2 6 5 8l4 7c4 11 7 21 13 31l11 13 20 17c-11-17-23-34-33-52l-10-24-16-40c-2-5-5-9-5-14 4 2 4 6 5 10 10 23 19 48 32 70v4l16 24c5 10 13 18 18 28l3-1c6 15 19 25 30 35l22 22c3 3 7 6 8 11l11 4-4-3 1-3c-16-13-27-31-41-46l-15-16c-13-12-20-28-30-41l-13-19c-4-4-7-8-8-13 3 2 5 6 7 9 14 17 25 37 39 55l4 3 10 12 5 5c0-8-10-10-12-17l1-1c-11-15-19-33-31-48-4-6-10-13-11-21l4 5c-2-6-6-11-9-17-7-11-11-24-17-35-3-5-5-9-5-14l4 4c7 14 12 30 21 43-1-4-4-9-4-13 8 17 16 34 27 50-1-12-12-19-13-31l7 11c0-6-5-11-7-16l-2 2c-8-18-20-35-27-54-7 0-14-3-20-1l-2-1c2-3 6-2 10-2l28 4c0-4-1-9-3-13-5-13-3-27-6-40-1-6-4-12-10-15 1 6 1 12 4 18 2 4 4 8 3 12-2-1-2-4-3-6-3 3-2 8-2 12-3-2-3-6-4-10-2-5-3-11-6-16l-1 11c-3-3-2-7-2-10 0-12-7-22-11-32l-2-12-9-4c0 7 3 12 6 18l8 19 10 27 1 5c-5-5-6-12-8-18s-4-12-8-17c1 4 3 9 2 13-3-2-3-7-4-10l-2 1c-4-7-6-14-7-22l-6-8c-1-2-4-3-4-5 3 0 5 2 7 4l2-7-8-3-4 4c-4 0-1-4-1-6-7-3-16-4-22 0 4 7 12 14 10 24-3-2-3-5-4-8-1-4-5-9-9-12v-4c4-4 10-6 15-5 7 0 14 2 20 6 3 1 6 1 8 3 4 1 8 4 12 4 6-1 10 5 14 9l7 8c2 6 6 11 10 16 3 5 6 10 6 16l-3-2c0 8 5 16 6 25h3c-2 5 0 11 0 16l-2-2c-1 7 0 15 5 21 0 9 4 17 7 25v-5c3 4 3 10 5 15 4 13 11 25 18 37 3 7 8 14 13 20 3 3 5 8 10 11 10 10 20 21 32 29 3 3 6 9 12 7l13 5c8 2 14 8 21 12 2 1 4 4 5 7-10-4-17-12-28-15 0 3 3 4 4 6l11 14 6 5 19 15 14 12c5 3 8 7 12 8 7 6 15 9 23 14l16 10c3 2 6 4 9 4 4 0 7 2 10 3 5 1 10 1 15 4 3 2 7 0 10 1l16 5c-3-7-9-12-14-17-5-4-11-8-12-15 9 7 16 15 24 23 3 4 5 8 9 10 5 3 10 3 14 5 7 4 14 7 19 12 2 8 9 14 14 20l8 5 20 20 1 4-8-6c3 10 11 17 14 27 1 5 4 8 6 12 11 19 22 39 29 60l4 9c3 4 2 9 2 14l-1 11c-1 7 0 14-3 20-1 3-3 5-6 6l5-12-5 5c0-5 2-8 4-13l-16 10c3 4 9 3 14 4 0 2-2 2-3 3-3 4-8 6-12 8l-8 1 2 5c-2 0-3-1-5-3-3-1-6 2-7 4 2 1 4 0 5-1 1 4-4 5-7 6-3 6-2 14 0 20l3-1c1 5 4 9 7 12l9 3h11c3 0 6 1 8-2h6l-3-3c9 1 20-1 26-9 3 1 5-2 6-3l-3-2c5-2 12-1 17-2s8-5 13-5c2-3 2-7 1-11l-3-3 6 2c1 3 2 8 1 12-2 4-5 8-10 9-1 0-3 0-4-2-5 2-11-1-15 3-2 4-7 6-10 9-7 5-16 7-25 9l-12 2-13-1c-5 1-8-4-12-5l-2 2h-3c1 2 3 5 0 6-7 0-9-8-12-12h-7c-3-2-5-4-9-4-2-4-7-3-9-6-5-6-3-14-2-21h-16c-5-1-9 1-13 1l-10-1c-6-1-12-3-16-7-2-1 0-3 1-3-5-4-11-5-17-7-1-5-5-8-6-12 0-5 2-9 3-13 5-2 6-8 9-12 1-3 4-5 7-6l2 2c-3 0-4 2-6 4l11-5c-2 0-4 1-6-1h16v1l-2 1 5-2c4 0 7 4 11 4l10-5c0-3 1-5 4-6l-2-3 4-1c-1-8-6-15-7-22-1-2 2-4 0-5-11-26-27-50-43-73l-7-12c-2-3-5-3-8-6-11-11-22-21-32-33l-1-4c-6-5-14-7-22-8-8-3-17-2-25-3l-14-5c10 7 21 10 32 15-18-2-34-12-50-21l-28-17c-5-3-11-7-14-12l-20-10c-7-3-12-7-17-11-15-11-29-24-40-40-1-2-3-4-3-7 0-4-4-8-5-12-2-4-5-6-8-8-2-3-6-4-9-6-8-6-14-14-21-23-5-6-9-13-12-20-8-16-17-32-22-49-3-13-5-27-11-40l-11-18c-2-4-4-8-8-10-5-3-11-4-16-5l-30-5-47-6h-13l-15-2c-5-1-10-2-15-5-4-2-10-2-15-3-8-1-17 0-25-3l-13-4c-3-4-8-5-12-7-13-6-23-17-35-23-2-1-4-4-6-4 1 3 4 5 7 7l-2 2c-3-1-6-3-7-6-7-12-20-18-30-26-1 2 1 4 1 7h-4c-1-3 1-7-1-10l-9-5c-4 5-8 9-14 9 2-5 7-7 9-11 5-7 6-15 6-23l-5-39c0-6 0-12 4-16m1 77 3 3c1-4 0-7-1-10l-2 7m335 46c8 18 15 36 21 55v-14c-3-13-10-24-14-36-1-3-3-5-7-5m10 6c4 8 5 19 15 22-2-9-8-16-15-22m-20 8 4 11c-1-4-1-8-4-11m47 48c-1 7 0 13 3 19l1-9c0-4-2-7-4-10m-9 37c0 4 2 7 4 10l-1-10h-3m5 1c0 2 0 5 2 6 5 4 6 10 8 14 9 17 15 35 25 51 4 6 7 12 12 17l-16-28c-10-18-18-37-23-58l-8-2m-45 32c3 6 4 13 8 18-1-6-5-12-7-18h-1m63 38c1 4 5 6 5 9 5 4 5 10 9 13 11 14 18 32 30 46l-2 1 29 27c-7-9-17-16-20-27 6 6 11 14 18 20l26 25c3 2 7 3 8 6-6 0-10-5-15-7 0 5 6 7 9 11l12 11 8 6c7 4 11 10 18 14 3 1 5 3 6 6-7-3-12-8-17-12l-16-11 12 11 26 17-1 3 14 3-5-5c-16-13-34-25-49-39-1-1-4-3-4-5 8 3 14 11 21 16 5 4 11 7 15 12l9 6 4 4c5 3 8 7 13 8l1 4h9l-3-3c-7-6-13-12-21-17l-1 2c-20-12-37-30-52-49l-7-6-6-6c3 6 9 10 11 16-5-3-8-8-12-13-8-10-19-20-29-30-9-9-17-21-24-32-3-6-7-10-9-16-1-2-2-3-4-3l3 8 14 20 10 16c-16-17-26-36-38-55-1-3-3-4-5-5m19 12c5 10 13 18 19 27l-1 3c3 5 6 9 10 12 2 5 5 10 11 10l-17-24c-7-9-12-19-21-28h-1m21 23c10 16 22 31 35 45 4 4 7 10 13 12-7-12-21-21-26-34-3-5-9-8-12-13-2-4-6-8-10-10m31 29c12 14 22 30 36 42l3-1-11-11-1-4-10-11-6-8-11-7m-62 1c5 10 13 18 20 26l18 16-4-1-9-6c3 5 9 7 12 12 2 3 6 3 9 5l8 7 16 8-2-3-11-11c-12-12-26-22-37-35-4-3-5-8-8-11l-12-7m82 12c1 3 4 5 6 7l13 13c5 4 7 11 13 14l-25-31c-1-2-5-2-7-3m-41 4c9 14 22 25 34 37l1 3-7-5c4 6 10 10 14 15l3 5c5 3 11 5 13 11-5 0-9-4-14-5 6 6 15 8 21 14 1-1 4-3 6-1 4 4 9 8 14 9l-10-8c-13-10-26-22-39-34v-3h2c2 4 5 8 9 9l-9-11-4-6-24-21c-3-3-6-7-10-9m-20 16 2 2c2 0-1-3-2-2m72 13 4 5 6 4-10-9m11 2 18 19 26 23c7 6 13 13 21 18 3 2 7 2 10 0-6-6-12-11-19-15-1 2-2 3-4 1-7-5-12-12-18-19l-5-3c-9-8-17-20-29-24m22 9 4 5c4 2 7 6 10 9 7 4 10 11 16 16 4 3 9 4 12 7l22 18c2 1 5 1 6 3-1 2-3 2-5 1l-8-6c-2-1-4 0-6 1 4 1 6 6 11 6s9 2 12 5c14 12 27 23 38 37 2 2 4 4 2 7l11 9 3 4-7-5c7 15 20 25 28 39l8 17 9 21 3 14 4 8 2-4c5 10 13 17 20 25 5 5 10 11 16 15 2 2 4 4 4 7l-3-2-19-18c-7-6-12-14-17-22h1l-3-1c2 3 1 7 2 10l28 30c3 3 6 5 7 9-13-9-23-22-34-33l5 9c1 5-3 10-8 12-3 2-7 2-11 3-2 0-4-1-4-3l8-1c-5-2-11-3-16-1v-2c-6 0-10 4-12 9-2 6-3 12-6 17-1 4 2 9 0 13l9 3-2-2c13 4 28 5 42 3 4-8 11-14 16-22l4-1c-2-3-6-4-7-8 4 3 9 5 12 9 5-2 10-7 16-6 4 0 7 3 12 3l-1-4h3c2 2 2 5 2 7 6-1 10-4 15-7l5-7 2-10c0-5 1-9-1-14l-5-12c-7-16-14-32-23-47l-17-35-10-17c-2-3-4-8-8-10l-8-7c-3-1-4-5-7-5 4 9 8 19 9 29 0 7 6 12 10 17 8 12 20 20 27 31 2 4 7 3 8 8-5 1-10-2-15-3l2 6c-3 2-3-3-5-4 0 5 6 8 9 11 4 3 8 3 12 3 2 2 0 3-1 4l-10-2c2 8 14 8 16 17-6-1-9-6-13-9-2-3-6-5-5-9l-9-10c-2-2-2-5 0-7-8-11-16-22-22-34l-2-1-2-8-8-13v-12c-2-9-9-17-9-27-1-3-3-6-6-7-4-2-8-6-13-7 7 8 16 16 19 26h-3c-1 4-5 1-8 1 5 4 11 8 14 13 2 2 4 5 3 8l-10-11c2 7 9 10 11 17 0 4 4 6 6 10-5-3-9-8-13-13-3-3-6-6-6-10-8-11-20-18-29-28l-26-22c-2-1-2-2-2-3-4-1-8-3-13-3l17 13c5 3 9 8 15 10 7 8 15 16 24 23-2 2 1 4 3 6l17 19c2 2 5 3 5 6l-6-2-18-22-10-11-21-17-28-23v-3c-4-1-7-3-11-2l10 8c15 12 27 29 45 38l2 4c12 11 23 23 33 36 1 2 4 2 6 4l16 17 3 5c-7-3-10-11-16-15l-2 2c-5-8-12-15-18-22h-3l-19-15c-4-3-8-7-8-13l5 7c7 5 13 12 21 17-6-9-14-15-21-23l-5-4c-5-2-8-5-12-8-14-13-27-27-42-38l-2-4c-12-4-21-12-32-17 7 8 17 13 25 20l1-2 37 34c3 3 5 6 9 6 5 8 11 13 16 20 3 3 4 7 8 9 5 5 8 12 14 16l10 14c4 2 6 6 9 9 5 4 8 9 12 14 3 5 7 8 11 12 8 7 14 16 22 21l3 6c-6-3-10-9-16-13l-5-4c-8-12-18-22-27-33l-17-17-22-28-14-16c-2-2-3-6-6-7l-17-13-20-19c-2-3-6-4-9-6-15-11-30-22-44-36-2-3-7-4-8-8-5-2-9-5-13-9-1-1-3-3-5-3m-9 15 11 9 9 5-22-17 2 3m124 46c15 10 28 24 42 36 2-1 3 0 5 1-10-7-18-16-26-25l-3-6 22 20c5 4 9 9 15 9-6-12-17-21-27-29-9-2-18-5-28-6m-6 42c-2-5-7-8-11-12l-19-17c10 10 19 21 30 29m96 53c2 7 7 12 10 17l9 4c-5-8-12-15-19-21m-63 87-3-4c-3 0-7 0-10 2-4 2-8 4-11 8-3 6-6 12-6 19 0 3 3 6 4 10l4 1c1-2 0-5 3-6-2-6-2-14 5-17-2 5-5 11-1 16 0-7 1-15 6-20 6-4 14-6 21-7l10 2c4 0 7-2 10-3 1-4 0-8-2-11-7 8-19 12-30 10m36-4c-1 0-2 2-1 3 2 2 3-3 1-3m-12 10c3 1 7 2 8-2-3 0-6 0-8 2m-30 5c-2 2-3 5-3 7l3-7m68 23-1-4-3 1-2 3-1 2-3 9 3 21c0 3 0 6 2 8 2 4 6 6 10 6 0-7-2-14 1-21l4-5c5-3 9-8 13-12 2-2 5 0 8 0 6 1 11-3 15-7l-9-3c-6-4-13-5-19-7-7-1-13 3-18 9m-14 14-4 8c0 4 1 9 4 11v-19m24 29h2c1-5-1-10-1-15-4 3-3 10-1 15z" />
    <path d="M701 1069h7l-4 5c1 1 3 1 3 3l-3 2 3 19 7-3c-1 4-5 7-10 8 0-9 0-17-4-25 2-3 2-6 1-9zm15 17c1-7 9-7 13-11 2 3-3 5-5 6-3 2-4 6-8 5zm-26 7c0-3 0-5 2-7 1 12 3 23 6 35 1 4 4 8 2 13-3-4-4-9-5-13-2-9-5-19-5-28zm-26-3c3 0 8-1 10 2-3 1-8 1-10-2zm379-1 6 6 7 8 22 22c2 2 4 3 4 6-3-1-4-3-6-5-10-10-21-19-30-30-2-2-4-4-3-7zm75 2 3 1c19 9 36 22 53 34 4 3 8 6 12 7 2 1 5 2 6 5-7-2-13-5-19-10-9-6-17-13-27-18l-25-15c-1-1-4-2-3-4zm27-1c10 2 19 7 27 11l26 14 3 3c-2 1-4 0-6-1-13-8-28-13-40-21-4-2-9-1-10-6zm-463 23c-2-6-5-12-2-19l3 12c1 5 4 9 4 14-4-1-4-4-5-7zm-11-15 2 18c-5-5-4-12-2-18zm239 0 2 3c2 5 3 11 7 16 2 5 9 6 10 12l-6-4c4 12 12 22 17 33-3-1-4-4-6-7-7-10-12-21-17-32-3-7-8-13-7-21zm155 6c3 0 5 3 7 4l23 24c4 4 10 8 12 14-5-2-8-7-12-11l-21-21c-3-3-7-6-9-10zm-226 3c2 2 2 4 2 6 2 9 4 17 8 24l2 5c-2-1-4-2-5-5-4-9-8-19-7-30zm-124 10c0-3 0-7 3-8v30c1 8 3 17 3 26l-2-4c-3-14-5-29-4-44zm253-5c4 6 8 13 13 17l5 6c-4 0-6-3-9-5 1 4 4 7 4 10-6-5-7-14-12-21-2-2-3-5-1-7zm171 10c-2-3-5-6-5-10l10 10 7 5c3 1 7 2 7 6-7-2-13-6-19-11zm-241-7c3 1 4 4 5 6 6 9 14 16 17 26-5-3-6-8-9-12-5-6-12-12-13-20zm-110 1c2 0 2 2 3 4 2 8 5 17 9 24 2 3 5 6 5 10-11-9-17-24-17-38zm141 3 2-2 5 6 2-2c2 5 7 7 8 12l-4-2 11 23c-3 0-4-3-5-5l-6-13-13-17z" />
    <path d="m1153 1117 31 25c2 2 5 2 7 3 8 4 14 9 21 14l12 10c-1-7-8-10-8-16l3 1 14 22 10 13c6 6 10 14 14 21l11 21c-6-4-7-13-12-19l-13-19-16-21-5-1c-9-7-17-16-28-20l4 7c11 7 21 17 31 26 2 1 3 3 3 5-6-3-10-8-15-13l-20-15-2-6c-12-13-28-23-41-35l-1-3zm48 4 8 4c5 5 12 6 18 9 11 5 20 12 28 19 3 4 8 7 10 12-4-1-5-5-8-7-2-1-2-4-5-5l-14-11-11-5c-8-2-14-7-21-10-2-1-5-3-5-6zm-350 2 4 7c2 4 7 6 6 10-6-3-11-10-10-17zm285 1c6 2 10 7 14 10l15 13c7 4 11 10 16 16l22 22 23 23 5 7 5 10c-5-1-5-7-7-10l-18-19c-10-10-18-20-29-28-4-2-7-7-10-10l-35-31-1-3zm-322 2c2 0 2 1 2 3 1 9 5 17 6 26-4-2-5-6-5-10-2-6-4-13-3-19zm254 2 4 3 9 11-8-6c1 7 7 13 8 21-4-3-5-8-7-12-3-5-6-11-6-17zm51 1c5 1 8 5 13 8a576 576 0 0 1 82 88c8 11 17 22 22 35-2-1-4-3-5-6-3-7-9-12-13-19-9-13-17-28-29-39l-10-12-16-15a492 492 0 0 0-44-40zm-340 6c-1-2 0-5 2-3 1 15 7 30 12 44-4-2-6-6-7-10-4-10-6-21-7-31zm54 2 2 3 6 24c1 4 4 8 7 11-2 2-5 0-6-3l-5-16c-1-6-5-12-4-19zm275 0c15 11 29 23 43 36 2 1 6 2 6 6-9-4-15-11-22-17-8-8-18-13-25-21l-2-4zm-50 2 8 6c3 10 9 18 14 27 4 6 7 12 12 17 3 3 5 6 9 8 6 16 19 27 26 41-5-3-8-8-11-13l-10-13c-3-6-6-12-10-16-6-4-11-9-14-15-7-10-13-21-17-32-3-3-7-6-7-10zm33 0h3c3 8 10 15 18 19-1-2-2-5-1-7l14 14 1 4c-4-1-5-6-9-6-9-3-18-9-22-17l-4-7zm-218 2 6 15c-6-3-6-10-6-15zm-23 21c-2-6-5-12-2-18l4 17c2 5 6 10 6 16-4-4-6-10-8-15zm158-17 3 4c2 8 8 14 10 22-3 0-4-4-6-6-3-6-7-13-7-20zm-43 3c0-3 4-3 6-3 8 2 14 7 20 13l5 9c2 1 6 2 7 4 5 7 6 15 4 23-3-6-1-14-5-20-1-1-4-4-4 0-5-8-11-16-18-21-5-3-10-4-15-5zm-7 1c2 1 2 3 3 5 1 5 6 9 11 11 2 0 1 3-1 2-9-1-14-10-13-18zm-255 2c4 4 4 11 7 16 2 4 4 8 4 13-4-4-5-11-7-16-2-4-4-9-4-13zm387 1c3 0 5 3 7 5l13 20c4 5 9 11 12 18-5-3-7-7-10-11l-18-24c-2-3-4-5-4-8zm-196 2c2-1 3 3 1 4-2-1-2-3-1-4zm161 0c3 1 3 4 5 6 6 13 15 26 22 38-2 1-4-2-5-3-7-9-12-20-17-30-3-3-5-7-5-11zm-18 2 5 6 17 24 14 22c0 6 7 9 8 15-8-4-11-13-17-19 0-4-2-7-4-10l-12-18c-5-6-11-12-11-20zm-227 1c4 4 6 9 7 15-4-4-6-10-7-15z" />
    <path d="M1182 1155c6 8 13 13 20 19 7 5 15 9 21 15 5 9 13 16 19 25 2 2 4 6 7 7l2 7 10 9-2-5c3 1 5 4 7 6 5 5 10 10 13 16 5 8 9 17 12 26 1 5 5 10 4 16-3-3-3-8-5-12-6-16-13-31-25-43 1 2 3 4 3 7l-5-4s-1 3-2 1l-4-5c-1-4-5-7-8-10l-3-1c-1-3-5-6-8-9 1-3 0-8-2-11l-23-25c-7-3-13-8-19-12-5-5-11-9-12-17zm82 1c2-1 3 2 5 3l16 16 14 15c4 4 9 8 10 13l-4-2c-13-16-28-29-41-45zm-407 2h2c0 8 3 15 8 22 2 4 6 8 7 13-4-2-7-7-9-11-5-7-8-15-8-24zm40 1c3 3 7 5 8 10-4-1-9-5-8-10zm187 3 6 6 10 14 4 8c-6-5-9-12-14-17-3-2-6-6-6-11zm66 1 3 1c21 20 34 46 51 69 4 5 10 10 12 17-7-6-12-14-17-21-12-15-21-33-34-48l-14-14-1-4zm-121 3 5 10c8 9 14 20 22 30l5 10c-7-7-12-16-18-24-4-4-6-9-11-13l3 9c-3-1-4-4-5-7-1-5-2-10-1-15zm86 3c7 2 10 8 14 13 3 4 8 8 8 14-8-6-10-16-17-21-2-1-4-3-5-6zm-195 3c2 1 2 4 3 6 3 7 5 15 10 21 0 3-4 1-5 0-3-9-8-17-8-27zm213 5c-2-1-4-2-4-5 2 1 4 2 4 5zm-255-3c3 3 5 8 9 11 2 2 6 2 9 2-3 4-9 3-13-1-3-3-5-8-5-12zm-76 0c3 2 4 6 4 10-4-1-4-6-4-10zm145 0 5 1c-1 4 3 6 5 8 2 4 6 8 6 13l1 4 18 31 7 13c-4-1-4-4-6-6l-12-21-13-22v-5c-3-6-10-9-11-16zm-121 3c3 0 2 3 3 5 0 6 0 14 5 18 1 5 4 10 7 14 1 2 5 2 4 5-2 0-5-1-6-3-3-3-6-7-6-12-1-3-5-4-5-8-2-6-1-13-2-19zm86 14c-3-3-5-7-3-11 5 7 10 15 11 24-4-3-5-9-8-13zm110-10 2 2a205 205 0 0 1 15 29c-5-5-7-13-10-19-3-4-6-8-7-12zm125 14c-2-4-5-8-3-12 4 6 7 13 13 18l2 5c-5-2-8-7-12-11zm-303-8 5-1c-1 4 2 6 3 10-5 0-7-5-8-9zm53 0c3 0 4 3 5 5 2 5 4 11 10 13 0 3-4 2-6 1-4-4-4-12-9-17v-2zm-125 11c-2-4-3-8-2-11 3 6 5 13 10 18-4 0-7-3-8-7zm384-11c3 2 4 6 6 9s5 6 4 10c-3-2-4-6-6-9s-4-6-4-10zm-343 9c0-2 0-6 3-6-1 3-2 7 0 10l10 12h3c0 2-1 3-3 4-6-5-13-11-13-20zm78 7c-3-4-7-8-6-13 3 2 4 6 6 8 3 3 4 6 5 9 2 2 4 5 4 9-5-3-6-9-9-13zm217-12 3 1c5 11 15 20 18 33l-5-7-9-13-5-8-2-6zm-256 5h2c2 5 2 10 5 14 2 3 5 6 6 11-6-3-9-9-10-15-1-3-3-6-3-10zm401 1 5 7c6 7 13 14 17 23l8 11c2 6 6 10 8 15l7 11 1 5c-7-6-8-15-14-22l-14-21c-5-9-12-15-17-23l-1-6zm-307 4c3 1 5 3 7 6 4 4 9 9 11 15l-16-18-2-3zm-66 2c3 4 5 10 11 12 0 1-1 2-3 2-6-2-8-9-8-14zm265 0c4 5 7 11 13 15 3 2 5 4 5 7-7-3-12-8-16-14-2-2-3-5-2-8zm-14 1c3 1 3 3 5 5 2 5 8 8 9 13-7-4-14-10-14-18zm31 2c2 0 3 3 5 4l14 22c2 3 6 5 7 9-3 0-4-2-6-5-7-10-14-19-20-30zm-72 4c9 12 15 26 23 38l2-3 7 11c2 2 5 4 4 8l9 15c7 18 19 32 26 50-5-5-7-12-11-17l-28-50-5-4-19-30c-3-6-7-12-8-18zm-150 5c3 3 6 7 7 12-4-3-6-7-7-12zm279 6c6 2 8 8 12 12l3-1 19 19c2 3 3 6 6 8s6 5 7 9c-5-2-7-6-11-9 3 7 8 13 12 19 5 6 9 12 12 19 1 2 1 5 3 7 3 4 3 10 6 14 2 5 3 9 3 14-3-1-1-4-3-6-6-18-14-36-26-51l-10-14v-5c-2-4-5-8-9-10 3 6 8 10 9 17-6-4-8-10-12-15-6-10-16-16-21-27zm-98 1c3 1 3 3 4 5l14 22-4-1c2 8 8 15 9 24l-4-7-8-17v-6c-4-7-10-12-11-20zm-85 3h2c2 11 7 20 10 31 3 5 6 9 7 15-5-5-8-11-10-18-4-9-8-18-9-28zm12 0 1-1 19 41c2 2 2 5 3 7l-5-5-14-31c-2-4-4-7-4-11zm95 2c4 3 7 7 8 12-4-3-7-8-8-12zm12 5 4 2c3 5 9 7 10 13-4 0-4-5-7-7s-6-4-7-8zm-86 7c-1-2-2-5 0-7 4 11 11 19 15 30-7-6-10-15-15-23zm16-7 2 3 13 24c2 3 5 5 5 9-4-2-6-6-8-9-5-6-7-13-11-19-2-3-2-5-1-8zm417 6v-4l8 4c-2 3-5 1-8 0zm-312 0c4 1 6 5 8 8 1 1 4 4 1 5-3-4-8-8-9-13zm270 4c3 0 4 2 6 3l12 8c3 3 8 3 11 7-9-1-16-7-23-12-2-2-5-3-6-6zm-285 2c2 1 2 4 3 6 1 5 2 10 5 14 4 8 10 14 14 21 5 10 9 21 16 31l3 5-4-2c-6-9-9-20-15-29l-14-21c-4-3-6-7-7-12 0-4-2-9-1-13z" />
    <path d="M1294 1249c2 0 4 2 5 4 6 10 7 22 9 33l1 10c1 4 5 8 8 12l23 34 1 5 5 2c-1 6 5 10 5 16-3 1-6-2-7-5-2-5-6-10-7-16l-2-6-30-42c1 4 0 9 2 14 0 4 4 6 6 9 7 12 16 21 23 33v5c-3-3-3-7-6-10l-22-30-3 5c-1 10 6 18 11 25 4 8 10 15 13 23l4 11 10 14 2 6c-6-1-11-2-16-1 1 4 5 6 9 8l10 10c2 1 1 3 2 5-3 0-5-2-7-3-4 1-8 0-12 2l4 8c-5 0-7-5-11-5 1 5 5 9 9 11l3-4c-1 11 5 21 12 29l10 10c7 0 12 6 19 8l19 8c8 5 15 12 19 21l5 19 3 15v13c2 6 4 13 8 19 4 10 11 18 17 27 5 6 10 12 17 16 2 2 4 2 7 3v5l-9-3c-9-6-16-14-21-22l-11-15c-8-9-20-15-29-24h3l23 18c-1-12-7-22-11-33-1-5-3-11 0-16-2-9-4-19-11-25 0-5-4-7-7-9-1-2-3-4-5-4-10-3-19-8-28-13l-5-1c-5-5-13-6-16-13-4-8-9-15-11-24l-10-7c-6-8-9-19-16-27-7-7-14-15-18-25l-2 1c1-7-5-11-5-17 4 1 3 6 7 7 1-3 0-7-3-10-4-4-5-9-8-15-1-4-4-8-4-12 5 4 7 11 10 16l7 11c0-5-7-8-5-13 2 1 3 4 4 6 3-3 0-8 1-11 4 1 2 7 2 10-1 6 4 10 7 14l16 25c3 5 6 9 6 15-4-4-5-9-8-13a353 353 0 0 0-22-31l-2 11c-1 2 2 4 3 6 4 10 11 18 18 26l2-5c1 6 2 13 8 17l-2-4c3-1 6 2 9 3s7 1 10-1l-6-8-10-15v-7c-6-14-14-27-22-40h-3c1-6-7-8-6-14 4 1 6 6 9 9 4-5 2-13-3-18 0-8-5-14-9-21-3-4-7-7-9-12l7 5 10 16c2 3 3 5 3 8 1 2 0 4 3 5 1-6-4-11-3-16 3 1 3 5 5 7l-2-8c3-9-3-18-4-26 4 0 3 5 5 6 1-11-2-21-6-31-1-3-4-6-4-9m12 87c-1 4-4 7-3 11 10 15 18 30 25 47 2 3 6 3 10 3-2-6-7-11-8-18l-2-6-22-37zm-112-86c2 0 3 2 4 4l17 23c3 4 7 7 7 12-10-10-18-21-26-32l-2-7zm-36 7 3 3 25 37c3 5 7 9 8 15l-31-46-5-9zm-142 1 2 4c1 3 4 5 4 9-6-2-7-8-6-13zm76 2c2 1 2 3 3 5 4 10 10 18 14 27 5 8 9 17 12 27 3 7 9 13 11 20l-4-3c-11-18-17-39-29-57-3-6-9-12-7-19zm52 2 3 2c9 14 16 30 27 43l5 10c-6-4-9-10-13-16l-22-39zm74 1c3 2 4 6 7 9 2 2 4 4 4 6-2 0-4-1-5-3-3-3-6-7-6-12z" />
    <path d="m1242 1264 5 8 10 15c2 4 7 8 6 13-4-1-3-6-6-7 1 4 4 7 7 11l14 22c3 4 7 8 7 13l-13-17c-7-10-14-20-19-32 0-5-4-9-6-13-3-4-5-8-5-13zm-129 6c5 2 8 7 11 12l9 15c-2-1-4-1-5-3l-14-20-1-4zm160 0 3 2 8 13c2 3 4 7 3 11l-3-7c-4-6-9-12-11-19zm-195 3 3 4c3 9 13 15 16 25-5-3-7-9-11-14-4-4-8-9-8-15zm-30 6c3 3 4 7 5 11-3-3-4-7-5-11zm188 0c5 1 7 5 7 10-3-3-6-6-7-10zm-193 0 2 4c2 9 6 17 10 26 5 8 11 15 15 23-5-2-8-8-11-12-7-13-16-26-16-41zm272 4c4 3 7 7 9 11 6 8 9 17 14 26 2 3 4 7 4 11-3-3-4-7-6-10l-14-28c-3-3-6-6-7-10zm-90 3c5 3 9 7 12 12 2 1 0 2-1 2 2 6 8 10 11 16 9 14 16 30 21 45 3 6 6 11 7 18-9-15-13-33-22-48l-19-28c-2-2-1-6-3-9-3-2-5-5-6-8zm-231 2 2 1c2 8 7 16 11 24 5 11 11 21 18 31 2 3 4 6 4 9-3-2-5-6-7-9-10-15-21-31-27-48l-1-8zm217 1c2 0 3 2 4 4 2 5 7 8 8 14-4-1-6-5-8-9-2-3-4-6-4-9zm-90 0 11 23 15 30 1 4c-5-5-8-12-11-19a748 748 0 0 1-16-38zm-51 11c3 2 4 6 6 10 3 7 10 12 11 20-6-6-10-13-14-21-1-3-3-5-3-9zm147 9c2 1 3 4 4 6l19 28 11 19c5 8 8 17 11 26 3 8 7 14 11 21l12 18 5 5c7 3 12 9 18 13l6 2c0-3-3-5-5-7-4-5-7-11-6-17l-17-26c-3-3-6-6-7-11l5 4 9 13 8 11c3 3 3 8 6 11 3 5 5 12 9 16l7 5c2 2 6 1 8 3 1 3-2 3-3 2-4-1-8-1-11-4l-2 3c-5 1-11-2-15-6-2-1-5-4-5 0-5-4-7-10-13-12-2-1 0-3 1-3-4-9-10-17-16-26-4-6-5-13-8-20-9-21-22-40-35-59-3-4-7-9-7-15m88 118c0 2 1 5 3 6l-3-6zm-210-116c2 1 2 3 2 5 2 4 3 9 7 13 2 3 4 5 4 9-5-3-7-8-10-13-2-4-4-9-3-14zm68 2 5 9 19 29 10 20c3 6 8 11 11 18l-2-1c-5-5-8-12-12-18-9-16-18-32-28-46-2-3-4-7-3-11zm-16 7c5 7 8 15 12 23a679 679 0 0 1 40 61l-1-5c3 2 4 6 6 9 10 18 18 36 31 51 2 4 6 6 7 11-4-1-6-4-8-7-8-11-14-22-21-34-3-6-5-13-11-17-7-5-9-13-14-19-6-15-16-27-25-41a350 350 0 0 1-16-32zm113 5 4 8c3 9 8 17 13 26 2 4 6 7 5 12-6-6-9-15-13-22-4-8-11-15-9-24zm-53 3 4 5c9 16 21 29 29 45-10-11-17-24-26-37-2-4-6-8-7-13zm-19 1c6 6 9 14 14 20l19 29 4 8c-5-5-9-12-13-18l-17-26c-3-4-6-8-7-13zm-119 8 14 25-7-10c-3-5-7-9-7-15zm57-1 2 5c2 8 6 16 10 24l28 46 11 17c-3-1-4-4-6-6l-21-34-16-26c-4-8-9-17-8-26zm-40 4c2 0 2 2 3 3 3 9 9 17 12 26-4-4-6-11-9-16-3-4-5-9-6-13zm21 1c2 0 2 2 2 4 6 17 18 30 26 46 6 9 12 19 16 29l-3-2-17-30-16-25c-3-6-7-12-8-19v-3zm235 38c-1-5-7-9-4-14 5 4 8 10 9 16-4 3-11 1-13-4-2-2 0-4 2-6 3 2 1 8 6 8zm-187-10 3 2c9 18 20 37 34 52 2 3 6 5 7 9-8-4-12-11-17-17-8-10-15-21-21-33-2-4-5-8-6-13zm-52 8c1 0 3 0 2 2 2 9 7 17 13 23l10 12c-2 0-4-2-6-4-7-6-14-14-17-23-2-3-2-7-2-10zm142 11c2 1 2 3 3 5 2 5 6 8 9 13 3 4 5 10 9 14l8 14 4 9c-4-3-6-9-9-13l-19-29c-3-3-5-8-5-13zm-16 2 4 2 14 22c8 15 18 29 23 45-6-6-8-15-12-22l-22-37-7-10zm-19 1 9 18 12 20 7-2c-2-6-6-11-7-17l10 20c6 5 10 10 14 16l19 30 8 14 2 6c-5-2-6-7-8-11l-13-21-6-7c-6-4-9-11-12-17-3-4-6-9-12-10 1 4 4 6 4 10-3-1-4-4-6-7l-15-24c-2-6-6-12-6-18z" />
    <path d="M1273 1392c2 2 4 3 4 6 0 2-2 1-4 0v-6zm-114 27 4 8c8 16 18 31 29 45l5 9c-7-7-13-16-19-25l-14-22c-2-5-5-10-5-15zm19 5c3 5 5 12 9 17 8 14 20 25 28 40-4-1-5-5-7-8-7-9-15-18-21-28-4-7-10-13-9-21zm104 10c6 6 9 15 17 20l1 4 17 19 13 16c4 4 8 8 10 13-8-5-13-14-20-21l-4-5c-6-7-13-13-18-21-1-2-4-2-6-4-4-4-5-10-8-14-2-2-2-5-2-7zm42 5c3 0-2 3 0 0zm-127 2c6 5 10 11 15 17l39 48c3 3 7 5 9 10-3-1-6-4-8-7-15-15-27-33-41-49l-14-19zm72-1 4 4 4 11 5 17 3 9 2 4 20 18 10 14c3 4 8 4 9 8-6-1-9-6-13-10-7-8-13-16-21-23-6-5-12-10-15-17h2l-8-29-2-6zm10 0c2 0 3 2 3 3l7 12c1 3 4 4 6 6v5c-4 0-7-4-8-7-4-6-7-12-8-19zm43 16c4 4 7 8 12 11l15 14 5 6 11 10c3 2 6 5 7 8-6-2-10-6-14-10-12-12-26-22-36-36v-3zm-77 6a171 171 0 0 1 40 39l-3-1c-6-8-14-16-22-23-4-5-10-8-15-13v-2zm68 2 20 20 5 7c-6-4-11-10-16-15-4-4-7-7-9-12zm-69 3 4 6 18 25c4 5 8 12 15 15l3 4c-6-1-10-6-13-10-11-12-20-26-27-40z" />
    <path d="M1292 1472c2 0 3 2 5 4 13 14 29 25 41 40l-5-2-18-18c-7-7-16-13-22-21l-1-3zm-76 10 5 8c-3-2-5-4-5-8zm161 18c5 0 8 4 10 8 3 5 4 11 6 17 1 1 3 2 2 4h-3c0 4 3 6 5 9 9 5 18 11 22 20-6-3-9-10-15-13-2-2-5-2-7-3-3 3 1 6 2 10-6-1-8-7-12-11-2-2-5-5-5-8l5 5c1-2 2-4 1-6-3-8-15-10-15-20 5 2 9 7 15 10-1-9-7-15-11-22m15 36-2 4 4 4 1-6-3-2z" />
    <path d="M1392 1515h2c3 6 5 13 4 20l-2-7-4-13zm-131 1c2 1 4 1 4 4-2 0-4-2-4-4zm140 1c6 3 10 8 14 13-2 0-4-1-5-3-3-3-7-6-9-10zm-87 10 12 7c3 2 7 4 8 8-2 0-4-2-6-4l-7-4-7-7zm34 3c3 0 3 3 4 5 7 14 22 20 32 32-9-3-15-11-22-17-7-5-13-11-14-20zm28 10c7 5 12 12 19 16 2 1 2 3 2 4-8-3-13-11-20-16l-1-4zm-7 2 3 2c4 6 8 12 14 15 4 2 10 4 12 9-13-3-24-13-29-26zm43 41 6 3c14 10 27 21 37 35l-7-5-23-21-13-12zm-107 18c3 1 5 4 7 6 21 25 39 52 63 74-2 0-4 0-6-2-13-12-24-27-36-41l-23-28-5-9zm108 7 35 35 7 9-20-20c-7-8-17-14-22-24zm-70 14 8 7c7 7 16 13 22 21l3 6-19-17c-5-5-12-10-14-17zm113 1c7 0 14 2 19 7-3 4-7-1-11-1 3 3 8 3 12 5l1 5c-6-3-14-3-18-9l-3-7z" />
    <path d="m1443 1626 17 13c5 4 11 1 16 5l11-4c1-2 1-4 4-4-1 9-5 19-12 25l-9 6 4-1c5 6 15 5 21 0l-2-6 5 2h3c0 3-2 4-3 6-1 5-2 11-6 15 6 3 12 2 17 0l7-2c0 2-2 4-4 5 4 3 3 8 2 12-1 8-8 14-14 18 3 10 2 19-2 28-1 4-1 9 2 13 2 1-1 3-1 4 0 4 4 7 7 9-2 2-5 2-7 0-5-3-5-10-5-15l-2-2c1-6 3-11 3-17h2c1-5 2-9 1-14l-3-7c5-4 12-7 15-13 2-3 2-7 2-11-3 3-4 6-5 10-5 2-11 4-16 2-4-1-11 0-12-6l5 2c6-1 12 1 18-1 5-1 6-7 7-11-7 2-15 3-21-1h-7l2-4c-5 1-10 1-14-1-2-1-4-2-4-4 6 1 12 4 18 2 2 1 3 4 6 3 4-2 6-7 6-12-2 1-2 3-3 5l-10 2v-3l-9-4c-7-1-15-2-21-6-2-1-4-3-5-6l7 4c3 3 8 3 13 4 0-3 2-3 4-3 4-2 7-5 10-9-4 1-8 2-11 0-2-1-2-3-2-4l5 2c2 1 5 0 7-1 0-2-3-2-4-3-12-1-21-10-29-17-2-2-4-3-4-5m37 19 3 2 2-2h-5z" />
    <path d="M1444 1648c5 2 9 7 15 9 3 1 6-1 10-1-1 5-7 6-11 4-6-2-12-6-14-12zm-114 1c7 3 12 8 17 13l7 9-4-2-19-17-1-3zm158 12c2-2 2-7 5-8 0 6-3 12-8 14-3 2-5 0-7-2 4 0 8 0 10-4zm-144 8c2 0 4 2 5 4l10 9 6 7 25 26c4 3 8 5 10 10-7-3-12-8-16-13l-26-27c-5-5-11-10-14-16zm17 6c14 11 28 24 40 38 3 2 6 3 7 7-5-1-9-6-12-9l-29-28-6-8zm111 10 15 5 10 1-2 3c-6 0-11-1-16-3-3-1-6-3-7-6zm-87 1 9 8c3 4 8 8 10 13-6-3-11-9-15-15-2-2-4-3-4-6z" />
    <path d="M1408 1697c-2-2-3-5-3-8 5 8 14 12 19 20l1 5-5 1c1 4 5 5 7 8l-6 1c-5-3-10 0-12 5 1-2 3-4 6-2l-3 3 3 2c1 2-2 2-2 4v5c-3 1-3-2-4-4 0-3-4-4-6-7-1-2 1-4 2-6 4-3 9-3 14-3l-3-6c0-3 4-2 6-3-5-6-8-11-14-15zm-53-7c5 3 9 6 11 11-4-3-10-6-11-11zm134 37c0-5-4-10-2-15l3 3c-1 7 4 14 0 21 1 3 3 6 1 9-3 3-7 0-10-2-2-2-5-3-6-7 5 2 9 8 14 7 0-2 0-5-2-6-3-2-8-3-8-7l7 3c2-1 4-4 3-6zm-211-4c1-2 4-3 6-3l-4 5c-2 3-2 6-3 10s-2 9 0 13c1 3 4 4 5 8-7-1-11-9-10-15 0-6 2-13 6-18zm196 25c4-1 7 2 10 4s7 4 8 8c-5-1-8-5-12-7l-6-5zm2 8c-1-2-3-3-3-5 8 2 10 11 17 14-2 3-6 1-8-2l-6-7z" />
</svg>