<svg fill="#000000" xmlns="http://www.w3.org/2000/svg" viewBox="0 0 580 580"><path d="M228 0c-5 9-8 19-14 28-6 6-14 13-23 12-13 0-25 3-37 6l1-10-13 9c-4 2-11 0-10-6 0-6 8-7 13-9l1-2c-21 1-39 13-56 23 2 10 3 20 6 29 6 13 15 25 26 33-8-13-17-27-17-43l5 2c0 7 3 13 8 17-1-4-1-8 1-12l11 18-1-11 2-2c12 6 25 5 38 7 4 0 7 6 6 10-1 12-7 24-14 35-4-2-8-5-10-8-4 5-1 11 1 16-7-1-12-6-15-12-9 7-17 15-20 25-4 10-8 21-9 32l9-21c5-11 14-20 19-31l2 9c-1 3-5 6-2 8 6 5 15 4 21 1 11-5 18-16 28-22 4-3 10-2 15-4 3-3 5-8 3-12-2-3-6-4-8-5 3-1 6-3 9-1s2 6 3 9c7-5 13-11 21-15 4-1 9-1 13 1 6 3 7 12 3 18-7 11-18 18-27 27 8-2 15-7 23-11 10-6 21-14 25-26 3-8-1-17-8-23-14-8-31-5-46-8 9-3 19-3 28-7 13-5 26-10 38-19 8-7 19-13 26-22-4 0-8 2-13 1l-39-1c2-9 5-17 6-26l-12 12c-5 5-11 8-17 11 3-9 3-20 0-30zm76 39c-3 1-6 1-7 3-8 8-17 14-26 19 16 7 35 11 53 6 16-4 32-9 45-19-17 3-35-4-52-7l-13-2zM180 53l11 2c-4 2-8 6-13 7l-16-3 12-5 6-1zm-77 2h4v3l-4-3zm259 0-10 5c-7 4-14 6-21 8 11 7 21 16 35 18 19 4 38-4 57-2 6 0 12 4 18 7 8 6 18 11 24 20-12-9-23-20-37-25-11-1-22 1-33 3 11 6 18 16 27 24 18 12 42 8 62 15 7 5 12 12 16 19-7-6-14-14-23-19-10-2-20-1-29 0l7 18c-4-5-5-12-10-16-6-3-12-5-19-5l17 19c10 12 23 19 38 21-6-4-13-6-19-11l18 8 30 7 10 7c-10-5-21-9-32-8 4 10 5 23 15 31s23 13 33 22l-18-8c-2 14-1 29 7 41 9 10 21 17 30 27 4 15 2 31 1 46-3-14-4-29-6-44-3-7-10-11-16-16-7 14-4 31-2 46-6-14-5-30-1-45l-13-12c0 16 3 33 8 48 8 15 18 29 28 41l-4 24c-1-13 2-30-11-39l-14 18c2-6 6-11 9-16 2-6-3-10-5-15l-3 1c-7 17-9 38-2 56v-15c3 15 9 28 14 43 1 4-2 7-3 11-5 10-10 21-17 30 5-10 10-20 13-31 2-10 2-21-5-29-11 8-18 20-24 32 3-13 11-24 21-32l-5-18c-8 14-14 29-17 45 1 16 6 32 8 48-10 14-22 28-36 40 9-14 21-25 28-40 5-9 2-20 0-30-10 8-20 17-27 28 4-11 13-19 22-27l1-18a87 87 0 0 0-28 53l5-7c-3 11-5 22-6 34-1 6 0 13-5 17-10 9-21 16-33 23 11-13 25-23 36-37 3-7 2-16 2-24l-23 13c-7 4-11 12-13 20l-8 32c-10 5-21 11-32 15l24-17c9-7 11-19 13-29l-19 4 15-5 6-15c-10 3-18 10-26 15a73 73 0 0 0-29 42c-2 5-2 12-8 14-13 4-26 7-39 8l16-6c8-2 17-3 23-9 6-4 6-12 7-18h-23c-10 1-19 6-26 12-9 7-14 17-22 23-15 2-30 0-45-1 15-5 30-1 45-4 6-4 10-12 15-18-8-5-17-8-26-6-18 2-30 16-44 25-2 2-5-1-7 0-12-2-25-6-36-10 11 0 22 2 34 4 4 1 9 2 13-1l20-17c-6-3-11-7-17-9-13-3-25 1-36 6-8 3-13 9-21 13-5 0-10-3-15-5-7-3-15-6-20-11 14 1 26 11 41 7l25-12v-3c-10-6-21-13-33-10-14 3-26 9-39 13-3 1-5 0-7-1-14-9-27-19-39-31l21 6c12 5 19 17 32 19l22-8c-2-8-8-15-14-21 8 3 12 11 14 19l16-2c-11-12-25-23-42-20l5 2c-17 3-33 3-50 2-4-1-8-1-11-4-8-7-15-16-21-24 5 0 10 2 15 5 8 6 14 14 23 19 10 4 21 2 32 1l-10-17c-5-8-14-12-23-13H80c-9-12-17-24-23-38 12 8 18 23 29 32 8 6 18 4 27 4-8-11-10-27-22-33-11-7-24-8-35-12-4-1-5-5-6-8l-14-35c11 8 12 23 18 34 6 9 18 11 28 14-1-11 0-24-8-32-9-12-24-16-36-23-3-1-4-5-5-8-5-15-6-32-6-48 3 5 5 10 5 16 2 12 3 24 9 34 2 4 4 7 7 9l15 7c1-13 2-26-1-40 5 11 3 22 3 33 0 6 6 9 10 12-1-15-1-30-9-44-2-4-7-6-10-9l-20-18c-3-3-7-5-7-10-2-16 1-32 5-48 1 17-5 34 0 51 2 7 10 11 16 16 2-9 6-17 11-24-2 8-7 14-7 22 1 4 4 8 7 11l5-27c1-9 0-18-6-26l2 8c-6-13-16-23-22-36 0-9 3-19 7-28l12-27-2 19c-3 12-10 24-11 37-2 8 5 13 11 18 7-11 17-23 16-38-1-14-9-25-11-39l2-7 14-20c-1 8-2 17-6 25-2 3-6 6-6 10 0 6 4 12 6 17 8-8 16-17 21-27-2 10-9 17-15 24-4 4-2 10-1 15l-3-2-1 16c-2 9-8 16-12 24-2 5 1 9 5 13l9-24 3-23c5-12 13-21 16-33 1-8 0-16-2-24-4-8-9-16-9-25l-7 13c-7 10-17 19-22 30l-14 28c-4 7-3 16-3 24l-9-12c1 7 3 15 0 23-2 11-9 20-9 32 0 6 3 10 5 15l-10-6c4 6 7 12 8 20 0 10-4 21-1 32l9 16-9-3c5 5 9 12 11 20 4 12 12 22 18 33l-3 1c15 13 11 37 26 50 4 3 8 4 11 8 5 7 9 15 12 24 5 7 15 9 23 13 8 7 12 17 21 23 6 3 13 2 19 5 8 5 12 15 21 19h19c10 4 18 12 29 15 5 2 10 0 15 0v2c4-1 9-3 14-1 8 2 15 8 25 8l21-6-5 7c7-3 15-8 24-7l25-1 22-12-1 6 11-7 26-5c12-3 16-18 29-21 7-3 15-3 21-7 8-8 12-20 22-26 8-5 19-7 23-16 5-10 8-20 14-29 6-6 15-10 19-19l7-29 4 7c0-8 0-16 2-24 4-9 11-17 14-27l-2-12 3 3-3-13c-2-11 11-20 7-31l-6-23 7 5c-3-8-8-15-10-23v-25c0-7-6-11-9-17l9 3c-4-4-9-7-10-13-2-8-2-16-6-24l-17-16h6c-6-4-11-9-15-15-3-6-4-14-8-20l-17-13-12-11c-6-6-9-15-17-21-6-5-14-6-21-10l-24-12c-7-4-13-10-21-12-10-4-21-8-32-8zm-93 7-16 10c11 4 22 6 33 6 14-1 29-3 41-10-19 5-40 3-58-6zm60 7c-5 4-12 6-18 8 22 12 48 17 73 12l-24-3c-11-3-22-9-31-17zm-76 5c-6 0-11 3-16 5l16 4 21-3-21-6zm54 6-13 2c10 4 22 4 33 5-4-3-9-5-14-6l-6-1zm-43 6-6 1c3 4 8 7 10 12 1 13-6 25-14 34 19-7 35-20 48-36 0 4 1 8-1 12-3 5-7 10-13 12-6 4-13 4-18 9 15-2 31-4 44-11 7-4 14-10 16-18 2-3-1-6-3-8-9-5-20-6-30-6l-10 5c-5 0-9-3-13-4l-10-2zm-122 2-2 2 7 3c-7 11-17 19-26 28-7 8-8 19-7 30 13-18 29-33 47-46 5-3 10-6 13-12-10-4-21-3-32-5zm187 3c2 3 6 6 7 9 1 6-2 12-6 15-7 7-15 10-23 14 12 3 25 3 37 1 9-1 15-8 18-16 1-7-5-12-11-16-6-5-14-5-22-7zm61 0-12 2c18 11 35 27 58 29-7-4-16-7-21-13-6-5-11-13-18-16l-7-2zm-100 2 10 3c-4 0-7-1-10-3zm74 2h-3c8 9 22 10 33 14l-19-13-11-1zm-191 4c-13 9-25 18-35 30l4 6c7-10 16-18 26-25 4-3 4-7 5-11zm187 1 7 9c2 4 0 10-3 13-5 7-14 8-22 12 12 3 24 4 35 1 6-1 12-8 10-14-4-12-17-16-27-21zm-127 5c-5 0-9 3-12 6 5-2 10-5 15-4 5 4 4 11 1 15-8 11-21 17-29 28-4 5-5 11-5 18 3-6 5-11 9-16 8-9 19-16 27-26 3-3 5-8 4-12s-5-9-10-9zm-2 5-3 1c-5 3-1 9 0 13 3-2 7-2 9-5 2-4-2-9-6-9zm158 5 8 12c-4 5-8 11-15 13-13 3-26-6-38 1-3 1-3 5-4 8 7-6 16-8 25-9l-3 3c10 4 19 9 29 11 6 0 14 0 19-4 5-5 2-13-1-18-4-7-12-13-20-17zm-168 0c-3 3-7 8-3 12 3 5 10 1 13-2l-8-2c-2-2-2-5-2-8zm100 3c-8 3-15 8-24 9-7 2-15 2-21 6-4 2-7 7-9 12 9-9 22-11 34-15 7-3 14-7 20-12zm-115 2-9 13 10-4-1-9zm210 3c5 11 14 18 24 24l-9-16-15-8zm-299 1c-10 6-20 13-27 22-2 4-2 10 0 14 2 6 4 11 9 14 4-4 8-9 10-15 3-7 1-15 2-23l6-12zm297 5c3 6 8 13 7 21-1 5-6 8-11 8l-20-1c9 7 19 13 31 14 9 3 17-8 13-17-3-10-11-19-20-25zm-223 3h-3c-7 3-11 10-17 15-5 6-14 8-21 12l13-2c11-4 19-14 30-19l3 8 2-12-7-2zm140 0-13 2c-5 1-9 5-13 9 11-6 24-6 36-10l-10-1zm-79 1-27 15c-7 5-9 15-10 23 3-4 4-10 8-13 10-8 21-15 29-25zm203 14c2 0 2 0 2 2-2 0-2-1-2-2zm-16 6c2 7 6 16-2 22-8 5-18 3-27 2 9 8 20 14 32 15 3 1 8 0 10-3 3-4 2-10 1-15-3-8-8-15-14-21zm-325 2-12 19c-4 5-6 12-5 18 9-10 14-24 17-37zm338 5c3 5 4 12 10 15l12 10-8-17-14-8zm15 4c6 10 13 20 21 28 6 7 14 14 24 16-5-5-12-8-15-14-5-7-6-16-10-23-6-4-13-5-20-7zm-11 10 3 14c1 6-4 11-10 11-9 0-16-3-24-6 10 9 21 20 35 22 5 1 10-2 11-7 0-13-6-25-15-34zm18 27c0 7 4 17-3 22-9 5-20-1-28-5 6 9 14 19 25 23 5 2 13 1 15-6 4-12-2-24-9-34zm-355 0c-8 7-12 17-17 25-8 12-14 25-17 39l14-21 3 20 2 1 2-17c3-16 6-32 13-47zm366 1 1 15 6 8 12 18-7-29c-3-5-8-8-12-12zm14 5c1 6 2 13 6 19 5 11 11 22 19 31-3-8-7-15-8-23v-21l-17-6zm-398 10c-17 20-25 44-32 68 0 6 3 11 4 16 3-5 7-10 6-16-1-16 5-30 10-44l12-24zm437 5c5 2 7 6 8 10l-8-10zm-51 4c0 8 2 20-8 23-8 4-15-2-22-6 4 9 10 18 18 24 4 1 8 4 12 2 3-1 6-5 7-9 1-12-1-24-7-34zm-374 5c-5 12-6 26-5 39 10-9 13-23 16-35-3 7-6 15-11 21v-25zm393 17 1 19 9 22-1-21c0-8-5-14-9-20zm-408 1c-14 24-19 52-16 80h2c0-9 1-17 4-25 4 5 7 12 10 18-2-24-1-49 0-73zm403 4c-2 8-1 19-9 24-9 5-18-5-25-9 2 9 6 18 12 25 4 4 9 7 15 4 5-3 7-9 9-14 2-10 1-21-2-30zm-398 25 8 33-2-30-6-3zm-3 1c0 21 3 41 8 60-1-12 2-24-2-36l-6-24zm407 8c-2 6-3 12-7 18-5 4-13 4-18 0s-8-9-11-14c0 7 2 13 4 20 2 5 5 12 11 15 6 2 12-2 15-6 7-9 7-22 6-33zm-446 3c4 0-2 3 0 0zm455 11-4 12c-1 8 2 16 3 23l6-19c0-5-3-11-5-16zM88 313c-2 25-1 54 14 75-1-8-2-16-1-24 8 3 13 12 19 19-3-12-10-22-15-33l-17-37zm385 5c-1 10-2 21 3 30 3 6 13 8 18 2 8-8 10-20 10-31-3 6-4 14-11 18-2 2-5 2-8 1-8-2-10-13-12-20zm-398 5-3 12 7 18h2c1-5 2-11 1-16l-7-14zm395 24c-2 8-4 18-2 27 1 3 5 6 9 7 3 0 6-2 9-4 7-7 11-16 14-25-5 5-10 14-19 12-7-2-9-11-11-17zm42 4c-4 3-7 6-10 11l-4 23c4-8 9-16 15-22l-1-12zm-49 19c-5 13-10 28-4 41 14-4 23-18 29-30l-11 9c-4 2-8-2-11-4-3-4-2-11-3-16zm-357 6c2 21 13 41 26 57-1-6-3-12-3-19l17 8c-10-17-23-34-40-46zm-37 4 11 14c2 7 2 14 5 21 2 5 8 7 14 7-3-10-8-19-13-28-5-6-11-10-17-14zm20 2c0 5 1 11 3 16l14 14-2-16c-6-4-11-9-15-14zm403 11-10 11-7 22c5-6 12-10 17-15v-18zm-42 4-10 18c-3 5-5 12-2 17 2 5 8 3 12 1 8-5 15-13 22-21-6 2-13 9-19 4-7-4-3-13-3-19zm-18 24c-9 10-19 21-20 35 5 1 9 2 13 0 12-4 24-11 31-21-6 3-13 10-21 6s-3-13-3-20zm-345 0 12 10c7 8 8 20 17 27 3 2 7-1 10-1-9-8-14-19-24-27l-15-9zm49 3c2 17 14 31 27 42l-4-8c-1-4 0-7 1-11l16 2c-10-12-24-24-40-25zm-22 2 5 16 18 12-7-18-16-10zm350 12-14 10-7 17 16-9 5-18zm-54 3c-10 10-25 22-22 38 16 0 31-9 42-20l-19 3c-8-4-3-14-1-21zm60 10c-6 3-11 9-16 15-9 8-17 17-22 27l10-10c7-5 16-8 22-14l6-18zm-298 3-6 1c-3 3-1 8 1 10 8 13 22 20 35 28-3-6-10-11-11-18 4-8 15-4 22-3-10-9-23-14-36-18h-5zm213 6c-11 5-21 11-29 19-3 3-5 8-2 12 2 4 7 5 11 5 14 0 27-5 37-14l-26-1c0-8 5-14 9-21zm-256 1c5 3 11 6 16 11l8 14c3 4 9 3 14 2-9-13-22-25-38-27zm18 0 9 12c5 4 10 5 16 7l-9-12c-5-4-11-5-16-7zm283 12c-6 3-13 4-19 5l-12 18 14-3c4 0 6-3 8-6l9-14zm-216 3h-11c-2 1-4 3-4 5 1 6 7 9 11 12 10 6 21 12 33 15-5-4-11-8-15-14-1-2 0-5 1-7l17-3c-9-6-21-8-32-8zm138 1c-11 2-22 6-30 15-3 3-5 8-2 12 5 3 11 2 16 3 12 0 23-5 35-8l-21-3c-3 0-7-2-7-6l9-13zm-27 9c-16 2-32 6-45 16l-1 4c4 3 8 5 13 6 15 3 31 2 46-1-10-3-21-4-30-9 2-8 11-11 17-16zm-61 1c-10 0-20 2-29 8 13 15 33 18 51 19-7-3-14-6-19-12 4-8 12-10 19-12l-22-3zm-79 4c7 6 13 13 23 13l-9-10-14-3zm-16 2 1 1h-3l2-1zm224 5-18 2c-5 6-12 10-18 15l21-1 15-16zm-172 9c7 5 15 11 25 9-3-3-5-6-9-7l-16-2zm182 3zm-191 3-16 2 16 2c7 1 13 6 20 8 4 2 9 1 14 1l1-3c-8-3-16-8-25-9l-10-1zm119 2-18 8c6 2 11 5 17 5l21-12-20-1zm-48 2-14 2c5 4 9 8 14 9l18-2-13-8-5-1zm102 0c-15 3-31 6-45 13-5 3-9 7-12 11 7-3 14-8 22-9l25-1 10-14zm-126 9-22 3c9 0 18 1 26 5l11 4 12-5c-8-3-15-6-23-7h-4zm55 5c-13 0-26 3-37 11l22-5c6 0 12 3 19 4 5-1 9-5 14-8l-18-2z"/></svg>
